<ttFont>
    <TTGlyph name=".notdef" xMin="228" yMin="0" xMax="1644" yMax="1416">
      <contour>
        <pt x="228" y="1416" on="1"/>
        <pt x="1644" y="1416" on="1"/>
        <pt x="1644" y="0" on="1"/>
        <pt x="228" y="0" on="1"/>
      </contour>
      <contour>
        <pt x="610" y="252" on="1"/>
        <pt x="934" y="605" on="1"/>
        <pt x="1271" y="252" on="1"/>
        <pt x="1384" y="365" on="1"/>
        <pt x="1036" y="708" on="1"/>
        <pt x="1384" y="1042" on="1"/>
        <pt x="1265" y="1158" on="1"/>
        <pt x="937" y="807" on="1"/>
        <pt x="604" y="1159" on="1"/>
        <pt x="490" y="1043" on="1"/>
        <pt x="834" y="705" on="1"/>
        <pt x="491" y="387" on="1"/>
      </contour>
    </TTGlyph>
    <TTGlyph name="A" xMin="-21" yMin="-21" xMax="1373" yMax="1551">
      <contour>
        <pt x="-21" y="92" on="1"/>
        <pt x="-21" y="126" on="0"/>
        <pt x="-10" y="196" on="0"/>
        <pt x="11" y="257" on="0"/>
        <pt x="41" y="307" on="0"/>
        <pt x="61" y="321" on="1"/>
        <pt x="90" y="311" on="0"/>
        <pt x="137" y="297" on="0"/>
        <pt x="172" y="289" on="1"/>
        <pt x="192" y="369" on="0"/>
        <pt x="243" y="579" on="0"/>
        <pt x="301" y="819" on="0"/>
        <pt x="363" y="1080" on="0"/>
        <pt x="393" y="1210" on="1"/>
        <pt x="152" y="1236" on="1"/>
        <pt x="140" y="1269" on="0"/>
        <pt x="129" y="1342" on="0"/>
        <pt x="129" y="1379" on="1"/>
        <pt x="129" y="1440" on="0"/>
        <pt x="143" y="1498" on="1"/>
        <pt x="225" y="1514" on="0"/>
        <pt x="413" y="1534" on="0"/>
        <pt x="595" y="1546" on="0"/>
        <pt x="752" y="1551" on="0"/>
        <pt x="803" y="1551" on="1"/>
        <pt x="840" y="1551" on="0"/>
        <pt x="913" y="1551" on="0"/>
        <pt x="950" y="1550" on="1"/>
        <pt x="1013" y="1514" on="1"/>
        <pt x="1063" y="1376" on="0"/>
        <pt x="1158" y="1063" on="0"/>
        <pt x="1244" y="738" on="0"/>
        <pt x="1321" y="415" on="0"/>
        <pt x="1354" y="267" on="1"/>
        <pt x="1360" y="240" on="0"/>
        <pt x="1373" y="180" on="0"/>
        <pt x="1373" y="149" on="1"/>
        <pt x="1373" y="113" on="0"/>
        <pt x="1348" y="43" on="0"/>
        <pt x="1313" y="13" on="1"/>
        <pt x="1278" y="-1" on="0"/>
        <pt x="1182" y="-20" on="0"/>
        <pt x="1110" y="-20" on="1"/>
        <pt x="1087" y="-20" on="0"/>
        <pt x="1031" y="-15" on="0"/>
        <pt x="976" y="-4" on="0"/>
        <pt x="931" y="15" on="0"/>
        <pt x="920" y="29" on="1"/>
        <pt x="932" y="287" on="1"/>
        <pt x="907" y="421" on="1"/>
        <pt x="870" y="419" on="0"/>
        <pt x="793" y="417" on="0"/>
        <pt x="754" y="417" on="1"/>
        <pt x="660" y="417" on="0"/>
        <pt x="578" y="423" on="1"/>
        <pt x="550" y="297" on="0"/>
        <pt x="509" y="127" on="0"/>
        <pt x="453" y="23" on="0"/>
        <pt x="365" y="-21" on="0"/>
        <pt x="289" y="-21" on="1"/>
        <pt x="242" y="-21" on="0"/>
        <pt x="148" y="-3" on="0"/>
        <pt x="65" y="29" on="0"/>
        <pt x="-2" y="69" on="0"/>
      </contour>
      <contour>
        <pt x="868" y="708" on="1"/>
        <pt x="762" y="1201" on="1"/>
        <pt x="716" y="1201" on="1"/>
        <pt x="644" y="708" on="1"/>
      </contour>
    </TTGlyph>
    <TTGlyph name="AE" xMin="-21" yMin="-21" xMax="1953" yMax="1551">
      <contour>
        <pt x="-21" y="92" on="1"/>
        <pt x="-21" y="126" on="0"/>
        <pt x="-10" y="196" on="0"/>
        <pt x="11" y="257" on="0"/>
        <pt x="41" y="307" on="0"/>
        <pt x="61" y="321" on="1"/>
        <pt x="90" y="311" on="0"/>
        <pt x="137" y="297" on="0"/>
        <pt x="172" y="289" on="1"/>
        <pt x="192" y="369" on="0"/>
        <pt x="243" y="579" on="0"/>
        <pt x="301" y="819" on="0"/>
        <pt x="363" y="1080" on="0"/>
        <pt x="393" y="1210" on="1"/>
        <pt x="152" y="1236" on="1"/>
        <pt x="140" y="1269" on="0"/>
        <pt x="129" y="1342" on="0"/>
        <pt x="129" y="1379" on="1"/>
        <pt x="129" y="1440" on="0"/>
        <pt x="143" y="1498" on="1"/>
        <pt x="225" y="1514" on="0"/>
        <pt x="413" y="1534" on="0"/>
        <pt x="595" y="1546" on="0"/>
        <pt x="752" y="1551" on="0"/>
        <pt x="803" y="1551" on="1"/>
        <pt x="840" y="1551" on="0"/>
        <pt x="913" y="1551" on="0"/>
        <pt x="950" y="1550" on="1"/>
        <pt x="1012" y="1514" on="1"/>
        <pt x="1071" y="1524" on="0"/>
        <pt x="1196" y="1537" on="0"/>
        <pt x="1319" y="1546" on="0"/>
        <pt x="1437" y="1550" on="0"/>
        <pt x="1490" y="1550" on="1"/>
        <pt x="1519" y="1550" on="0"/>
        <pt x="1596" y="1549" on="0"/>
        <pt x="1677" y="1545" on="0"/>
        <pt x="1753" y="1539" on="0"/>
        <pt x="1781" y="1533" on="1"/>
        <pt x="1829" y="1504" on="0"/>
        <pt x="1913" y="1438" on="0"/>
        <pt x="1953" y="1384" on="1"/>
        <pt x="1953" y="1331" on="0"/>
        <pt x="1937" y="1217" on="0"/>
        <pt x="1908" y="1113" on="0"/>
        <pt x="1871" y="1029" on="0"/>
        <pt x="1850" y="1005" on="1"/>
        <pt x="1827" y="994" on="0"/>
        <pt x="1774" y="983" on="0"/>
        <pt x="1732" y="983" on="1"/>
        <pt x="1666" y="983" on="0"/>
        <pt x="1622" y="1009" on="1"/>
        <pt x="1594" y="1206" on="1"/>
        <pt x="1562" y="1211" on="0"/>
        <pt x="1467" y="1217" on="0"/>
        <pt x="1418" y="1217" on="1"/>
        <pt x="1411" y="1217" on="0"/>
        <pt x="1387" y="1216" on="0"/>
        <pt x="1326" y="1214" on="0"/>
        <pt x="1211" y="1211" on="0"/>
        <pt x="1114" y="1208" on="1"/>
        <pt x="1140" y="1120" on="0"/>
        <pt x="1191" y="938" on="0"/>
        <pt x="1215" y="845" on="1"/>
        <pt x="1327" y="865" on="0"/>
        <pt x="1526" y="898" on="0"/>
        <pt x="1625" y="909" on="1"/>
        <pt x="1647" y="876" on="0"/>
        <pt x="1665" y="801" on="0"/>
        <pt x="1665" y="764" on="1"/>
        <pt x="1665" y="734" on="0"/>
        <pt x="1656" y="676" on="0"/>
        <pt x="1641" y="628" on="0"/>
        <pt x="1623" y="592" on="0"/>
        <pt x="1614" y="583" on="1"/>
        <pt x="1554" y="574" on="0"/>
        <pt x="1483" y="574" on="1"/>
        <pt x="1432" y="574" on="0"/>
        <pt x="1328" y="585" on="0"/>
        <pt x="1278" y="598" on="1"/>
        <pt x="1293" y="535" on="0"/>
        <pt x="1320" y="415" on="0"/>
        <pt x="1334" y="355" on="1"/>
        <pt x="1357" y="355" on="1"/>
        <pt x="1868" y="393" on="1"/>
        <pt x="1883" y="379" on="0"/>
        <pt x="1904" y="296" on="0"/>
        <pt x="1904" y="245" on="1"/>
        <pt x="1904" y="178" on="0"/>
        <pt x="1863" y="79" on="0"/>
        <pt x="1798" y="13" on="0"/>
        <pt x="1716" y="-20" on="0"/>
        <pt x="1675" y="-20" on="1"/>
        <pt x="1634" y="-20" on="0"/>
        <pt x="1548" y="5" on="0"/>
        <pt x="1464" y="46" on="0"/>
        <pt x="1384" y="98" on="0"/>
        <pt x="1349" y="125" on="1"/>
        <pt x="1345" y="81" on="0"/>
        <pt x="1307" y="25" on="0"/>
        <pt x="1244" y="-7" on="0"/>
        <pt x="1160" y="-20" on="0"/>
        <pt x="1110" y="-20" on="1"/>
        <pt x="1087" y="-20" on="0"/>
        <pt x="1031" y="-15" on="0"/>
        <pt x="976" y="-4" on="0"/>
        <pt x="931" y="15" on="0"/>
        <pt x="920" y="29" on="1"/>
        <pt x="932" y="287" on="1"/>
        <pt x="907" y="421" on="1"/>
        <pt x="870" y="419" on="0"/>
        <pt x="793" y="417" on="0"/>
        <pt x="754" y="417" on="1"/>
        <pt x="660" y="417" on="0"/>
        <pt x="578" y="423" on="1"/>
        <pt x="550" y="297" on="0"/>
        <pt x="509" y="127" on="0"/>
        <pt x="453" y="23" on="0"/>
        <pt x="365" y="-21" on="0"/>
        <pt x="289" y="-21" on="1"/>
        <pt x="242" y="-21" on="0"/>
        <pt x="148" y="-3" on="0"/>
        <pt x="65" y="29" on="0"/>
        <pt x="-2" y="69" on="0"/>
      </contour>
      <contour>
        <pt x="868" y="708" on="1"/>
        <pt x="762" y="1201" on="1"/>
        <pt x="716" y="1201" on="1"/>
        <pt x="644" y="708" on="1"/>
      </contour>
    </TTGlyph>
    <TTGlyph name="Aacute" xMin="-21" yMin="-21" xMax="1373" yMax="2020">
      <component glyphName="A" x="0" y="0" flags="0x204"/>
      <component glyphName="acute.cap" x="397" y="0" flags="0x4"/>
    </TTGlyph>
    <TTGlyph name="Acircumflex" xMin="-21" yMin="-21" xMax="1373" yMax="2015">
      <component glyphName="A" x="0" y="0" flags="0x204"/>
      <component glyphName="circumflex.cap" x="273" y="0" flags="0x4"/>
    </TTGlyph>
    <TTGlyph name="Adieresis" xMin="-21" yMin="-21" xMax="1373" yMax="1981">
      <component glyphName="A" x="0" y="0" flags="0x204"/>
      <component glyphName="dieresis.cap" x="154" y="0" flags="0x4"/>
    </TTGlyph>
    <TTGlyph name="Agrave" xMin="-21" yMin="-21" xMax="1373" yMax="2020">
      <component glyphName="A" x="0" y="0" flags="0x204"/>
      <component glyphName="grave.cap" x="288" y="0" flags="0x4"/>
    </TTGlyph>
    <TTGlyph name="Aring" xMin="-21" yMin="-21" xMax="1373" yMax="2020">
      <contour>
        <pt x="-21" y="92" on="1"/>
        <pt x="-21" y="126" on="0"/>
        <pt x="-10" y="196" on="0"/>
        <pt x="11" y="257" on="0"/>
        <pt x="41" y="307" on="0"/>
        <pt x="61" y="321" on="1"/>
        <pt x="90" y="311" on="0"/>
        <pt x="137" y="297" on="0"/>
        <pt x="172" y="289" on="1"/>
        <pt x="192" y="369" on="0"/>
        <pt x="243" y="579" on="0"/>
        <pt x="301" y="819" on="0"/>
        <pt x="363" y="1080" on="0"/>
        <pt x="393" y="1210" on="1"/>
        <pt x="152" y="1236" on="1"/>
        <pt x="140" y="1269" on="0"/>
        <pt x="129" y="1342" on="0"/>
        <pt x="129" y="1379" on="1"/>
        <pt x="129" y="1440" on="0"/>
        <pt x="143" y="1498" on="1"/>
        <pt x="228" y="1515" on="0"/>
        <pt x="423" y="1535" on="0"/>
        <pt x="517" y="1541" on="1"/>
        <pt x="456" y="1575" on="0"/>
        <pt x="387" y="1696" on="0"/>
        <pt x="387" y="1781" on="1"/>
        <pt x="387" y="1844" on="0"/>
        <pt x="432" y="1934" on="0"/>
        <pt x="513" y="1992" on="0"/>
        <pt x="624" y="2020" on="0"/>
        <pt x="690" y="2020" on="1"/>
        <pt x="750" y="2020" on="0"/>
        <pt x="855" y="1995" on="0"/>
        <pt x="934" y="1939" on="0"/>
        <pt x="979" y="1850" on="0"/>
        <pt x="979" y="1786" on="1"/>
        <pt x="979" y="1708" on="0"/>
        <pt x="918" y="1588" on="0"/>
        <pt x="863" y="1551" on="1"/>
        <pt x="885" y="1551" on="0"/>
        <pt x="928" y="1550" on="0"/>
        <pt x="950" y="1550" on="1"/>
        <pt x="1013" y="1514" on="1"/>
        <pt x="1063" y="1376" on="0"/>
        <pt x="1158" y="1063" on="0"/>
        <pt x="1244" y="738" on="0"/>
        <pt x="1321" y="415" on="0"/>
        <pt x="1354" y="267" on="1"/>
        <pt x="1360" y="240" on="0"/>
        <pt x="1373" y="180" on="0"/>
        <pt x="1373" y="149" on="1"/>
        <pt x="1373" y="113" on="0"/>
        <pt x="1348" y="43" on="0"/>
        <pt x="1313" y="13" on="1"/>
        <pt x="1278" y="-1" on="0"/>
        <pt x="1182" y="-20" on="0"/>
        <pt x="1110" y="-20" on="1"/>
        <pt x="1087" y="-20" on="0"/>
        <pt x="1031" y="-15" on="0"/>
        <pt x="976" y="-4" on="0"/>
        <pt x="931" y="15" on="0"/>
        <pt x="920" y="29" on="1"/>
        <pt x="932" y="287" on="1"/>
        <pt x="907" y="421" on="1"/>
        <pt x="870" y="419" on="0"/>
        <pt x="793" y="417" on="0"/>
        <pt x="754" y="417" on="1"/>
        <pt x="660" y="417" on="0"/>
        <pt x="578" y="423" on="1"/>
        <pt x="550" y="297" on="0"/>
        <pt x="509" y="127" on="0"/>
        <pt x="453" y="23" on="0"/>
        <pt x="365" y="-21" on="0"/>
        <pt x="289" y="-21" on="1"/>
        <pt x="242" y="-21" on="0"/>
        <pt x="148" y="-3" on="0"/>
        <pt x="65" y="29" on="0"/>
        <pt x="-2" y="69" on="0"/>
      </contour>
      <contour>
        <pt x="676" y="1700" on="1"/>
        <pt x="701" y="1700" on="0"/>
        <pt x="743" y="1705" on="0"/>
        <pt x="757" y="1710" on="1"/>
        <pt x="759" y="1719" on="0"/>
        <pt x="766" y="1741" on="0"/>
        <pt x="765" y="1754" on="1"/>
        <pt x="764" y="1779" on="0"/>
        <pt x="725" y="1808" on="0"/>
        <pt x="682" y="1808" on="1"/>
        <pt x="659" y="1808" on="0"/>
        <pt x="611" y="1804" on="0"/>
        <pt x="600" y="1801" on="1"/>
        <pt x="595" y="1795" on="0"/>
        <pt x="593" y="1777" on="0"/>
        <pt x="593" y="1769" on="1"/>
        <pt x="593" y="1734" on="0"/>
        <pt x="641" y="1700" on="0"/>
      </contour>
      <contour>
        <pt x="868" y="708" on="1"/>
        <pt x="762" y="1201" on="1"/>
        <pt x="716" y="1201" on="1"/>
        <pt x="644" y="708" on="1"/>
      </contour>
    </TTGlyph>
    <TTGlyph name="Atilde" xMin="-21" yMin="-21" xMax="1373" yMax="2019">
      <component glyphName="A" x="0" y="0" flags="0x204"/>
      <component glyphName="tilde" x="212" y="362" flags="0x4"/>
    </TTGlyph>
    <TTGlyph name="B" xMin="-13" yMin="-20" xMax="1254" yMax="1550">
      <contour>
        <pt x="202" y="1" on="1"/>
        <pt x="178" y="132" on="0"/>
        <pt x="159" y="512" on="0"/>
        <pt x="159" y="740" on="1"/>
        <pt x="159" y="855" on="0"/>
        <pt x="162" y="1096" on="0"/>
        <pt x="168" y="1205" on="1"/>
        <pt x="167" y="1205" on="1"/>
        <pt x="14" y="1226" on="1"/>
        <pt x="0" y="1264" on="0"/>
        <pt x="-13" y="1353" on="0"/>
        <pt x="-13" y="1394" on="1"/>
        <pt x="-13" y="1411" on="0"/>
        <pt x="-10" y="1447" on="0"/>
        <pt x="-8" y="1464" on="1"/>
        <pt x="56" y="1485" on="0"/>
        <pt x="227" y="1518" on="0"/>
        <pt x="414" y="1539" on="0"/>
        <pt x="604" y="1550" on="0"/>
        <pt x="687" y="1550" on="1"/>
        <pt x="747" y="1550" on="0"/>
        <pt x="872" y="1543" on="0"/>
        <pt x="988" y="1518" on="0"/>
        <pt x="1090" y="1470" on="0"/>
        <pt x="1165" y="1387" on="0"/>
        <pt x="1209" y="1263" on="0"/>
        <pt x="1209" y="1175" on="1"/>
        <pt x="1209" y="1125" on="0"/>
        <pt x="1168" y="1009" on="0"/>
        <pt x="1099" y="896" on="0"/>
        <pt x="1011" y="800" on="0"/>
        <pt x="965" y="771" on="1"/>
        <pt x="1018" y="762" on="0"/>
        <pt x="1122" y="714" on="0"/>
        <pt x="1204" y="635" on="0"/>
        <pt x="1254" y="524" on="0"/>
        <pt x="1254" y="452" on="1"/>
        <pt x="1254" y="325" on="0"/>
        <pt x="1156" y="148" on="0"/>
        <pt x="1073" y="93" on="1"/>
        <pt x="980" y="31" on="0"/>
        <pt x="733" y="-20" on="0"/>
        <pt x="593" y="-20" on="1"/>
        <pt x="487" y="-20" on="0"/>
        <pt x="290" y="-13" on="0"/>
      </contour>
      <contour>
        <pt x="524" y="787" on="1"/>
        <pt x="551" y="789" on="0"/>
        <pt x="610" y="794" on="0"/>
        <pt x="666" y="798" on="0"/>
        <pt x="713" y="801" on="0"/>
        <pt x="728" y="803" on="1"/>
        <pt x="742" y="843" on="0"/>
        <pt x="766" y="947" on="0"/>
        <pt x="783" y="1050" on="0"/>
        <pt x="793" y="1143" on="0"/>
        <pt x="795" y="1172" on="1"/>
        <pt x="790" y="1180" on="0"/>
        <pt x="703" y="1194" on="0"/>
        <pt x="625" y="1194" on="1"/>
        <pt x="608" y="1194" on="0"/>
        <pt x="562" y="1192" on="0"/>
        <pt x="548" y="1191" on="1"/>
        <pt x="546" y="1150" on="0"/>
        <pt x="542" y="1053" on="0"/>
        <pt x="536" y="947" on="0"/>
        <pt x="528" y="838" on="0"/>
      </contour>
      <contour>
        <pt x="505" y="250" on="1"/>
        <pt x="530" y="247" on="0"/>
        <pt x="611" y="242" on="0"/>
        <pt x="649" y="242" on="1"/>
        <pt x="678" y="242" on="1"/>
        <pt x="709" y="242" on="0"/>
        <pt x="775" y="244" on="0"/>
        <pt x="798" y="249" on="1"/>
        <pt x="818" y="261" on="0"/>
        <pt x="850" y="314" on="0"/>
        <pt x="871" y="379" on="0"/>
        <pt x="882" y="446" on="0"/>
        <pt x="882" y="472" on="1"/>
        <pt x="877" y="487" on="0"/>
        <pt x="843" y="507" on="0"/>
        <pt x="794" y="519" on="0"/>
        <pt x="734" y="524" on="0"/>
        <pt x="703" y="524" on="1"/>
        <pt x="672" y="524" on="0"/>
        <pt x="612" y="521" on="0"/>
        <pt x="560" y="516" on="0"/>
        <pt x="520" y="512" on="0"/>
        <pt x="511" y="512" on="1"/>
        <pt x="510" y="441" on="0"/>
        <pt x="506" y="310" on="0"/>
      </contour>
    </TTGlyph>
    <TTGlyph name="C" xMin="56" yMin="-20" xMax="1188" yMax="1552">
      <contour>
        <pt x="669" y="-20" on="1"/>
        <pt x="499" y="-20" on="0"/>
        <pt x="265" y="91" on="0"/>
        <pt x="120" y="295" on="0"/>
        <pt x="56" y="585" on="0"/>
        <pt x="56" y="764" on="1"/>
        <pt x="56" y="873" on="0"/>
        <pt x="88" y="1075" on="0"/>
        <pt x="155" y="1250" on="0"/>
        <pt x="258" y="1393" on="0"/>
        <pt x="401" y="1496" on="0"/>
        <pt x="585" y="1552" on="0"/>
        <pt x="699" y="1552" on="1"/>
        <pt x="770" y="1552" on="0"/>
        <pt x="922" y="1535" on="0"/>
        <pt x="1016" y="1513" on="1"/>
        <pt x="1064" y="1484" on="0"/>
        <pt x="1148" y="1417" on="0"/>
        <pt x="1188" y="1363" on="1"/>
        <pt x="1188" y="1328" on="0"/>
        <pt x="1178" y="1229" on="0"/>
        <pt x="1160" y="1120" on="0"/>
        <pt x="1137" y="1009" on="0"/>
        <pt x="1110" y="912" on="0"/>
        <pt x="1081" y="840" on="0"/>
        <pt x="1067" y="824" on="1"/>
        <pt x="1056" y="818" on="0"/>
        <pt x="1037" y="810" on="0"/>
        <pt x="1016" y="805" on="0"/>
        <pt x="988" y="802" on="0"/>
        <pt x="967" y="802" on="1"/>
        <pt x="922" y="802" on="0"/>
        <pt x="839" y="815" on="0"/>
        <pt x="817" y="828" on="1"/>
        <pt x="782" y="1165" on="1"/>
        <pt x="737" y="1178" on="0"/>
        <pt x="636" y="1185" on="0"/>
        <pt x="585" y="1185" on="1"/>
        <pt x="572" y="1185" on="0"/>
        <pt x="547" y="1185" on="0"/>
        <pt x="535" y="1184" on="1"/>
        <pt x="512" y="1112" on="0"/>
        <pt x="489" y="918" on="0"/>
        <pt x="487" y="813" on="1"/>
        <pt x="486" y="792" on="0"/>
        <pt x="486" y="749" on="0"/>
        <pt x="486" y="728" on="1"/>
        <pt x="486" y="670" on="0"/>
        <pt x="492" y="560" on="0"/>
        <pt x="500" y="511" on="1"/>
        <pt x="508" y="462" on="0"/>
        <pt x="527" y="388" on="0"/>
        <pt x="566" y="338" on="0"/>
        <pt x="634" y="313" on="0"/>
        <pt x="693" y="313" on="1"/>
        <pt x="748" y="313" on="0"/>
        <pt x="846" y="331" on="0"/>
        <pt x="936" y="362" on="0"/>
        <pt x="1022" y="404" on="0"/>
        <pt x="1066" y="429" on="1"/>
        <pt x="1085" y="408" on="0"/>
        <pt x="1124" y="364" on="0"/>
        <pt x="1157" y="313" on="0"/>
        <pt x="1181" y="250" on="0"/>
        <pt x="1186" y="211" on="1"/>
        <pt x="1180" y="199" on="0"/>
        <pt x="1141" y="155" on="0"/>
        <pt x="1077" y="104" on="0"/>
        <pt x="989" y="51" on="0"/>
        <pt x="878" y="8" on="0"/>
        <pt x="745" y="-20" on="0"/>
      </contour>
    </TTGlyph>
    <TTGlyph name="Ccedilla" xMin="56" yMin="-432" xMax="1188" yMax="1552">
      <contour>
        <pt x="431" y="-298" on="1"/>
        <pt x="441" y="-266" on="0"/>
        <pt x="475" y="-228" on="0"/>
        <pt x="501" y="-211" on="1"/>
        <pt x="539" y="-234" on="0"/>
        <pt x="595" y="-264" on="0"/>
        <pt x="637" y="-282" on="0"/>
        <pt x="667" y="-289" on="0"/>
        <pt x="679" y="-289" on="1"/>
        <pt x="690" y="-289" on="0"/>
        <pt x="710" y="-284" on="0"/>
        <pt x="721" y="-280" on="1"/>
        <pt x="732" y="-270" on="0"/>
        <pt x="740" y="-230" on="0"/>
        <pt x="728" y="-217" on="1"/>
        <pt x="704" y="-212" on="0"/>
        <pt x="653" y="-208" on="0"/>
        <pt x="604" y="-201" on="0"/>
        <pt x="561" y="-187" on="0"/>
        <pt x="545" y="-173" on="1"/>
        <pt x="541" y="-159" on="0"/>
        <pt x="538" y="-129" on="0"/>
        <pt x="538" y="-113" on="1"/>
        <pt x="538" y="-61" on="0"/>
        <pt x="556" y="-13" on="1"/>
        <pt x="418" y="5" on="0"/>
        <pt x="228" y="130" on="0"/>
        <pt x="109" y="331" on="0"/>
        <pt x="56" y="601" on="0"/>
        <pt x="56" y="764" on="1"/>
        <pt x="56" y="873" on="0"/>
        <pt x="88" y="1075" on="0"/>
        <pt x="155" y="1250" on="0"/>
        <pt x="258" y="1393" on="0"/>
        <pt x="401" y="1496" on="0"/>
        <pt x="585" y="1552" on="0"/>
        <pt x="699" y="1552" on="1"/>
        <pt x="770" y="1552" on="0"/>
        <pt x="922" y="1535" on="0"/>
        <pt x="1016" y="1513" on="1"/>
        <pt x="1064" y="1484" on="0"/>
        <pt x="1148" y="1417" on="0"/>
        <pt x="1188" y="1363" on="1"/>
        <pt x="1188" y="1328" on="0"/>
        <pt x="1178" y="1229" on="0"/>
        <pt x="1160" y="1120" on="0"/>
        <pt x="1137" y="1009" on="0"/>
        <pt x="1110" y="912" on="0"/>
        <pt x="1081" y="840" on="0"/>
        <pt x="1067" y="824" on="1"/>
        <pt x="1056" y="818" on="0"/>
        <pt x="1037" y="810" on="0"/>
        <pt x="1016" y="805" on="0"/>
        <pt x="988" y="802" on="0"/>
        <pt x="967" y="802" on="1"/>
        <pt x="922" y="802" on="0"/>
        <pt x="839" y="815" on="0"/>
        <pt x="817" y="828" on="1"/>
        <pt x="782" y="1165" on="1"/>
        <pt x="737" y="1178" on="0"/>
        <pt x="636" y="1185" on="0"/>
        <pt x="585" y="1185" on="1"/>
        <pt x="572" y="1185" on="0"/>
        <pt x="547" y="1185" on="0"/>
        <pt x="535" y="1184" on="1"/>
        <pt x="512" y="1112" on="0"/>
        <pt x="489" y="918" on="0"/>
        <pt x="487" y="813" on="1"/>
        <pt x="486" y="792" on="0"/>
        <pt x="486" y="749" on="0"/>
        <pt x="486" y="728" on="1"/>
        <pt x="486" y="670" on="0"/>
        <pt x="492" y="560" on="0"/>
        <pt x="500" y="511" on="1"/>
        <pt x="508" y="462" on="0"/>
        <pt x="527" y="388" on="0"/>
        <pt x="566" y="338" on="0"/>
        <pt x="634" y="313" on="0"/>
        <pt x="693" y="313" on="1"/>
        <pt x="748" y="313" on="0"/>
        <pt x="846" y="331" on="0"/>
        <pt x="936" y="362" on="0"/>
        <pt x="1022" y="404" on="0"/>
        <pt x="1066" y="429" on="1"/>
        <pt x="1085" y="408" on="0"/>
        <pt x="1124" y="364" on="0"/>
        <pt x="1157" y="313" on="0"/>
        <pt x="1181" y="250" on="0"/>
        <pt x="1186" y="211" on="1"/>
        <pt x="1180" y="200" on="0"/>
        <pt x="1144" y="158" on="0"/>
        <pt x="1084" y="110" on="0"/>
        <pt x="1002" y="58" on="0"/>
        <pt x="899" y="15" on="0"/>
        <pt x="776" y="-16" on="0"/>
        <pt x="705" y="-19" on="1"/>
        <pt x="705" y="-35" on="1"/>
        <pt x="705" y="-57" on="0"/>
        <pt x="708" y="-64" on="1"/>
        <pt x="717" y="-61" on="0"/>
        <pt x="744" y="-54" on="0"/>
        <pt x="772" y="-50" on="0"/>
        <pt x="796" y="-46" on="0"/>
        <pt x="802" y="-46" on="1"/>
        <pt x="809" y="-46" on="0"/>
        <pt x="849" y="-56" on="0"/>
        <pt x="892" y="-85" on="0"/>
        <pt x="926" y="-136" on="0"/>
        <pt x="926" y="-177" on="1"/>
        <pt x="926" y="-239" on="0"/>
        <pt x="881" y="-334" on="0"/>
        <pt x="807" y="-399" on="0"/>
        <pt x="714" y="-432" on="0"/>
        <pt x="665" y="-432" on="1"/>
        <pt x="632" y="-432" on="0"/>
        <pt x="558" y="-422" on="0"/>
        <pt x="491" y="-394" on="0"/>
        <pt x="440" y="-341" on="0"/>
      </contour>
    </TTGlyph>
    <TTGlyph name="D" xMin="-3" yMin="-20" xMax="1300" yMax="1550">
      <contour>
        <pt x="188" y="-20" on="1"/>
        <pt x="153" y="-7" on="0"/>
        <pt x="98" y="41" on="0"/>
        <pt x="60" y="105" on="0"/>
        <pt x="40" y="181" on="0"/>
        <pt x="40" y="222" on="1"/>
        <pt x="40" y="273" on="0"/>
        <pt x="57" y="327" on="1"/>
        <pt x="86" y="335" on="0"/>
        <pt x="173" y="351" on="0"/>
        <pt x="218" y="350" on="1"/>
        <pt x="208" y="451" on="0"/>
        <pt x="192" y="673" on="0"/>
        <pt x="179" y="896" on="0"/>
        <pt x="170" y="1111" on="0"/>
        <pt x="168" y="1204" on="1"/>
        <pt x="167" y="1204" on="1"/>
        <pt x="24" y="1225" on="1"/>
        <pt x="10" y="1263" on="0"/>
        <pt x="-3" y="1353" on="0"/>
        <pt x="-3" y="1394" on="1"/>
        <pt x="-3" y="1411" on="0"/>
        <pt x="0" y="1447" on="0"/>
        <pt x="2" y="1464" on="1"/>
        <pt x="42" y="1482" on="0"/>
        <pt x="159" y="1508" on="0"/>
        <pt x="297" y="1527" on="0"/>
        <pt x="449" y="1540" on="0"/>
        <pt x="598" y="1547" on="0"/>
        <pt x="737" y="1550" on="0"/>
        <pt x="793" y="1550" on="1"/>
        <pt x="853" y="1550" on="0"/>
        <pt x="976" y="1543" on="0"/>
        <pt x="1088" y="1517" on="0"/>
        <pt x="1186" y="1468" on="0"/>
        <pt x="1259" y="1382" on="0"/>
        <pt x="1300" y="1255" on="0"/>
        <pt x="1300" y="1165" on="1"/>
        <pt x="1300" y="997" on="0"/>
        <pt x="1219" y="583" on="0"/>
        <pt x="1150" y="349" on="1"/>
        <pt x="1140" y="316" on="0"/>
        <pt x="1116" y="246" on="0"/>
        <pt x="1084" y="177" on="0"/>
        <pt x="1042" y="113" on="0"/>
        <pt x="1015" y="86" on="1"/>
        <pt x="996" y="65" on="0"/>
        <pt x="957" y="31" on="0"/>
        <pt x="912" y="6" on="0"/>
        <pt x="859" y="-7" on="0"/>
        <pt x="826" y="-7" on="1"/>
        <pt x="807" y="-7" on="0"/>
        <pt x="766" y="-2" on="0"/>
        <pt x="742" y="3" on="1"/>
        <pt x="688" y="14" on="0"/>
        <pt x="605" y="44" on="0"/>
        <pt x="539" y="78" on="0"/>
        <pt x="485" y="114" on="0"/>
        <pt x="461" y="131" on="1"/>
        <pt x="447" y="110" on="0"/>
        <pt x="386" y="58" on="0"/>
        <pt x="310" y="13" on="0"/>
        <pt x="226" y="-19" on="0"/>
      </contour>
      <contour>
        <pt x="558" y="339" on="1"/>
        <pt x="626" y="339" on="0"/>
        <pt x="747" y="348" on="0"/>
        <pt x="810" y="358" on="1"/>
        <pt x="822" y="418" on="0"/>
        <pt x="842" y="558" on="0"/>
        <pt x="856" y="705" on="0"/>
        <pt x="868" y="852" on="0"/>
        <pt x="876" y="987" on="0"/>
        <pt x="882" y="1102" on="0"/>
        <pt x="885" y="1144" on="1"/>
        <pt x="880" y="1152" on="0"/>
        <pt x="803" y="1177" on="0"/>
        <pt x="725" y="1177" on="1"/>
        <pt x="711" y="1177" on="0"/>
        <pt x="670" y="1178" on="0"/>
        <pt x="647" y="1178" on="1"/>
        <pt x="624" y="1178" on="0"/>
        <pt x="577" y="1176" on="0"/>
        <pt x="557" y="1173" on="1"/>
        <pt x="557" y="1150" on="0"/>
        <pt x="558" y="1095" on="0"/>
        <pt x="560" y="1010" on="0"/>
        <pt x="561" y="884" on="0"/>
        <pt x="561" y="791" on="1"/>
        <pt x="561" y="707" on="0"/>
        <pt x="560" y="486" on="0"/>
      </contour>
    </TTGlyph>
    <TTGlyph name="E" xMin="18" yMin="-20" xMax="1172" yMax="1550">
      <contour>
        <pt x="187" y="-20" on="1"/>
        <pt x="155" y="-15" on="0"/>
        <pt x="98" y="30" on="0"/>
        <pt x="55" y="101" on="0"/>
        <pt x="30" y="193" on="0"/>
        <pt x="30" y="245" on="1"/>
        <pt x="30" y="287" on="0"/>
        <pt x="47" y="373" on="0"/>
        <pt x="67" y="418" on="1"/>
        <pt x="84" y="418" on="0"/>
        <pt x="155" y="406" on="0"/>
        <pt x="197" y="395" on="1"/>
        <pt x="195" y="497" on="0"/>
        <pt x="191" y="723" on="0"/>
        <pt x="191" y="838" on="1"/>
        <pt x="191" y="934" on="0"/>
        <pt x="194" y="1119" on="0"/>
        <pt x="199" y="1205" on="1"/>
        <pt x="45" y="1226" on="1"/>
        <pt x="31" y="1264" on="0"/>
        <pt x="18" y="1353" on="0"/>
        <pt x="18" y="1394" on="1"/>
        <pt x="18" y="1411" on="0"/>
        <pt x="21" y="1447" on="0"/>
        <pt x="23" y="1464" on="1"/>
        <pt x="88" y="1489" on="0"/>
        <pt x="261" y="1522" on="0"/>
        <pt x="452" y="1542" on="0"/>
        <pt x="645" y="1550" on="0"/>
        <pt x="729" y="1550" on="1"/>
        <pt x="758" y="1550" on="0"/>
        <pt x="829" y="1549" on="0"/>
        <pt x="902" y="1545" on="0"/>
        <pt x="972" y="1539" on="0"/>
        <pt x="1000" y="1533" on="1"/>
        <pt x="1048" y="1504" on="0"/>
        <pt x="1132" y="1438" on="0"/>
        <pt x="1172" y="1384" on="1"/>
        <pt x="1172" y="1331" on="0"/>
        <pt x="1156" y="1211" on="0"/>
        <pt x="1129" y="1100" on="0"/>
        <pt x="1092" y="1009" on="0"/>
        <pt x="1071" y="985" on="1"/>
        <pt x="1048" y="974" on="0"/>
        <pt x="993" y="963" on="0"/>
        <pt x="951" y="963" on="1"/>
        <pt x="914" y="963" on="0"/>
        <pt x="863" y="976" on="0"/>
        <pt x="841" y="989" on="1"/>
        <pt x="807" y="1207" on="1"/>
        <pt x="778" y="1212" on="0"/>
        <pt x="703" y="1217" on="0"/>
        <pt x="657" y="1217" on="1"/>
        <pt x="633" y="1217" on="0"/>
        <pt x="609" y="1214" on="1"/>
        <pt x="607" y="1127" on="0"/>
        <pt x="584" y="925" on="0"/>
        <pt x="568" y="819" on="1"/>
        <pt x="671" y="836" on="0"/>
        <pt x="855" y="863" on="0"/>
        <pt x="947" y="873" on="1"/>
        <pt x="969" y="840" on="0"/>
        <pt x="987" y="763" on="0"/>
        <pt x="987" y="724" on="1"/>
        <pt x="987" y="693" on="0"/>
        <pt x="978" y="634" on="0"/>
        <pt x="963" y="584" on="0"/>
        <pt x="945" y="546" on="0"/>
        <pt x="936" y="537" on="1"/>
        <pt x="913" y="533" on="0"/>
        <pt x="863" y="530" on="0"/>
        <pt x="836" y="530" on="1"/>
        <pt x="762" y="530" on="0"/>
        <pt x="602" y="555" on="0"/>
        <pt x="530" y="581" on="1"/>
        <pt x="521" y="521" on="0"/>
        <pt x="503" y="408" on="0"/>
        <pt x="496" y="356" on="1"/>
        <pt x="1129" y="393" on="1"/>
        <pt x="1144" y="379" on="0"/>
        <pt x="1165" y="296" on="0"/>
        <pt x="1165" y="245" on="1"/>
        <pt x="1165" y="183" on="0"/>
        <pt x="1127" y="85" on="0"/>
        <pt x="1063" y="16" on="0"/>
        <pt x="980" y="-20" on="0"/>
        <pt x="936" y="-20" on="1"/>
        <pt x="905" y="-20" on="0"/>
        <pt x="819" y="-6" on="0"/>
        <pt x="723" y="19" on="0"/>
        <pt x="621" y="52" on="0"/>
        <pt x="529" y="90" on="0"/>
        <pt x="452" y="130" on="0"/>
        <pt x="428" y="150" on="1"/>
        <pt x="407" y="114" on="0"/>
        <pt x="361" y="54" on="0"/>
        <pt x="304" y="10" on="0"/>
        <pt x="233" y="-17" on="0"/>
      </contour>
    </TTGlyph>
    <TTGlyph name="Eacute" xMin="18" yMin="-20" xMax="1172" yMax="2020">
      <component glyphName="E" x="0" y="0" flags="0x204"/>
      <component glyphName="acute.cap" x="347" y="0" flags="0x4"/>
    </TTGlyph>
    <TTGlyph name="Ecircumflex" xMin="18" yMin="-20" xMax="1172" yMax="2015">
      <component glyphName="E" x="0" y="0" flags="0x204"/>
      <component glyphName="circumflex.cap" x="182" y="0" flags="0x4"/>
    </TTGlyph>
    <TTGlyph name="Edieresis" xMin="18" yMin="-20" xMax="1172" yMax="1981">
      <component glyphName="E" x="0" y="0" flags="0x204"/>
      <component glyphName="dieresis.cap" x="93" y="0" flags="0x4"/>
    </TTGlyph>
    <TTGlyph name="Egrave" xMin="18" yMin="-20" xMax="1172" yMax="2020">
      <component glyphName="E" x="0" y="0" flags="0x204"/>
      <component glyphName="grave.cap" x="207" y="0" flags="0x4"/>
    </TTGlyph>
    <TTGlyph name="Eth" xMin="17" yMin="-20" xMax="1304" yMax="1550">
      <contour>
        <pt x="183" y="-20" on="1"/>
        <pt x="148" y="-7" on="0"/>
        <pt x="93" y="41" on="0"/>
        <pt x="55" y="105" on="0"/>
        <pt x="35" y="181" on="0"/>
        <pt x="35" y="222" on="1"/>
        <pt x="35" y="273" on="0"/>
        <pt x="52" y="327" on="1"/>
        <pt x="78" y="335" on="0"/>
        <pt x="155" y="348" on="0"/>
        <pt x="197" y="350" on="1"/>
        <pt x="193" y="417" on="0"/>
        <pt x="190" y="560" on="0"/>
        <pt x="189" y="638" on="1"/>
        <pt x="86" y="641" on="1"/>
        <pt x="83" y="658" on="0"/>
        <pt x="76" y="720" on="0"/>
        <pt x="76" y="752" on="1"/>
        <pt x="76" y="781" on="0"/>
        <pt x="84" y="833" on="0"/>
        <pt x="95" y="848" on="1"/>
        <pt x="189" y="853" on="1"/>
        <pt x="189" y="869" on="0"/>
        <pt x="189" y="900" on="0"/>
        <pt x="190" y="917" on="1"/>
        <pt x="191" y="989" on="0"/>
        <pt x="194" y="1138" on="0"/>
        <pt x="198" y="1204" on="1"/>
        <pt x="197" y="1204" on="1"/>
        <pt x="44" y="1225" on="1"/>
        <pt x="30" y="1263" on="0"/>
        <pt x="17" y="1353" on="0"/>
        <pt x="17" y="1394" on="1"/>
        <pt x="17" y="1411" on="0"/>
        <pt x="20" y="1447" on="0"/>
        <pt x="22" y="1464" on="1"/>
        <pt x="62" y="1482" on="0"/>
        <pt x="176" y="1508" on="0"/>
        <pt x="310" y="1527" on="0"/>
        <pt x="456" y="1540" on="0"/>
        <pt x="601" y="1547" on="0"/>
        <pt x="737" y="1550" on="0"/>
        <pt x="793" y="1550" on="1"/>
        <pt x="853" y="1550" on="0"/>
        <pt x="976" y="1543" on="0"/>
        <pt x="1090" y="1517" on="0"/>
        <pt x="1189" y="1468" on="0"/>
        <pt x="1262" y="1382" on="0"/>
        <pt x="1304" y="1255" on="0"/>
        <pt x="1304" y="1165" on="1"/>
        <pt x="1304" y="997" on="0"/>
        <pt x="1224" y="583" on="0"/>
        <pt x="1155" y="349" on="1"/>
        <pt x="1145" y="316" on="0"/>
        <pt x="1121" y="246" on="0"/>
        <pt x="1089" y="177" on="0"/>
        <pt x="1047" y="113" on="0"/>
        <pt x="1020" y="86" on="1"/>
        <pt x="982" y="44" on="0"/>
        <pt x="893" y="-7" on="0"/>
        <pt x="827" y="-7" on="1"/>
        <pt x="808" y="-7" on="0"/>
        <pt x="766" y="-2" on="0"/>
        <pt x="742" y="3" on="1"/>
        <pt x="688" y="14" on="0"/>
        <pt x="604" y="44" on="0"/>
        <pt x="535" y="78" on="0"/>
        <pt x="480" y="114" on="0"/>
        <pt x="456" y="131" on="1"/>
        <pt x="442" y="110" on="0"/>
        <pt x="381" y="58" on="0"/>
        <pt x="305" y="13" on="0"/>
        <pt x="221" y="-19" on="0"/>
      </contour>
      <contour>
        <pt x="529" y="339" on="1"/>
        <pt x="604" y="338" on="0"/>
        <pt x="741" y="347" on="0"/>
        <pt x="810" y="358" on="1"/>
        <pt x="828" y="448" on="0"/>
        <pt x="854" y="669" on="0"/>
        <pt x="871" y="888" on="0"/>
        <pt x="881" y="1081" on="0"/>
        <pt x="885" y="1144" on="1"/>
        <pt x="880" y="1152" on="0"/>
        <pt x="803" y="1177" on="0"/>
        <pt x="725" y="1177" on="1"/>
        <pt x="711" y="1177" on="0"/>
        <pt x="676" y="1178" on="0"/>
        <pt x="657" y="1178" on="1"/>
        <pt x="638" y="1178" on="0"/>
        <pt x="597" y="1176" on="0"/>
        <pt x="577" y="1173" on="1"/>
        <pt x="575" y="1108" on="0"/>
        <pt x="565" y="955" on="0"/>
        <pt x="560" y="872" on="1"/>
        <pt x="772" y="883" on="1"/>
        <pt x="780" y="871" on="0"/>
        <pt x="787" y="834" on="0"/>
        <pt x="787" y="811" on="1"/>
        <pt x="787" y="786" on="0"/>
        <pt x="779" y="730" on="0"/>
        <pt x="765" y="678" on="0"/>
        <pt x="746" y="635" on="0"/>
        <pt x="735" y="623" on="1"/>
        <pt x="545" y="628" on="1"/>
        <pt x="542" y="572" on="0"/>
        <pt x="536" y="485" on="0"/>
        <pt x="532" y="415" on="0"/>
        <pt x="530" y="361" on="0"/>
      </contour>
    </TTGlyph>
    <TTGlyph name="Euro" xMin="16" yMin="-20" xMax="1329" yMax="1552">
      <contour>
        <pt x="33" y="476" on="1"/>
        <pt x="31" y="487" on="0"/>
        <pt x="31" y="507" on="0"/>
        <pt x="31" y="517" on="1"/>
        <pt x="31" y="559" on="0"/>
        <pt x="52" y="619" on="0"/>
        <pt x="72" y="653" on="1"/>
        <pt x="176" y="660" on="1"/>
        <pt x="173" y="711" on="0"/>
        <pt x="173" y="764" on="1"/>
        <pt x="173" y="775" on="0"/>
        <pt x="173" y="795" on="0"/>
        <pt x="174" y="806" on="1"/>
        <pt x="18" y="806" on="1"/>
        <pt x="16" y="817" on="0"/>
        <pt x="16" y="837" on="0"/>
        <pt x="16" y="847" on="1"/>
        <pt x="16" y="889" on="0"/>
        <pt x="37" y="949" on="0"/>
        <pt x="57" y="983" on="1"/>
        <pt x="191" y="992" on="1"/>
        <pt x="212" y="1113" on="0"/>
        <pt x="306" y="1319" on="0"/>
        <pt x="457" y="1468" on="0"/>
        <pt x="670" y="1552" on="0"/>
        <pt x="810" y="1552" on="1"/>
        <pt x="845" y="1552" on="0"/>
        <pt x="946" y="1545" on="0"/>
        <pt x="1057" y="1532" on="0"/>
        <pt x="1168" y="1514" on="0"/>
        <pt x="1215" y="1503" on="1"/>
        <pt x="1239" y="1489" on="0"/>
        <pt x="1274" y="1453" on="0"/>
        <pt x="1301" y="1416" on="0"/>
        <pt x="1321" y="1379" on="0"/>
        <pt x="1329" y="1363" on="1"/>
        <pt x="1329" y="1310" on="0"/>
        <pt x="1313" y="1189" on="0"/>
        <pt x="1286" y="1076" on="0"/>
        <pt x="1249" y="984" on="0"/>
        <pt x="1228" y="960" on="1"/>
        <pt x="1205" y="949" on="0"/>
        <pt x="1150" y="934" on="0"/>
        <pt x="1108" y="934" on="1"/>
        <pt x="1019" y="934" on="0"/>
        <pt x="975" y="960" on="1"/>
        <pt x="940" y="1165" on="1"/>
        <pt x="917" y="1171" on="0"/>
        <pt x="855" y="1179" on="0"/>
        <pt x="787" y="1184" on="0"/>
        <pt x="721" y="1185" on="0"/>
        <pt x="696" y="1185" on="1"/>
        <pt x="683" y="1185" on="0"/>
        <pt x="638" y="1185" on="0"/>
        <pt x="626" y="1184" on="1"/>
        <pt x="604" y="1115" on="0"/>
        <pt x="587" y="1021" on="1"/>
        <pt x="829" y="1038" on="1"/>
        <pt x="835" y="1011" on="0"/>
        <pt x="835" y="980" on="1"/>
        <pt x="835" y="938" on="0"/>
        <pt x="813" y="849" on="0"/>
        <pt x="792" y="808" on="1"/>
        <pt x="567" y="807" on="1"/>
        <pt x="567" y="772" on="1"/>
        <pt x="567" y="751" on="0"/>
        <pt x="567" y="709" on="0"/>
        <pt x="568" y="688" on="1"/>
        <pt x="844" y="708" on="1"/>
        <pt x="850" y="681" on="0"/>
        <pt x="850" y="650" on="1"/>
        <pt x="850" y="608" on="0"/>
        <pt x="828" y="519" on="0"/>
        <pt x="807" y="478" on="1"/>
        <pt x="592" y="477" on="1"/>
        <pt x="601" y="436" on="0"/>
        <pt x="632" y="375" on="0"/>
        <pt x="682" y="334" on="0"/>
        <pt x="757" y="313" on="0"/>
        <pt x="810" y="313" on="1"/>
        <pt x="865" y="313" on="0"/>
        <pt x="963" y="331" on="0"/>
        <pt x="1053" y="362" on="0"/>
        <pt x="1139" y="404" on="0"/>
        <pt x="1183" y="429" on="1"/>
        <pt x="1202" y="408" on="0"/>
        <pt x="1235" y="366" on="0"/>
        <pt x="1261" y="316" on="0"/>
        <pt x="1279" y="255" on="0"/>
        <pt x="1284" y="216" on="1"/>
        <pt x="1275" y="198" on="0"/>
        <pt x="1203" y="120" on="0"/>
        <pt x="1078" y="40" on="0"/>
        <pt x="901" y="-20" on="0"/>
        <pt x="786" y="-20" on="1"/>
        <pt x="653" y="-20" on="0"/>
        <pt x="453" y="48" on="0"/>
        <pt x="310" y="176" on="0"/>
        <pt x="219" y="360" on="0"/>
        <pt x="197" y="476" on="1"/>
        <pt x="33" y="476" on="1"/>
      </contour>
    </TTGlyph>
    <TTGlyph name="F" xMin="13" yMin="-20" xMax="1156" yMax="1550">
      <contour>
        <pt x="13" y="116" on="1"/>
        <pt x="13" y="144" on="0"/>
        <pt x="19" y="198" on="0"/>
        <pt x="35" y="253" on="0"/>
        <pt x="65" y="311" on="0"/>
        <pt x="90" y="343" on="1"/>
        <pt x="108" y="334" on="0"/>
        <pt x="141" y="319" on="0"/>
        <pt x="174" y="305" on="0"/>
        <pt x="211" y="290" on="0"/>
        <pt x="235" y="281" on="1"/>
        <pt x="240" y="293" on="0"/>
        <pt x="242" y="324" on="0"/>
        <pt x="242" y="341" on="1"/>
        <pt x="242" y="352" on="0"/>
        <pt x="242" y="373" on="0"/>
        <pt x="241" y="384" on="1"/>
        <pt x="238" y="448" on="0"/>
        <pt x="225" y="619" on="0"/>
        <pt x="212" y="806" on="0"/>
        <pt x="201" y="997" on="0"/>
        <pt x="201" y="1080" on="1"/>
        <pt x="201" y="1100" on="0"/>
        <pt x="202" y="1139" on="0"/>
        <pt x="203" y="1158" on="1"/>
        <pt x="206" y="1205" on="1"/>
        <pt x="57" y="1226" on="1"/>
        <pt x="43" y="1264" on="0"/>
        <pt x="30" y="1353" on="0"/>
        <pt x="30" y="1394" on="1"/>
        <pt x="30" y="1411" on="0"/>
        <pt x="33" y="1447" on="0"/>
        <pt x="35" y="1464" on="1"/>
        <pt x="100" y="1489" on="0"/>
        <pt x="265" y="1522" on="0"/>
        <pt x="444" y="1542" on="0"/>
        <pt x="629" y="1550" on="0"/>
        <pt x="713" y="1550" on="1"/>
        <pt x="738" y="1550" on="0"/>
        <pt x="811" y="1549" on="0"/>
        <pt x="887" y="1545" on="0"/>
        <pt x="959" y="1539" on="0"/>
        <pt x="983" y="1533" on="1"/>
        <pt x="984" y="1534" on="1"/>
        <pt x="1032" y="1505" on="0"/>
        <pt x="1116" y="1438" on="0"/>
        <pt x="1156" y="1384" on="1"/>
        <pt x="1156" y="1331" on="0"/>
        <pt x="1137" y="1202" on="0"/>
        <pt x="1105" y="1079" on="0"/>
        <pt x="1066" y="979" on="0"/>
        <pt x="1045" y="955" on="1"/>
        <pt x="1022" y="944" on="0"/>
        <pt x="967" y="933" on="0"/>
        <pt x="925" y="933" on="1"/>
        <pt x="902" y="933" on="0"/>
        <pt x="870" y="936" on="0"/>
        <pt x="846" y="943" on="0"/>
        <pt x="826" y="953" on="0"/>
        <pt x="815" y="959" on="1"/>
        <pt x="781" y="1210" on="1"/>
        <pt x="767" y="1213" on="0"/>
        <pt x="731" y="1217" on="0"/>
        <pt x="701" y="1217" on="1"/>
        <pt x="680" y="1217" on="0"/>
        <pt x="633" y="1214" on="0"/>
        <pt x="612" y="1212" on="1"/>
        <pt x="607" y="1143" on="0"/>
        <pt x="604" y="982" on="0"/>
        <pt x="599" y="904" on="1"/>
        <pt x="591" y="730" on="1"/>
        <pt x="707" y="744" on="0"/>
        <pt x="908" y="775" on="0"/>
        <pt x="998" y="793" on="1"/>
        <pt x="1020" y="761" on="0"/>
        <pt x="1038" y="681" on="0"/>
        <pt x="1038" y="641" on="1"/>
        <pt x="1038" y="608" on="0"/>
        <pt x="1029" y="547" on="0"/>
        <pt x="1014" y="495" on="0"/>
        <pt x="996" y="456" on="0"/>
        <pt x="987" y="447" on="1"/>
        <pt x="968" y="444" on="0"/>
        <pt x="927" y="442" on="0"/>
        <pt x="905" y="442" on="1"/>
        <pt x="829" y="442" on="0"/>
        <pt x="657" y="471" on="0"/>
        <pt x="578" y="497" on="1"/>
        <pt x="572" y="408" on="0"/>
        <pt x="563" y="325" on="1"/>
        <pt x="555" y="256" on="0"/>
        <pt x="526" y="134" on="0"/>
        <pt x="491" y="86" on="1"/>
        <pt x="448" y="29" on="0"/>
        <pt x="318" y="-20" on="0"/>
        <pt x="250" y="-20" on="1"/>
        <pt x="223" y="-20" on="0"/>
        <pt x="159" y="-8" on="0"/>
        <pt x="95" y="22" on="0"/>
        <pt x="35" y="75" on="0"/>
      </contour>
    </TTGlyph>
    <TTGlyph name="G" xMin="67" yMin="-20" xMax="1241" yMax="1550">
      <contour>
        <pt x="489" y="-20" on="1"/>
        <pt x="391" y="-20" on="0"/>
        <pt x="234" y="91" on="0"/>
        <pt x="125" y="295" on="0"/>
        <pt x="67" y="585" on="0"/>
        <pt x="67" y="764" on="1"/>
        <pt x="67" y="873" on="0"/>
        <pt x="98" y="1074" on="0"/>
        <pt x="163" y="1249" on="0"/>
        <pt x="265" y="1392" on="0"/>
        <pt x="407" y="1494" on="0"/>
        <pt x="590" y="1550" on="0"/>
        <pt x="704" y="1550" on="1"/>
        <pt x="775" y="1550" on="0"/>
        <pt x="957" y="1533" on="0"/>
        <pt x="1051" y="1511" on="1"/>
        <pt x="1099" y="1482" on="0"/>
        <pt x="1183" y="1415" on="0"/>
        <pt x="1223" y="1361" on="1"/>
        <pt x="1223" y="1326" on="0"/>
        <pt x="1213" y="1228" on="0"/>
        <pt x="1195" y="1119" on="0"/>
        <pt x="1172" y="1008" on="0"/>
        <pt x="1145" y="912" on="0"/>
        <pt x="1116" y="840" on="0"/>
        <pt x="1102" y="824" on="1"/>
        <pt x="1091" y="818" on="0"/>
        <pt x="1072" y="810" on="0"/>
        <pt x="1051" y="805" on="0"/>
        <pt x="1023" y="802" on="0"/>
        <pt x="1002" y="802" on="1"/>
        <pt x="957" y="802" on="0"/>
        <pt x="874" y="815" on="0"/>
        <pt x="852" y="828" on="1"/>
        <pt x="817" y="1165" on="1"/>
        <pt x="794" y="1171" on="0"/>
        <pt x="737" y="1179" on="0"/>
        <pt x="676" y="1184" on="0"/>
        <pt x="615" y="1185" on="0"/>
        <pt x="590" y="1185" on="1"/>
        <pt x="577" y="1185" on="0"/>
        <pt x="552" y="1185" on="0"/>
        <pt x="540" y="1184" on="1"/>
        <pt x="517" y="1112" on="0"/>
        <pt x="494" y="918" on="0"/>
        <pt x="492" y="813" on="1"/>
        <pt x="492" y="774" on="1"/>
        <pt x="492" y="704" on="0"/>
        <pt x="501" y="570" on="0"/>
        <pt x="511" y="511" on="1"/>
        <pt x="519" y="462" on="0"/>
        <pt x="534" y="388" on="0"/>
        <pt x="553" y="338" on="0"/>
        <pt x="577" y="313" on="0"/>
        <pt x="594" y="313" on="1"/>
        <pt x="636" y="313" on="0"/>
        <pt x="709" y="345" on="0"/>
        <pt x="770" y="399" on="0"/>
        <pt x="820" y="468" on="0"/>
        <pt x="839" y="505" on="1"/>
        <pt x="812" y="648" on="1"/>
        <pt x="873" y="668" on="0"/>
        <pt x="1004" y="692" on="0"/>
        <pt x="1071" y="693" on="1"/>
        <pt x="1095" y="693" on="0"/>
        <pt x="1147" y="689" on="0"/>
        <pt x="1194" y="675" on="0"/>
        <pt x="1232" y="647" on="0"/>
        <pt x="1241" y="624" on="1"/>
        <pt x="1235" y="577" on="0"/>
        <pt x="1216" y="457" on="0"/>
        <pt x="1193" y="329" on="0"/>
        <pt x="1168" y="202" on="0"/>
        <pt x="1145" y="95" on="0"/>
        <pt x="1124" y="16" on="0"/>
        <pt x="1117" y="0" on="1"/>
        <pt x="1083" y="-11" on="0"/>
        <pt x="1022" y="-20" on="0"/>
        <pt x="993" y="-20" on="1"/>
        <pt x="964" y="-20" on="0"/>
        <pt x="895" y="-11" on="0"/>
        <pt x="867" y="0" on="1"/>
        <pt x="867" y="42" on="0"/>
        <pt x="861" y="162" on="0"/>
        <pt x="858" y="231" on="1"/>
        <pt x="831" y="239" on="1"/>
        <pt x="800" y="187" on="0"/>
        <pt x="726" y="93" on="0"/>
        <pt x="640" y="22" on="0"/>
        <pt x="543" y="-20" on="0"/>
      </contour>
    </TTGlyph>
    <TTGlyph name="H" xMin="26" yMin="-21" xMax="1438" yMax="1551">
      <contour>
        <pt x="176" y="1" on="1"/>
        <pt x="158" y="114" on="0"/>
        <pt x="139" y="431" on="0"/>
        <pt x="139" y="621" on="1"/>
        <pt x="139" y="765" on="0"/>
        <pt x="145" y="923" on="1"/>
        <pt x="147" y="999" on="0"/>
        <pt x="155" y="1145" on="0"/>
        <pt x="161" y="1214" on="1"/>
        <pt x="159" y="1214" on="1"/>
        <pt x="46" y="1235" on="1"/>
        <pt x="35" y="1282" on="0"/>
        <pt x="26" y="1352" on="0"/>
        <pt x="26" y="1390" on="1"/>
        <pt x="26" y="1400" on="0"/>
        <pt x="26" y="1419" on="0"/>
        <pt x="27" y="1430" on="1"/>
        <pt x="42" y="1448" on="0"/>
        <pt x="98" y="1490" on="0"/>
        <pt x="173" y="1526" on="0"/>
        <pt x="263" y="1550" on="0"/>
        <pt x="313" y="1550" on="1"/>
        <pt x="440" y="1550" on="0"/>
        <pt x="564" y="1422" on="0"/>
        <pt x="558" y="1291" on="1"/>
        <pt x="556" y="1250" on="0"/>
        <pt x="554" y="1151" on="0"/>
        <pt x="550" y="1037" on="0"/>
        <pt x="543" y="913" on="0"/>
        <pt x="537" y="848" on="1"/>
        <pt x="877" y="848" on="1"/>
        <pt x="879" y="936" on="0"/>
        <pt x="887" y="1119" on="0"/>
        <pt x="895" y="1215" on="1"/>
        <pt x="893" y="1215" on="1"/>
        <pt x="750" y="1236" on="1"/>
        <pt x="739" y="1283" on="0"/>
        <pt x="730" y="1353" on="0"/>
        <pt x="730" y="1391" on="1"/>
        <pt x="730" y="1401" on="0"/>
        <pt x="730" y="1420" on="0"/>
        <pt x="731" y="1431" on="1"/>
        <pt x="746" y="1449" on="0"/>
        <pt x="812" y="1491" on="0"/>
        <pt x="899" y="1527" on="0"/>
        <pt x="1001" y="1551" on="0"/>
        <pt x="1052" y="1551" on="1"/>
        <pt x="1179" y="1551" on="0"/>
        <pt x="1314" y="1423" on="0"/>
        <pt x="1314" y="1292" on="1"/>
        <pt x="1314" y="1181" on="0"/>
        <pt x="1295" y="933" on="0"/>
        <pt x="1264" y="675" on="0"/>
        <pt x="1224" y="413" on="0"/>
        <pt x="1203" y="289" on="1"/>
        <pt x="1351" y="353" on="1"/>
        <pt x="1391" y="318" on="0"/>
        <pt x="1433" y="229" on="0"/>
        <pt x="1438" y="175" on="1"/>
        <pt x="1400" y="120" on="0"/>
        <pt x="1349" y="77" on="1"/>
        <pt x="1327" y="59" on="0"/>
        <pt x="1274" y="24" on="0"/>
        <pt x="1212" y="-3" on="0"/>
        <pt x="1141" y="-20" on="0"/>
        <pt x="1101" y="-20" on="1"/>
        <pt x="1058" y="-20" on="0"/>
        <pt x="975" y="1" on="0"/>
        <pt x="909" y="55" on="0"/>
        <pt x="869" y="149" on="0"/>
        <pt x="870" y="223" on="1"/>
        <pt x="870" y="288" on="1"/>
        <pt x="870" y="342" on="0"/>
        <pt x="872" y="481" on="0"/>
        <pt x="877" y="564" on="1"/>
        <pt x="860" y="562" on="0"/>
        <pt x="824" y="562" on="0"/>
        <pt x="807" y="562" on="1"/>
        <pt x="732" y="562" on="0"/>
        <pt x="586" y="577" on="0"/>
        <pt x="513" y="582" on="1"/>
        <pt x="516" y="503" on="0"/>
        <pt x="532" y="348" on="0"/>
        <pt x="551" y="207" on="0"/>
        <pt x="570" y="84" on="0"/>
        <pt x="576" y="38" on="1"/>
        <pt x="555" y="25" on="0"/>
        <pt x="488" y="5" on="0"/>
        <pt x="413" y="-9" on="0"/>
        <pt x="338" y="-18" on="0"/>
        <pt x="310" y="-19" on="1"/>
        <pt x="270" y="-21" on="0"/>
        <pt x="208" y="-9" on="0"/>
      </contour>
    </TTGlyph>
    <TTGlyph name="I" xMin="4" yMin="-21" xMax="607" yMax="1550">
      <contour>
        <pt x="196" y="49" on="1"/>
        <pt x="196" y="104" on="0"/>
        <pt x="192" y="276" on="0"/>
        <pt x="188" y="485" on="0"/>
        <pt x="184" y="721" on="0"/>
        <pt x="184" y="840" on="1"/>
        <pt x="184" y="938" on="0"/>
        <pt x="187" y="1127" on="0"/>
        <pt x="192" y="1214" on="1"/>
        <pt x="29" y="1235" on="1"/>
        <pt x="22" y="1264" on="0"/>
        <pt x="12" y="1312" on="0"/>
        <pt x="6" y="1357" on="0"/>
        <pt x="4" y="1403" on="0"/>
        <pt x="5" y="1430" on="1"/>
        <pt x="20" y="1448" on="0"/>
        <pt x="89" y="1490" on="0"/>
        <pt x="181" y="1526" on="0"/>
        <pt x="287" y="1550" on="0"/>
        <pt x="338" y="1550" on="1"/>
        <pt x="393" y="1550" on="0"/>
        <pt x="489" y="1525" on="0"/>
        <pt x="560" y="1474" on="0"/>
        <pt x="603" y="1399" on="0"/>
        <pt x="605" y="1348" on="1"/>
        <pt x="606" y="1326" on="0"/>
        <pt x="607" y="1276" on="0"/>
        <pt x="607" y="1249" on="1"/>
        <pt x="607" y="1164" on="0"/>
        <pt x="599" y="951" on="0"/>
        <pt x="587" y="721" on="0"/>
        <pt x="572" y="486" on="0"/>
        <pt x="556" y="270" on="0"/>
        <pt x="542" y="87" on="0"/>
        <pt x="538" y="23" on="1"/>
        <pt x="497" y="0" on="0"/>
        <pt x="405" y="-21" on="0"/>
        <pt x="358" y="-21" on="1"/>
        <pt x="272" y="-21" on="0"/>
        <pt x="196" y="10" on="1"/>
      </contour>
    </TTGlyph>
    <TTGlyph name="IJ" xMin="4" yMin="-432" xMax="1724" yMax="1550">
      <component glyphName="I" x="0" y="0" flags="0x4"/>
      <component glyphName="J" x="722" y="0" flags="0x4"/>
    </TTGlyph>
    <TTGlyph name="Iacute" xMin="4" yMin="-21" xMax="692" yMax="2020">
      <component glyphName="I" x="0" y="0" flags="0x204"/>
      <component glyphName="acute.cap" x="81" y="0" flags="0x4"/>
    </TTGlyph>
    <TTGlyph name="Icircumflex" xMin="-33" yMin="-21" xMax="713" yMax="2015">
      <component glyphName="I" x="0" y="0" flags="0x204"/>
      <component glyphName="circumflex.cap" x="-83" y="0" flags="0x4"/>
    </TTGlyph>
    <TTGlyph name="Idieresis" xMin="-142" yMin="-21" xMax="809" yMax="1981">
      <component glyphName="I" x="0" y="0" flags="0x204"/>
      <component glyphName="dieresis.cap" x="-192" y="0" flags="0x4"/>
    </TTGlyph>
    <TTGlyph name="Igrave" xMin="-8" yMin="-21" xMax="607" yMax="2020">
      <component glyphName="I" x="0" y="0" flags="0x204"/>
      <component glyphName="grave.cap" x="-58" y="0" flags="0x4"/>
    </TTGlyph>
    <TTGlyph name="Itilde" xMin="-84" yMin="-21" xMax="749" yMax="2019">
      <component glyphName="I" x="0" y="0" flags="0x204"/>
      <component glyphName="tilde" x="-134" y="362" flags="0x4"/>
    </TTGlyph>
    <TTGlyph name="J" xMin="27" yMin="-432" xMax="1002" yMax="1538">
      <contour>
        <pt x="57" y="-45" on="1"/>
        <pt x="45" y="-7" on="0"/>
        <pt x="27" y="92" on="0"/>
        <pt x="27" y="148" on="1"/>
        <pt x="27" y="215" on="0"/>
        <pt x="64" y="352" on="0"/>
        <pt x="112" y="409" on="1"/>
        <pt x="139" y="423" on="0"/>
        <pt x="215" y="441" on="0"/>
        <pt x="258" y="441" on="1"/>
        <pt x="291" y="441" on="0"/>
        <pt x="359" y="429" on="0"/>
        <pt x="391" y="415" on="1"/>
        <pt x="392" y="354" on="0"/>
        <pt x="394" y="228" on="0"/>
        <pt x="406" y="92" on="0"/>
        <pt x="434" y="-57" on="0"/>
        <pt x="460" y="-140" on="1"/>
        <pt x="474" y="-144" on="0"/>
        <pt x="506" y="-146" on="0"/>
        <pt x="522" y="-146" on="1"/>
        <pt x="545" y="-146" on="0"/>
        <pt x="586" y="-143" on="0"/>
        <pt x="599" y="-145" on="1"/>
        <pt x="601" y="-105" on="0"/>
        <pt x="602" y="-3" on="0"/>
        <pt x="602" y="57" on="1"/>
        <pt x="602" y="180" on="0"/>
        <pt x="597" y="477" on="0"/>
        <pt x="592" y="628" on="1"/>
        <pt x="589" y="728" on="0"/>
        <pt x="585" y="925" on="0"/>
        <pt x="585" y="1011" on="1"/>
        <pt x="585" y="1076" on="0"/>
        <pt x="588" y="1182" on="0"/>
        <pt x="591" y="1219" on="1"/>
        <pt x="552" y="1217" on="0"/>
        <pt x="460" y="1213" on="0"/>
        <pt x="416" y="1209" on="1"/>
        <pt x="413" y="928" on="1"/>
        <pt x="384" y="921" on="0"/>
        <pt x="333" y="911" on="0"/>
        <pt x="284" y="905" on="0"/>
        <pt x="235" y="903" on="0"/>
        <pt x="208" y="904" on="1"/>
        <pt x="190" y="919" on="0"/>
        <pt x="148" y="991" on="0"/>
        <pt x="112" y="1087" on="0"/>
        <pt x="88" y="1196" on="0"/>
        <pt x="88" y="1247" on="1"/>
        <pt x="88" y="1337" on="0"/>
        <pt x="152" y="1457" on="0"/>
        <pt x="218" y="1484" on="1"/>
        <pt x="255" y="1504" on="0"/>
        <pt x="350" y="1522" on="0"/>
        <pt x="408" y="1529" on="1"/>
        <pt x="480" y="1538" on="0"/>
        <pt x="568" y="1538" on="1"/>
        <pt x="664" y="1538" on="0"/>
        <pt x="864" y="1520" on="0"/>
        <pt x="949" y="1506" on="1"/>
        <pt x="1002" y="1444" on="1"/>
        <pt x="1001" y="1410" on="0"/>
        <pt x="998" y="1316" on="0"/>
        <pt x="995" y="1212" on="0"/>
        <pt x="991" y="1105" on="0"/>
        <pt x="988" y="1008" on="0"/>
        <pt x="985" y="928" on="0"/>
        <pt x="984" y="904" on="1"/>
        <pt x="982" y="854" on="0"/>
        <pt x="976" y="693" on="0"/>
        <pt x="970" y="502" on="0"/>
        <pt x="962" y="297" on="0"/>
        <pt x="954" y="110" on="0"/>
        <pt x="945" y="-43" on="0"/>
        <pt x="940" y="-87" on="1"/>
        <pt x="932" y="-156" on="0"/>
        <pt x="903" y="-278" on="0"/>
        <pt x="868" y="-326" on="1"/>
        <pt x="825" y="-383" on="0"/>
        <pt x="683" y="-432" on="0"/>
        <pt x="601" y="-432" on="1"/>
        <pt x="495" y="-432" on="0"/>
        <pt x="326" y="-394" on="0"/>
        <pt x="193" y="-305" on="0"/>
        <pt x="93" y="-156" on="0"/>
      </contour>
    </TTGlyph>
    <TTGlyph name="Jcircumflex" xMin="27" yMin="-432" xMax="1002" yMax="2015">
      <component glyphName="J" x="0" y="0" flags="0x204"/>
      <component glyphName="circumflex.cap" x="180" y="0" flags="0x4"/>
    </TTGlyph>
    <TTGlyph name="K" xMin="-25" yMin="-21" xMax="1325" yMax="1552">
      <contour>
        <pt x="136" y="10" on="1"/>
        <pt x="136" y="33" on="0"/>
        <pt x="137" y="80" on="0"/>
        <pt x="137" y="103" on="1"/>
        <pt x="137" y="299" on="0"/>
        <pt x="122" y="687" on="0"/>
        <pt x="122" y="884" on="1"/>
        <pt x="122" y="967" on="0"/>
        <pt x="126" y="1131" on="0"/>
        <pt x="132" y="1214" on="1"/>
        <pt x="-1" y="1235" on="1"/>
        <pt x="-7" y="1261" on="0"/>
        <pt x="-16" y="1304" on="0"/>
        <pt x="-22" y="1345" on="0"/>
        <pt x="-25" y="1384" on="0"/>
        <pt x="-25" y="1407" on="1"/>
        <pt x="-25" y="1430" on="1"/>
        <pt x="-10" y="1448" on="0"/>
        <pt x="49" y="1490" on="0"/>
        <pt x="130" y="1526" on="0"/>
        <pt x="227" y="1550" on="0"/>
        <pt x="278" y="1550" on="1"/>
        <pt x="333" y="1550" on="0"/>
        <pt x="428" y="1528" on="0"/>
        <pt x="497" y="1479" on="0"/>
        <pt x="536" y="1402" on="0"/>
        <pt x="536" y="1348" on="1"/>
        <pt x="536" y="1287" on="0"/>
        <pt x="532" y="1122" on="0"/>
        <pt x="526" y="931" on="0"/>
        <pt x="517" y="723" on="0"/>
        <pt x="512" y="620" on="1"/>
        <pt x="574" y="634" on="1"/>
        <pt x="594" y="670" on="0"/>
        <pt x="641" y="765" on="0"/>
        <pt x="690" y="871" on="0"/>
        <pt x="736" y="982" on="0"/>
        <pt x="777" y="1088" on="0"/>
        <pt x="808" y="1181" on="0"/>
        <pt x="816" y="1216" on="1"/>
        <pt x="692" y="1237" on="1"/>
        <pt x="686" y="1263" on="0"/>
        <pt x="677" y="1306" on="0"/>
        <pt x="671" y="1347" on="0"/>
        <pt x="668" y="1386" on="0"/>
        <pt x="668" y="1409" on="1"/>
        <pt x="668" y="1432" on="1"/>
        <pt x="683" y="1450" on="0"/>
        <pt x="748" y="1492" on="0"/>
        <pt x="836" y="1528" on="0"/>
        <pt x="939" y="1552" on="0"/>
        <pt x="990" y="1552" on="1"/>
        <pt x="1041" y="1552" on="0"/>
        <pt x="1134" y="1526" on="0"/>
        <pt x="1205" y="1472" on="0"/>
        <pt x="1246" y="1388" on="0"/>
        <pt x="1246" y="1331" on="1"/>
        <pt x="1246" y="1261" on="0"/>
        <pt x="1177" y="1091" on="0"/>
        <pt x="1071" y="915" on="0"/>
        <pt x="943" y="744" on="0"/>
        <pt x="884" y="673" on="1"/>
        <pt x="908" y="623" on="0"/>
        <pt x="962" y="525" on="0"/>
        <pt x="1015" y="439" on="0"/>
        <pt x="1066" y="368" on="0"/>
        <pt x="1088" y="345" on="1"/>
        <pt x="1118" y="360" on="0"/>
        <pt x="1172" y="417" on="0"/>
        <pt x="1202" y="449" on="1"/>
        <pt x="1325" y="356" on="1"/>
        <pt x="1325" y="334" on="1"/>
        <pt x="1325" y="259" on="0"/>
        <pt x="1288" y="130" on="0"/>
        <pt x="1210" y="35" on="0"/>
        <pt x="1089" y="-19" on="0"/>
        <pt x="1005" y="-19" on="1"/>
        <pt x="945" y="-19" on="0"/>
        <pt x="891" y="-2" on="1"/>
        <pt x="831" y="16" on="0"/>
        <pt x="742" y="107" on="0"/>
        <pt x="679" y="228" on="0"/>
        <pt x="640" y="366" on="0"/>
        <pt x="632" y="431" on="1"/>
        <pt x="600" y="423" on="0"/>
        <pt x="535" y="416" on="0"/>
        <pt x="501" y="414" on="1"/>
        <pt x="495" y="295" on="0"/>
        <pt x="483" y="92" on="0"/>
        <pt x="478" y="23" on="1"/>
        <pt x="436" y="0" on="0"/>
        <pt x="345" y="-21" on="0"/>
        <pt x="298" y="-21" on="1"/>
        <pt x="212" y="-21" on="0"/>
      </contour>
    </TTGlyph>
    <TTGlyph name="Kcommaaccent" xMin="-25" yMin="-540" xMax="1325" yMax="1552">
      <component glyphName="K" x="0" y="0" flags="0x204"/>
      <component glyphName="commaaccent" x="344" y="0" flags="0x4"/>
    </TTGlyph>
    <TTGlyph name="L" xMin="21" yMin="-20" xMax="1153" yMax="1550">
      <contour>
        <pt x="197" y="-20" on="1"/>
        <pt x="165" y="-15" on="0"/>
        <pt x="108" y="32" on="0"/>
        <pt x="65" y="105" on="0"/>
        <pt x="40" y="200" on="0"/>
        <pt x="40" y="253" on="1"/>
        <pt x="40" y="295" on="0"/>
        <pt x="57" y="383" on="0"/>
        <pt x="77" y="428" on="1"/>
        <pt x="94" y="428" on="0"/>
        <pt x="165" y="416" on="0"/>
        <pt x="206" y="405" on="1"/>
        <pt x="204" y="502" on="0"/>
        <pt x="201" y="716" on="0"/>
        <pt x="201" y="825" on="1"/>
        <pt x="201" y="923" on="0"/>
        <pt x="204" y="1114" on="0"/>
        <pt x="209" y="1202" on="1"/>
        <pt x="208" y="1202" on="1"/>
        <pt x="208" y="1205" on="0"/>
        <pt x="209" y="1211" on="0"/>
        <pt x="209" y="1214" on="1"/>
        <pt x="46" y="1235" on="1"/>
        <pt x="39" y="1264" on="0"/>
        <pt x="29" y="1312" on="0"/>
        <pt x="23" y="1357" on="0"/>
        <pt x="21" y="1403" on="0"/>
        <pt x="22" y="1430" on="1"/>
        <pt x="47" y="1458" on="0"/>
        <pt x="134" y="1503" on="0"/>
        <pt x="235" y="1534" on="0"/>
        <pt x="340" y="1550" on="0"/>
        <pt x="384" y="1550" on="1"/>
        <pt x="495" y="1550" on="0"/>
        <pt x="628" y="1462" on="0"/>
        <pt x="637" y="1360" on="1"/>
        <pt x="640" y="1321" on="0"/>
        <pt x="640" y="1275" on="1"/>
        <pt x="640" y="1183" on="0"/>
        <pt x="619" y="956" on="0"/>
        <pt x="587" y="716" on="0"/>
        <pt x="549" y="478" on="0"/>
        <pt x="533" y="377" on="1"/>
        <pt x="788" y="363" on="1"/>
        <pt x="892" y="695" on="1"/>
        <pt x="914" y="696" on="0"/>
        <pt x="969" y="692" on="0"/>
        <pt x="1026" y="684" on="0"/>
        <pt x="1081" y="671" on="0"/>
        <pt x="1104" y="663" on="1"/>
        <pt x="1112" y="642" on="0"/>
        <pt x="1129" y="567" on="0"/>
        <pt x="1144" y="472" on="0"/>
        <pt x="1153" y="365" on="0"/>
        <pt x="1153" y="313" on="1"/>
        <pt x="1153" y="242" on="0"/>
        <pt x="1131" y="120" on="0"/>
        <pt x="1105" y="84" on="1"/>
        <pt x="1086" y="58" on="0"/>
        <pt x="1026" y="20" on="0"/>
        <pt x="959" y="-7" on="0"/>
        <pt x="892" y="-20" on="0"/>
        <pt x="866" y="-20" on="1"/>
        <pt x="820" y="-20" on="0"/>
        <pt x="705" y="11" on="0"/>
        <pt x="589" y="60" on="0"/>
        <pt x="484" y="121" on="0"/>
        <pt x="448" y="150" on="1"/>
        <pt x="406" y="77" on="0"/>
        <pt x="289" y="-13" on="0"/>
      </contour>
    </TTGlyph>
    <TTGlyph name="Ldot" xMin="21" yMin="-20" xMax="1323" yMax="1550">
      <contour>
        <pt x="197" y="-20" on="1"/>
        <pt x="165" y="-15" on="0"/>
        <pt x="108" y="32" on="0"/>
        <pt x="65" y="105" on="0"/>
        <pt x="40" y="200" on="0"/>
        <pt x="40" y="253" on="1"/>
        <pt x="40" y="295" on="0"/>
        <pt x="57" y="383" on="0"/>
        <pt x="77" y="428" on="1"/>
        <pt x="94" y="428" on="0"/>
        <pt x="165" y="416" on="0"/>
        <pt x="206" y="405" on="1"/>
        <pt x="204" y="502" on="0"/>
        <pt x="201" y="716" on="0"/>
        <pt x="201" y="825" on="1"/>
        <pt x="201" y="923" on="0"/>
        <pt x="204" y="1114" on="0"/>
        <pt x="209" y="1202" on="1"/>
        <pt x="208" y="1202" on="1"/>
        <pt x="208" y="1205" on="0"/>
        <pt x="209" y="1211" on="0"/>
        <pt x="209" y="1214" on="1"/>
        <pt x="46" y="1235" on="1"/>
        <pt x="39" y="1264" on="0"/>
        <pt x="29" y="1312" on="0"/>
        <pt x="23" y="1357" on="0"/>
        <pt x="21" y="1403" on="0"/>
        <pt x="22" y="1430" on="1"/>
        <pt x="47" y="1458" on="0"/>
        <pt x="134" y="1503" on="0"/>
        <pt x="235" y="1534" on="0"/>
        <pt x="340" y="1550" on="0"/>
        <pt x="384" y="1550" on="1"/>
        <pt x="495" y="1550" on="0"/>
        <pt x="628" y="1462" on="0"/>
        <pt x="637" y="1360" on="1"/>
        <pt x="640" y="1321" on="0"/>
        <pt x="640" y="1275" on="1"/>
        <pt x="640" y="1183" on="0"/>
        <pt x="619" y="956" on="0"/>
        <pt x="587" y="716" on="0"/>
        <pt x="549" y="478" on="0"/>
        <pt x="533" y="377" on="1"/>
        <pt x="788" y="363" on="1"/>
        <pt x="892" y="625" on="1"/>
        <pt x="914" y="626" on="0"/>
        <pt x="969" y="622" on="0"/>
        <pt x="1026" y="614" on="0"/>
        <pt x="1081" y="601" on="0"/>
        <pt x="1104" y="593" on="1"/>
        <pt x="1112" y="572" on="0"/>
        <pt x="1129" y="505" on="0"/>
        <pt x="1144" y="424" on="0"/>
        <pt x="1153" y="334" on="0"/>
        <pt x="1153" y="289" on="1"/>
        <pt x="1153" y="229" on="0"/>
        <pt x="1131" y="120" on="0"/>
        <pt x="1105" y="84" on="1"/>
        <pt x="1086" y="58" on="0"/>
        <pt x="1026" y="20" on="0"/>
        <pt x="959" y="-7" on="0"/>
        <pt x="892" y="-20" on="0"/>
        <pt x="866" y="-20" on="1"/>
        <pt x="820" y="-20" on="0"/>
        <pt x="705" y="11" on="0"/>
        <pt x="589" y="60" on="0"/>
        <pt x="484" y="121" on="0"/>
        <pt x="448" y="150" on="1"/>
        <pt x="406" y="77" on="0"/>
        <pt x="289" y="-13" on="0"/>
      </contour>
      <contour>
        <pt x="817" y="922" on="1"/>
        <pt x="817" y="961" on="0"/>
        <pt x="843" y="1033" on="0"/>
        <pt x="902" y="1090" on="0"/>
        <pt x="999" y="1124" on="0"/>
        <pt x="1070" y="1124" on="1"/>
        <pt x="1141" y="1124" on="0"/>
        <pt x="1238" y="1090" on="0"/>
        <pt x="1297" y="1033" on="0"/>
        <pt x="1323" y="961" on="0"/>
        <pt x="1323" y="922" on="1"/>
        <pt x="1323" y="877" on="0"/>
        <pt x="1280" y="798" on="0"/>
        <pt x="1209" y="738" on="0"/>
        <pt x="1118" y="703" on="0"/>
        <pt x="1070" y="703" on="1"/>
        <pt x="1022" y="703" on="0"/>
        <pt x="931" y="738" on="0"/>
        <pt x="860" y="798" on="0"/>
        <pt x="817" y="877" on="0"/>
      </contour>
    </TTGlyph>
    <TTGlyph name="Lslash" xMin="40" yMin="-20" xMax="1144" yMax="1550">
      <contour>
        <pt x="227" y="-20" on="1"/>
        <pt x="195" y="-15" on="0"/>
        <pt x="138" y="27" on="0"/>
        <pt x="95" y="93" on="0"/>
        <pt x="70" y="179" on="0"/>
        <pt x="70" y="229" on="1"/>
        <pt x="70" y="269" on="0"/>
        <pt x="87" y="353" on="0"/>
        <pt x="107" y="398" on="1"/>
        <pt x="124" y="398" on="0"/>
        <pt x="195" y="394" on="0"/>
        <pt x="237" y="386" on="1"/>
        <pt x="234" y="555" on="1"/>
        <pt x="96" y="504" on="1"/>
        <pt x="83" y="510" on="0"/>
        <pt x="63" y="540" on="0"/>
        <pt x="48" y="580" on="0"/>
        <pt x="40" y="627" on="0"/>
        <pt x="40" y="650" on="1"/>
        <pt x="40" y="682" on="0"/>
        <pt x="48" y="709" on="1"/>
        <pt x="231" y="800" on="1"/>
        <pt x="231" y="866" on="1"/>
        <pt x="231" y="954" on="0"/>
        <pt x="234" y="1123" on="0"/>
        <pt x="239" y="1202" on="1"/>
        <pt x="238" y="1202" on="1"/>
        <pt x="238" y="1205" on="0"/>
        <pt x="239" y="1211" on="0"/>
        <pt x="239" y="1214" on="1"/>
        <pt x="76" y="1235" on="1"/>
        <pt x="69" y="1264" on="0"/>
        <pt x="59" y="1312" on="0"/>
        <pt x="53" y="1357" on="0"/>
        <pt x="51" y="1403" on="0"/>
        <pt x="52" y="1430" on="1"/>
        <pt x="67" y="1448" on="0"/>
        <pt x="136" y="1490" on="0"/>
        <pt x="228" y="1526" on="0"/>
        <pt x="334" y="1550" on="0"/>
        <pt x="385" y="1550" on="1"/>
        <pt x="440" y="1550" on="0"/>
        <pt x="533" y="1525" on="0"/>
        <pt x="602" y="1474" on="0"/>
        <pt x="644" y="1398" on="0"/>
        <pt x="649" y="1347" on="1"/>
        <pt x="651" y="1324" on="0"/>
        <pt x="653" y="1274" on="0"/>
        <pt x="653" y="1246" on="1"/>
        <pt x="653" y="1193" on="0"/>
        <pt x="647" y="1075" on="0"/>
        <pt x="642" y="1012" on="1"/>
        <pt x="911" y="1154" on="1"/>
        <pt x="927" y="1154" on="0"/>
        <pt x="965" y="1104" on="0"/>
        <pt x="997" y="1029" on="0"/>
        <pt x="1018" y="943" on="0"/>
        <pt x="1018" y="906" on="1"/>
        <pt x="1018" y="881" on="0"/>
        <pt x="1012" y="862" on="1"/>
        <pt x="608" y="702" on="1"/>
        <pt x="597" y="615" on="0"/>
        <pt x="574" y="451" on="0"/>
        <pt x="563" y="377" on="1"/>
        <pt x="838" y="363" on="1"/>
        <pt x="922" y="605" on="1"/>
        <pt x="967" y="607" on="0"/>
        <pt x="1069" y="590" on="0"/>
        <pt x="1114" y="573" on="1"/>
        <pt x="1127" y="539" on="0"/>
        <pt x="1144" y="418" on="0"/>
        <pt x="1144" y="349" on="1"/>
        <pt x="1144" y="311" on="0"/>
        <pt x="1138" y="236" on="0"/>
        <pt x="1123" y="165" on="0"/>
        <pt x="1099" y="104" on="0"/>
        <pt x="1082" y="80" on="1"/>
        <pt x="1044" y="29" on="0"/>
        <pt x="949" y="-20" on="0"/>
        <pt x="896" y="-20" on="1"/>
        <pt x="850" y="-20" on="0"/>
        <pt x="735" y="11" on="0"/>
        <pt x="619" y="60" on="0"/>
        <pt x="514" y="121" on="0"/>
        <pt x="478" y="150" on="1"/>
        <pt x="436" y="77" on="0"/>
        <pt x="319" y="-13" on="0"/>
      </contour>
    </TTGlyph>
    <TTGlyph name="M" xMin="19" yMin="-20" xMax="1862" yMax="1550">
      <contour>
        <pt x="21" y="138" on="1"/>
        <pt x="20" y="146" on="0"/>
        <pt x="19" y="161" on="0"/>
        <pt x="19" y="169" on="1"/>
        <pt x="19" y="192" on="0"/>
        <pt x="26" y="240" on="0"/>
        <pt x="38" y="286" on="0"/>
        <pt x="56" y="328" on="0"/>
        <pt x="67" y="344" on="1"/>
        <pt x="163" y="326" on="1"/>
        <pt x="271" y="1262" on="1"/>
        <pt x="117" y="1284" on="1"/>
        <pt x="98" y="1334" on="0"/>
        <pt x="98" y="1386" on="1"/>
        <pt x="98" y="1438" on="0"/>
        <pt x="119" y="1494" on="1"/>
        <pt x="148" y="1508" on="0"/>
        <pt x="252" y="1529" on="0"/>
        <pt x="370" y="1543" on="0"/>
        <pt x="487" y="1550" on="0"/>
        <pt x="529" y="1550" on="1"/>
        <pt x="590" y="1550" on="0"/>
        <pt x="707" y="1548" on="0"/>
        <pt x="758" y="1546" on="1"/>
        <pt x="793" y="1530" on="1"/>
        <pt x="806" y="1493" on="0"/>
        <pt x="843" y="1360" on="0"/>
        <pt x="896" y="1150" on="0"/>
        <pt x="969" y="853" on="0"/>
        <pt x="1018" y="653" on="1"/>
        <pt x="1040" y="734" on="0"/>
        <pt x="1085" y="916" on="0"/>
        <pt x="1123" y="1084" on="0"/>
        <pt x="1153" y="1219" on="0"/>
        <pt x="1161" y="1254" on="1"/>
        <pt x="1166" y="1254" on="1"/>
        <pt x="1000" y="1282" on="1"/>
        <pt x="987" y="1312" on="0"/>
        <pt x="976" y="1372" on="0"/>
        <pt x="976" y="1402" on="1"/>
        <pt x="976" y="1425" on="0"/>
        <pt x="982" y="1470" on="0"/>
        <pt x="987" y="1493" on="1"/>
        <pt x="1089" y="1525" on="0"/>
        <pt x="1301" y="1550" on="0"/>
        <pt x="1420" y="1550" on="1"/>
        <pt x="1453" y="1550" on="1"/>
        <pt x="1491" y="1550" on="0"/>
        <pt x="1567" y="1548" on="0"/>
        <pt x="1604" y="1546" on="1"/>
        <pt x="1639" y="1530" on="1"/>
        <pt x="1661" y="1450" on="0"/>
        <pt x="1704" y="1264" on="0"/>
        <pt x="1745" y="1063" on="0"/>
        <pt x="1782" y="854" on="0"/>
        <pt x="1814" y="647" on="0"/>
        <pt x="1840" y="449" on="0"/>
        <pt x="1850" y="361" on="1"/>
        <pt x="1854" y="326" on="0"/>
        <pt x="1862" y="249" on="0"/>
        <pt x="1862" y="211" on="1"/>
        <pt x="1862" y="165" on="0"/>
        <pt x="1853" y="122" on="1"/>
        <pt x="1846" y="93" on="0"/>
        <pt x="1821" y="37" on="0"/>
        <pt x="1799" y="13" on="1"/>
        <pt x="1764" y="-1" on="0"/>
        <pt x="1682" y="-19" on="0"/>
        <pt x="1625" y="-20" on="1"/>
        <pt x="1602" y="-20" on="0"/>
        <pt x="1545" y="-15" on="0"/>
        <pt x="1491" y="-3" on="0"/>
        <pt x="1447" y="15" on="0"/>
        <pt x="1437" y="29" on="1"/>
        <pt x="1473" y="258" on="1"/>
        <pt x="1413" y="887" on="1"/>
        <pt x="1418" y="1222" on="1"/>
        <pt x="1387" y="1222" on="1"/>
        <pt x="1338" y="879" on="1"/>
        <pt x="1318" y="807" on="0"/>
        <pt x="1275" y="654" on="0"/>
        <pt x="1228" y="507" on="0"/>
        <pt x="1181" y="372" on="0"/>
        <pt x="1159" y="317" on="1"/>
        <pt x="1171" y="292" on="0"/>
        <pt x="1196" y="233" on="0"/>
        <pt x="1216" y="168" on="0"/>
        <pt x="1230" y="98" on="0"/>
        <pt x="1233" y="64" on="1"/>
        <pt x="1211" y="43" on="0"/>
        <pt x="1150" y="11" on="0"/>
        <pt x="1078" y="-10" on="0"/>
        <pt x="999" y="-20" on="0"/>
        <pt x="960" y="-20" on="1"/>
        <pt x="921" y="-20" on="0"/>
        <pt x="845" y="-8" on="0"/>
        <pt x="781" y="14" on="0"/>
        <pt x="729" y="46" on="0"/>
        <pt x="714" y="67" on="1"/>
        <pt x="717" y="128" on="0"/>
        <pt x="745" y="223" on="0"/>
        <pt x="764" y="262" on="1"/>
        <pt x="586" y="905" on="1"/>
        <pt x="512" y="1208" on="1"/>
        <pt x="478" y="1203" on="1"/>
        <pt x="527" y="864" on="1"/>
        <pt x="525" y="775" on="0"/>
        <pt x="518" y="589" on="0"/>
        <pt x="509" y="416" on="0"/>
        <pt x="499" y="267" on="0"/>
        <pt x="494" y="214" on="1"/>
        <pt x="495" y="214" on="1"/>
        <pt x="489" y="166" on="0"/>
        <pt x="446" y="87" on="0"/>
        <pt x="381" y="31" on="0"/>
        <pt x="298" y="0" on="0"/>
        <pt x="252" y="0" on="1"/>
        <pt x="205" y="0" on="0"/>
        <pt x="133" y="22" on="0"/>
        <pt x="77" y="59" on="0"/>
        <pt x="36" y="109" on="0"/>
      </contour>
    </TTGlyph>
    <TTGlyph name="N" xMin="-3" yMin="-20" xMax="1360" yMax="1551">
      <contour>
        <pt x="-3" y="92" on="1"/>
        <pt x="-3" y="126" on="0"/>
        <pt x="8" y="196" on="0"/>
        <pt x="29" y="257" on="0"/>
        <pt x="59" y="307" on="0"/>
        <pt x="79" y="321" on="1"/>
        <pt x="107" y="311" on="0"/>
        <pt x="151" y="296" on="0"/>
        <pt x="183" y="290" on="1"/>
        <pt x="183" y="1232" on="1"/>
        <pt x="26" y="1285" on="1"/>
        <pt x="15" y="1311" on="0"/>
        <pt x="3" y="1376" on="0"/>
        <pt x="3" y="1409" on="1"/>
        <pt x="3" y="1436" on="0"/>
        <pt x="12" y="1488" on="0"/>
        <pt x="21" y="1511" on="1"/>
        <pt x="59" y="1521" on="0"/>
        <pt x="150" y="1536" on="0"/>
        <pt x="248" y="1546" on="0"/>
        <pt x="346" y="1551" on="0"/>
        <pt x="391" y="1551" on="1"/>
        <pt x="453" y="1551" on="0"/>
        <pt x="582" y="1541" on="0"/>
        <pt x="640" y="1530" on="1"/>
        <pt x="662" y="1488" on="0"/>
        <pt x="731" y="1320" on="0"/>
        <pt x="827" y="1059" on="0"/>
        <pt x="951" y="698" on="0"/>
        <pt x="1026" y="462" on="1"/>
        <pt x="1043" y="464" on="1"/>
        <pt x="1034" y="537" on="0"/>
        <pt x="1015" y="723" on="0"/>
        <pt x="996" y="924" on="0"/>
        <pt x="978" y="1127" on="0"/>
        <pt x="965" y="1308" on="0"/>
        <pt x="957" y="1455" on="0"/>
        <pt x="957" y="1499" on="1"/>
        <pt x="1011" y="1523" on="0"/>
        <pt x="1137" y="1550" on="0"/>
        <pt x="1191" y="1550" on="1"/>
        <pt x="1234" y="1550" on="0"/>
        <pt x="1318" y="1533" on="0"/>
        <pt x="1360" y="1514" on="1"/>
        <pt x="1263" y="250" on="1"/>
        <pt x="1285" y="218" on="0"/>
        <pt x="1320" y="132" on="0"/>
        <pt x="1328" y="74" on="1"/>
        <pt x="1307" y="50" on="0"/>
        <pt x="1240" y="15" on="0"/>
        <pt x="1160" y="-8" on="0"/>
        <pt x="1070" y="-20" on="0"/>
        <pt x="1026" y="-20" on="1"/>
        <pt x="957" y="-20" on="0"/>
        <pt x="836" y="9" on="0"/>
        <pt x="801" y="41" on="1"/>
        <pt x="802" y="83" on="0"/>
        <pt x="809" y="150" on="0"/>
        <pt x="814" y="178" on="1"/>
        <pt x="766" y="274" on="0"/>
        <pt x="675" y="493" on="0"/>
        <pt x="585" y="730" on="0"/>
        <pt x="495" y="982" on="0"/>
        <pt x="449" y="1110" on="1"/>
        <pt x="443" y="1109" on="1"/>
        <pt x="449" y="1062" on="0"/>
        <pt x="464" y="919" on="0"/>
        <pt x="480" y="751" on="0"/>
        <pt x="494" y="571" on="0"/>
        <pt x="505" y="402" on="0"/>
        <pt x="512" y="256" on="0"/>
        <pt x="512" y="206" on="1"/>
        <pt x="512" y="96" on="0"/>
        <pt x="381" y="-20" on="0"/>
        <pt x="238" y="-20" on="1"/>
        <pt x="204" y="-20" on="0"/>
        <pt x="129" y="1" on="0"/>
        <pt x="62" y="33" on="0"/>
        <pt x="9" y="73" on="0"/>
      </contour>
    </TTGlyph>
    <TTGlyph name="Nacute" xMin="-3" yMin="-20" xMax="1360" yMax="2020">
      <component glyphName="N" x="0" y="0" flags="0x204"/>
      <component glyphName="acute.cap" x="555" y="0" flags="0x4"/>
    </TTGlyph>
    <TTGlyph name="Ntilde" xMin="-3" yMin="-20" xMax="1360" yMax="2019">
      <component glyphName="N" x="0" y="0" flags="0x204"/>
      <component glyphName="tilde" x="334" y="362" flags="0x4"/>
    </TTGlyph>
    <TTGlyph name="O" xMin="67" yMin="-20" xMax="1320" yMax="1550">
      <contour>
        <pt x="691" y="-20" on="1"/>
        <pt x="510" y="-20" on="0"/>
        <pt x="270" y="100" on="0"/>
        <pt x="126" y="310" on="0"/>
        <pt x="67" y="593" on="0"/>
        <pt x="67" y="756" on="1"/>
        <pt x="67" y="865" on="0"/>
        <pt x="93" y="1068" on="0"/>
        <pt x="151" y="1245" on="0"/>
        <pt x="246" y="1390" on="0"/>
        <pt x="384" y="1493" on="0"/>
        <pt x="570" y="1550" on="0"/>
        <pt x="691" y="1550" on="1"/>
        <pt x="821" y="1550" on="0"/>
        <pt x="1015" y="1493" on="0"/>
        <pt x="1155" y="1390" on="0"/>
        <pt x="1246" y="1245" on="0"/>
        <pt x="1299" y="1068" on="0"/>
        <pt x="1320" y="865" on="0"/>
        <pt x="1320" y="756" on="1"/>
        <pt x="1320" y="648" on="0"/>
        <pt x="1293" y="449" on="0"/>
        <pt x="1233" y="277" on="0"/>
        <pt x="1137" y="136" on="0"/>
        <pt x="997" y="35" on="0"/>
        <pt x="811" y="-20" on="0"/>
      </contour>
      <contour>
        <pt x="548" y="330" on="1"/>
        <pt x="555" y="322" on="0"/>
        <pt x="596" y="310" on="0"/>
        <pt x="651" y="302" on="0"/>
        <pt x="712" y="299" on="0"/>
        <pt x="741" y="299" on="1"/>
        <pt x="776" y="299" on="0"/>
        <pt x="829" y="303" on="0"/>
        <pt x="835" y="308" on="1"/>
        <pt x="848" y="331" on="0"/>
        <pt x="867" y="413" on="0"/>
        <pt x="880" y="519" on="0"/>
        <pt x="886" y="643" on="0"/>
        <pt x="886" y="707" on="1"/>
        <pt x="886" y="775" on="0"/>
        <pt x="879" y="910" on="0"/>
        <pt x="866" y="1027" on="0"/>
        <pt x="847" y="1118" on="0"/>
        <pt x="835" y="1144" on="1"/>
        <pt x="822" y="1154" on="0"/>
        <pt x="782" y="1170" on="0"/>
        <pt x="734" y="1180" on="0"/>
        <pt x="680" y="1185" on="0"/>
        <pt x="653" y="1185" on="1"/>
        <pt x="619" y="1185" on="0"/>
        <pt x="564" y="1178" on="0"/>
        <pt x="552" y="1171" on="1"/>
        <pt x="537" y="1145" on="0"/>
        <pt x="515" y="1068" on="0"/>
        <pt x="502" y="974" on="0"/>
        <pt x="496" y="867" on="0"/>
        <pt x="496" y="811" on="1"/>
        <pt x="496" y="741" on="0"/>
        <pt x="504" y="599" on="0"/>
        <pt x="519" y="471" on="0"/>
        <pt x="537" y="365" on="0"/>
      </contour>
    </TTGlyph>
    <TTGlyph name="OE" xMin="77" yMin="-20" xMax="1983" yMax="1550">
      <contour>
        <pt x="701" y="-20" on="1"/>
        <pt x="520" y="-20" on="0"/>
        <pt x="280" y="100" on="0"/>
        <pt x="136" y="310" on="0"/>
        <pt x="77" y="593" on="0"/>
        <pt x="77" y="756" on="1"/>
        <pt x="77" y="865" on="0"/>
        <pt x="102" y="1068" on="0"/>
        <pt x="161" y="1245" on="0"/>
        <pt x="256" y="1390" on="0"/>
        <pt x="394" y="1493" on="0"/>
        <pt x="580" y="1550" on="0"/>
        <pt x="701" y="1550" on="1"/>
        <pt x="805" y="1550" on="0"/>
        <pt x="968" y="1513" on="0"/>
        <pt x="1033" y="1479" on="1"/>
        <pt x="1093" y="1495" on="0"/>
        <pt x="1219" y="1521" on="0"/>
        <pt x="1345" y="1540" on="0"/>
        <pt x="1466" y="1550" on="0"/>
        <pt x="1520" y="1550" on="1"/>
        <pt x="1549" y="1550" on="0"/>
        <pt x="1626" y="1549" on="0"/>
        <pt x="1706" y="1545" on="0"/>
        <pt x="1782" y="1539" on="0"/>
        <pt x="1810" y="1533" on="1"/>
        <pt x="1811" y="1534" on="1"/>
        <pt x="1859" y="1505" on="0"/>
        <pt x="1943" y="1438" on="0"/>
        <pt x="1983" y="1384" on="1"/>
        <pt x="1983" y="1331" on="0"/>
        <pt x="1967" y="1217" on="0"/>
        <pt x="1938" y="1113" on="0"/>
        <pt x="1901" y="1029" on="0"/>
        <pt x="1880" y="1005" on="1"/>
        <pt x="1857" y="994" on="0"/>
        <pt x="1804" y="983" on="0"/>
        <pt x="1762" y="983" on="1"/>
        <pt x="1696" y="983" on="0"/>
        <pt x="1652" y="1009" on="1"/>
        <pt x="1624" y="1206" on="1"/>
        <pt x="1592" y="1211" on="0"/>
        <pt x="1497" y="1217" on="0"/>
        <pt x="1448" y="1217" on="1"/>
        <pt x="1437" y="1217" on="0"/>
        <pt x="1349" y="1215" on="0"/>
        <pt x="1262" y="1213" on="1"/>
        <pt x="1294" y="1133" on="0"/>
        <pt x="1323" y="949" on="0"/>
        <pt x="1328" y="846" on="1"/>
        <pt x="1440" y="865" on="0"/>
        <pt x="1638" y="894" on="0"/>
        <pt x="1737" y="905" on="1"/>
        <pt x="1759" y="872" on="0"/>
        <pt x="1777" y="795" on="0"/>
        <pt x="1777" y="756" on="1"/>
        <pt x="1777" y="725" on="0"/>
        <pt x="1768" y="666" on="0"/>
        <pt x="1753" y="616" on="0"/>
        <pt x="1735" y="578" on="0"/>
        <pt x="1726" y="569" on="1"/>
        <pt x="1703" y="565" on="0"/>
        <pt x="1653" y="562" on="0"/>
        <pt x="1626" y="562" on="1"/>
        <pt x="1554" y="562" on="0"/>
        <pt x="1395" y="586" on="0"/>
        <pt x="1323" y="611" on="1"/>
        <pt x="1317" y="542" on="0"/>
        <pt x="1291" y="414" on="0"/>
        <pt x="1270" y="355" on="1"/>
        <pt x="1920" y="393" on="1"/>
        <pt x="1935" y="379" on="0"/>
        <pt x="1956" y="296" on="0"/>
        <pt x="1956" y="245" on="1"/>
        <pt x="1956" y="200" on="0"/>
        <pt x="1936" y="112" on="0"/>
        <pt x="1913" y="80" on="1"/>
        <pt x="1875" y="28" on="0"/>
        <pt x="1780" y="-20" on="0"/>
        <pt x="1727" y="-20" on="1"/>
        <pt x="1698" y="-20" on="0"/>
        <pt x="1605" y="-7" on="0"/>
        <pt x="1494" y="15" on="0"/>
        <pt x="1374" y="45" on="0"/>
        <pt x="1262" y="79" on="0"/>
        <pt x="1166" y="116" on="0"/>
        <pt x="1136" y="135" on="1"/>
        <pt x="1062" y="61" on="0"/>
        <pt x="849" y="-20" on="0"/>
      </contour>
      <contour>
        <pt x="558" y="330" on="1"/>
        <pt x="565" y="322" on="0"/>
        <pt x="606" y="310" on="0"/>
        <pt x="661" y="302" on="0"/>
        <pt x="722" y="299" on="0"/>
        <pt x="751" y="299" on="1"/>
        <pt x="786" y="299" on="0"/>
        <pt x="839" y="303" on="0"/>
        <pt x="845" y="308" on="1"/>
        <pt x="858" y="331" on="0"/>
        <pt x="877" y="413" on="0"/>
        <pt x="890" y="519" on="0"/>
        <pt x="896" y="643" on="0"/>
        <pt x="896" y="707" on="1"/>
        <pt x="896" y="775" on="0"/>
        <pt x="889" y="910" on="0"/>
        <pt x="876" y="1027" on="0"/>
        <pt x="857" y="1118" on="0"/>
        <pt x="845" y="1144" on="1"/>
        <pt x="832" y="1154" on="0"/>
        <pt x="792" y="1170" on="0"/>
        <pt x="744" y="1180" on="0"/>
        <pt x="690" y="1185" on="0"/>
        <pt x="663" y="1185" on="1"/>
        <pt x="629" y="1185" on="0"/>
        <pt x="574" y="1178" on="0"/>
        <pt x="562" y="1171" on="1"/>
        <pt x="547" y="1145" on="0"/>
        <pt x="525" y="1068" on="0"/>
        <pt x="512" y="974" on="0"/>
        <pt x="506" y="867" on="0"/>
        <pt x="506" y="811" on="1"/>
        <pt x="506" y="741" on="0"/>
        <pt x="514" y="599" on="0"/>
        <pt x="529" y="471" on="0"/>
        <pt x="547" y="365" on="0"/>
      </contour>
    </TTGlyph>
    <TTGlyph name="Oacute" xMin="67" yMin="-20" xMax="1320" yMax="2020">
      <component glyphName="O" x="0" y="0" flags="0x204"/>
      <component glyphName="acute.cap" x="440" y="0" flags="0x4"/>
    </TTGlyph>
    <TTGlyph name="Ocircumflex" xMin="67" yMin="-20" xMax="1320" yMax="2015">
      <component glyphName="O" x="0" y="0" flags="0x204"/>
      <component glyphName="circumflex.cap" x="275" y="0" flags="0x4"/>
    </TTGlyph>
    <TTGlyph name="Odieresis" xMin="67" yMin="-20" xMax="1320" yMax="1981">
      <component glyphName="O" x="0" y="0" flags="0x204"/>
      <component glyphName="dieresis.cap" x="166" y="0" flags="0x4"/>
    </TTGlyph>
    <TTGlyph name="Ograve" xMin="67" yMin="-20" xMax="1320" yMax="2020">
      <component glyphName="O" x="0" y="0" flags="0x204"/>
      <component glyphName="grave.cap" x="300" y="0" flags="0x4"/>
    </TTGlyph>
    <TTGlyph name="Oslash" xMin="67" yMin="-280" xMax="1380" yMax="1816">
      <contour>
        <pt x="259" y="132" on="1"/>
        <pt x="206" y="184" on="0"/>
        <pt x="132" y="320" on="0"/>
        <pt x="87" y="479" on="0"/>
        <pt x="67" y="659" on="0"/>
        <pt x="67" y="756" on="1"/>
        <pt x="67" y="865" on="0"/>
        <pt x="93" y="1068" on="0"/>
        <pt x="151" y="1245" on="0"/>
        <pt x="246" y="1390" on="0"/>
        <pt x="384" y="1493" on="0"/>
        <pt x="570" y="1550" on="0"/>
        <pt x="691" y="1550" on="1"/>
        <pt x="832" y="1550" on="0"/>
        <pt x="937" y="1515" on="1"/>
        <pt x="1067" y="1813" on="1"/>
        <pt x="1101" y="1816" on="0"/>
        <pt x="1191" y="1792" on="0"/>
        <pt x="1281" y="1744" on="0"/>
        <pt x="1359" y="1674" on="0"/>
        <pt x="1380" y="1631" on="1"/>
        <pt x="1365" y="1604" on="0"/>
        <pt x="1322" y="1538" on="0"/>
        <pt x="1270" y="1464" on="0"/>
        <pt x="1210" y="1387" on="0"/>
        <pt x="1178" y="1348" on="1"/>
        <pt x="1219" y="1294" on="0"/>
        <pt x="1274" y="1161" on="0"/>
        <pt x="1307" y="1010" on="0"/>
        <pt x="1320" y="844" on="0"/>
        <pt x="1320" y="756" on="1"/>
        <pt x="1320" y="648" on="0"/>
        <pt x="1293" y="449" on="0"/>
        <pt x="1233" y="277" on="0"/>
        <pt x="1137" y="136" on="0"/>
        <pt x="997" y="35" on="0"/>
        <pt x="811" y="-20" on="0"/>
        <pt x="691" y="-20" on="1"/>
        <pt x="645" y="-20" on="0"/>
        <pt x="562" y="-12" on="0"/>
        <pt x="524" y="-4" on="1"/>
        <pt x="374" y="-262" on="1"/>
        <pt x="347" y="-280" on="0"/>
        <pt x="308" y="-280" on="1"/>
        <pt x="285" y="-280" on="0"/>
        <pt x="236" y="-266" on="0"/>
        <pt x="194" y="-240" on="0"/>
        <pt x="160" y="-201" on="0"/>
        <pt x="152" y="-176" on="1"/>
      </contour>
      <contour>
        <pt x="548" y="330" on="1"/>
        <pt x="555" y="322" on="0"/>
        <pt x="596" y="310" on="0"/>
        <pt x="651" y="302" on="0"/>
        <pt x="712" y="299" on="0"/>
        <pt x="741" y="299" on="1"/>
        <pt x="776" y="299" on="0"/>
        <pt x="829" y="303" on="0"/>
        <pt x="835" y="308" on="1"/>
        <pt x="848" y="331" on="0"/>
        <pt x="867" y="413" on="0"/>
        <pt x="880" y="519" on="0"/>
        <pt x="886" y="643" on="0"/>
        <pt x="886" y="707" on="1"/>
        <pt x="886" y="775" on="0"/>
        <pt x="879" y="910" on="0"/>
        <pt x="866" y="1027" on="0"/>
        <pt x="847" y="1118" on="0"/>
        <pt x="835" y="1144" on="1"/>
        <pt x="822" y="1154" on="0"/>
        <pt x="782" y="1170" on="0"/>
        <pt x="734" y="1180" on="0"/>
        <pt x="680" y="1185" on="0"/>
        <pt x="653" y="1185" on="1"/>
        <pt x="619" y="1185" on="0"/>
        <pt x="564" y="1178" on="0"/>
        <pt x="552" y="1171" on="1"/>
        <pt x="537" y="1145" on="0"/>
        <pt x="515" y="1068" on="0"/>
        <pt x="502" y="974" on="0"/>
        <pt x="496" y="867" on="0"/>
        <pt x="496" y="811" on="1"/>
        <pt x="496" y="741" on="0"/>
        <pt x="504" y="599" on="0"/>
        <pt x="519" y="471" on="0"/>
        <pt x="537" y="365" on="0"/>
      </contour>
    </TTGlyph>
    <TTGlyph name="Otilde" xMin="67" yMin="-20" xMax="1320" yMax="2019">
      <component glyphName="O" x="0" y="0" flags="0x204"/>
      <component glyphName="tilde" x="224" y="362" flags="0x4"/>
    </TTGlyph>
    <TTGlyph name="P" xMin="13" yMin="-19" xMax="1295" yMax="1550">
      <contour>
        <pt x="193" y="211" on="1"/>
        <pt x="184" y="322" on="0"/>
        <pt x="176" y="593" on="0"/>
        <pt x="176" y="739" on="1"/>
        <pt x="175" y="740" on="1"/>
        <pt x="175" y="855" on="0"/>
        <pt x="178" y="1095" on="0"/>
        <pt x="184" y="1204" on="1"/>
        <pt x="183" y="1204" on="1"/>
        <pt x="40" y="1225" on="1"/>
        <pt x="26" y="1263" on="0"/>
        <pt x="13" y="1353" on="0"/>
        <pt x="13" y="1394" on="1"/>
        <pt x="13" y="1411" on="0"/>
        <pt x="16" y="1447" on="0"/>
        <pt x="18" y="1464" on="1"/>
        <pt x="63" y="1480" on="0"/>
        <pt x="179" y="1505" on="0"/>
        <pt x="309" y="1524" on="0"/>
        <pt x="448" y="1538" on="0"/>
        <pt x="586" y="1546" on="0"/>
        <pt x="717" y="1550" on="0"/>
        <pt x="773" y="1550" on="1"/>
        <pt x="833" y="1550" on="0"/>
        <pt x="958" y="1543" on="0"/>
        <pt x="1074" y="1517" on="0"/>
        <pt x="1176" y="1468" on="0"/>
        <pt x="1251" y="1382" on="0"/>
        <pt x="1295" y="1255" on="0"/>
        <pt x="1295" y="1165" on="1"/>
        <pt x="1295" y="1121" on="0"/>
        <pt x="1275" y="1018" on="0"/>
        <pt x="1241" y="910" on="0"/>
        <pt x="1195" y="801" on="0"/>
        <pt x="1143" y="701" on="0"/>
        <pt x="1087" y="614" on="0"/>
        <pt x="1060" y="582" on="1"/>
        <pt x="1024" y="538" on="0"/>
        <pt x="934" y="477" on="0"/>
        <pt x="880" y="468" on="1"/>
        <pt x="823" y="459" on="0"/>
        <pt x="717" y="449" on="0"/>
        <pt x="626" y="443" on="0"/>
        <pt x="555" y="442" on="0"/>
        <pt x="533" y="442" on="1"/>
        <pt x="531" y="403" on="0"/>
        <pt x="529" y="329" on="0"/>
        <pt x="530" y="294" on="1"/>
        <pt x="679" y="304" on="1"/>
        <pt x="703" y="265" on="0"/>
        <pt x="728" y="175" on="0"/>
        <pt x="730" y="126" on="1"/>
        <pt x="693" y="85" on="0"/>
        <pt x="644" y="53" on="1"/>
        <pt x="602" y="26" on="0"/>
        <pt x="478" y="-19" on="0"/>
        <pt x="398" y="-19" on="1"/>
        <pt x="356" y="-19" on="0"/>
        <pt x="281" y="2" on="0"/>
        <pt x="226" y="54" on="0"/>
        <pt x="193" y="143" on="0"/>
      </contour>
      <contour>
        <pt x="808" y="723" on="1"/>
        <pt x="821" y="777" on="0"/>
        <pt x="843" y="896" on="0"/>
        <pt x="859" y="1014" on="0"/>
        <pt x="870" y="1125" on="0"/>
        <pt x="871" y="1172" on="1"/>
        <pt x="866" y="1180" on="0"/>
        <pt x="779" y="1195" on="0"/>
        <pt x="701" y="1195" on="1"/>
        <pt x="672" y="1195" on="0"/>
        <pt x="603" y="1193" on="0"/>
        <pt x="574" y="1191" on="1"/>
        <pt x="572" y="1139" on="0"/>
        <pt x="568" y="1015" on="0"/>
        <pt x="562" y="886" on="0"/>
        <pt x="554" y="760" on="0"/>
        <pt x="550" y="706" on="1"/>
      </contour>
    </TTGlyph>
    <TTGlyph name="Q" xMin="67" yMin="-445" xMax="1423" yMax="1550">
      <contour>
        <pt x="691" y="-20" on="1"/>
        <pt x="510" y="-20" on="0"/>
        <pt x="270" y="100" on="0"/>
        <pt x="126" y="310" on="0"/>
        <pt x="67" y="593" on="0"/>
        <pt x="67" y="756" on="1"/>
        <pt x="67" y="865" on="0"/>
        <pt x="93" y="1068" on="0"/>
        <pt x="151" y="1245" on="0"/>
        <pt x="246" y="1390" on="0"/>
        <pt x="384" y="1493" on="0"/>
        <pt x="570" y="1550" on="0"/>
        <pt x="691" y="1550" on="1"/>
        <pt x="821" y="1550" on="0"/>
        <pt x="1015" y="1493" on="0"/>
        <pt x="1155" y="1390" on="0"/>
        <pt x="1246" y="1245" on="0"/>
        <pt x="1299" y="1068" on="0"/>
        <pt x="1320" y="865" on="0"/>
        <pt x="1320" y="756" on="1"/>
        <pt x="1320" y="645" on="0"/>
        <pt x="1292" y="441" on="0"/>
        <pt x="1227" y="265" on="0"/>
        <pt x="1124" y="122" on="0"/>
        <pt x="1049" y="73" on="1"/>
        <pt x="1067" y="32" on="0"/>
        <pt x="1123" y="-69" on="0"/>
        <pt x="1170" y="-134" on="1"/>
        <pt x="1182" y="-132" on="1"/>
        <pt x="1184" y="-134" on="1"/>
        <pt x="1332" y="-72" on="1"/>
        <pt x="1373" y="-107" on="0"/>
        <pt x="1417" y="-196" on="0"/>
        <pt x="1423" y="-250" on="1"/>
        <pt x="1384" y="-305" on="0"/>
        <pt x="1332" y="-348" on="1"/>
        <pt x="1310" y="-366" on="0"/>
        <pt x="1256" y="-401" on="0"/>
        <pt x="1193" y="-428" on="0"/>
        <pt x="1121" y="-445" on="0"/>
        <pt x="1081" y="-445" on="1"/>
        <pt x="1038" y="-445" on="0"/>
        <pt x="1001" y="-435" on="1"/>
        <pt x="992" y="-433" on="0"/>
        <pt x="974" y="-428" on="0"/>
        <pt x="965" y="-426" on="1"/>
        <pt x="913" y="-410" on="0"/>
        <pt x="842" y="-317" on="0"/>
        <pt x="796" y="-197" on="0"/>
        <pt x="770" y="-69" on="0"/>
        <pt x="764" y="-17" on="1"/>
        <pt x="728" y="-20" on="0"/>
      </contour>
      <contour>
        <pt x="548" y="330" on="1"/>
        <pt x="555" y="322" on="0"/>
        <pt x="596" y="310" on="0"/>
        <pt x="651" y="302" on="0"/>
        <pt x="712" y="299" on="0"/>
        <pt x="741" y="299" on="1"/>
        <pt x="776" y="299" on="0"/>
        <pt x="829" y="303" on="0"/>
        <pt x="835" y="308" on="1"/>
        <pt x="848" y="331" on="0"/>
        <pt x="867" y="413" on="0"/>
        <pt x="880" y="519" on="0"/>
        <pt x="886" y="643" on="0"/>
        <pt x="886" y="707" on="1"/>
        <pt x="886" y="775" on="0"/>
        <pt x="879" y="910" on="0"/>
        <pt x="866" y="1027" on="0"/>
        <pt x="847" y="1118" on="0"/>
        <pt x="835" y="1144" on="1"/>
        <pt x="822" y="1154" on="0"/>
        <pt x="782" y="1170" on="0"/>
        <pt x="734" y="1180" on="0"/>
        <pt x="680" y="1185" on="0"/>
        <pt x="653" y="1185" on="1"/>
        <pt x="619" y="1185" on="0"/>
        <pt x="564" y="1178" on="0"/>
        <pt x="552" y="1171" on="1"/>
        <pt x="537" y="1145" on="0"/>
        <pt x="515" y="1068" on="0"/>
        <pt x="502" y="974" on="0"/>
        <pt x="496" y="867" on="0"/>
        <pt x="496" y="811" on="1"/>
        <pt x="496" y="741" on="0"/>
        <pt x="504" y="599" on="0"/>
        <pt x="519" y="471" on="0"/>
        <pt x="537" y="365" on="0"/>
      </contour>
    </TTGlyph>
    <TTGlyph name="R" xMin="12" yMin="-20" xMax="1432" yMax="1550">
      <contour>
        <pt x="209" y="1" on="1"/>
        <pt x="197" y="48" on="0"/>
        <pt x="181" y="218" on="0"/>
        <pt x="171" y="432" on="0"/>
        <pt x="166" y="674" on="0"/>
        <pt x="166" y="794" on="1"/>
        <pt x="166" y="909" on="0"/>
        <pt x="170" y="1119" on="0"/>
        <pt x="174" y="1204" on="1"/>
        <pt x="39" y="1225" on="1"/>
        <pt x="25" y="1263" on="0"/>
        <pt x="12" y="1353" on="0"/>
        <pt x="12" y="1394" on="1"/>
        <pt x="12" y="1411" on="0"/>
        <pt x="15" y="1447" on="0"/>
        <pt x="17" y="1464" on="1"/>
        <pt x="89" y="1489" on="0"/>
        <pt x="284" y="1522" on="0"/>
        <pt x="492" y="1542" on="0"/>
        <pt x="699" y="1550" on="0"/>
        <pt x="783" y="1550" on="1"/>
        <pt x="843" y="1550" on="0"/>
        <pt x="968" y="1543" on="0"/>
        <pt x="1084" y="1517" on="0"/>
        <pt x="1186" y="1468" on="0"/>
        <pt x="1261" y="1382" on="0"/>
        <pt x="1305" y="1255" on="0"/>
        <pt x="1305" y="1165" on="1"/>
        <pt x="1305" y="1094" on="0"/>
        <pt x="1260" y="928" on="0"/>
        <pt x="1222" y="846" on="1"/>
        <pt x="1187" y="770" on="0"/>
        <pt x="1096" y="634" on="0"/>
        <pt x="1046" y="584" on="1"/>
        <pt x="1055" y="560" on="0"/>
        <pt x="1079" y="501" on="0"/>
        <pt x="1114" y="430" on="0"/>
        <pt x="1164" y="345" on="0"/>
        <pt x="1201" y="294" on="1"/>
        <pt x="1341" y="353" on="1"/>
        <pt x="1382" y="318" on="0"/>
        <pt x="1426" y="229" on="0"/>
        <pt x="1432" y="175" on="1"/>
        <pt x="1393" y="120" on="0"/>
        <pt x="1341" y="77" on="1"/>
        <pt x="1319" y="59" on="0"/>
        <pt x="1265" y="24" on="0"/>
        <pt x="1202" y="-3" on="0"/>
        <pt x="1130" y="-20" on="0"/>
        <pt x="1090" y="-20" on="1"/>
        <pt x="1057" y="-20" on="0"/>
        <pt x="992" y="-10" on="0"/>
        <pt x="933" y="17" on="0"/>
        <pt x="881" y="62" on="0"/>
        <pt x="861" y="97" on="1"/>
        <pt x="840" y="133" on="0"/>
        <pt x="810" y="218" on="0"/>
        <pt x="788" y="305" on="0"/>
        <pt x="775" y="389" on="0"/>
        <pt x="771" y="423" on="1"/>
        <pt x="543" y="433" on="1"/>
        <pt x="550" y="377" on="0"/>
        <pt x="568" y="265" on="0"/>
        <pt x="585" y="163" on="0"/>
        <pt x="600" y="73" on="0"/>
        <pt x="605" y="38" on="1"/>
        <pt x="557" y="9" on="0"/>
        <pt x="427" y="-20" on="0"/>
        <pt x="360" y="-20" on="1"/>
        <pt x="319" y="-20" on="0"/>
        <pt x="243" y="-9" on="0"/>
      </contour>
      <contour>
        <pt x="788" y="674" on="1"/>
        <pt x="827" y="785" on="0"/>
        <pt x="867" y="1037" on="0"/>
        <pt x="881" y="1172" on="1"/>
        <pt x="866" y="1178" on="0"/>
        <pt x="826" y="1186" on="0"/>
        <pt x="781" y="1192" on="0"/>
        <pt x="735" y="1195" on="0"/>
        <pt x="714" y="1195" on="1"/>
        <pt x="675" y="1195" on="0"/>
        <pt x="594" y="1193" on="0"/>
        <pt x="564" y="1190" on="1"/>
        <pt x="562" y="1138" on="0"/>
        <pt x="558" y="999" on="0"/>
        <pt x="552" y="852" on="0"/>
        <pt x="544" y="711" on="0"/>
        <pt x="540" y="657" on="1"/>
      </contour>
    </TTGlyph>
    <TTGlyph name="Racute" xMin="12" yMin="-20" xMax="1432" yMax="2020">
      <component glyphName="R" x="0" y="0" flags="0x204"/>
      <component glyphName="acute.cap" x="452" y="0" flags="0x4"/>
    </TTGlyph>
    <TTGlyph name="Rcaron" xMin="12" yMin="-20" xMax="1432" yMax="2020">
      <component glyphName="R" x="0" y="0" flags="0x204"/>
      <component glyphName="caron.cap" x="287" y="0" flags="0x4"/>
    </TTGlyph>
    <TTGlyph name="Rcommaaccent" xMin="12" yMin="-540" xMax="1432" yMax="1550">
      <component glyphName="R" x="0" y="0" flags="0x204"/>
      <component glyphName="commaaccent" x="456" y="0" flags="0x4"/>
    </TTGlyph>
    <TTGlyph name="S" xMin="40" yMin="-19" xMax="1065" yMax="1550">
      <contour>
        <pt x="60" y="173" on="1"/>
        <pt x="58" y="184" on="0"/>
        <pt x="56" y="207" on="0"/>
        <pt x="56" y="219" on="1"/>
        <pt x="56" y="267" on="0"/>
        <pt x="92" y="372" on="0"/>
        <pt x="134" y="420" on="1"/>
        <pt x="190" y="395" on="0"/>
        <pt x="306" y="348" on="0"/>
        <pt x="425" y="311" on="0"/>
        <pt x="548" y="288" on="0"/>
        <pt x="612" y="288" on="1"/>
        <pt x="632" y="288" on="0"/>
        <pt x="677" y="296" on="0"/>
        <pt x="691" y="303" on="1"/>
        <pt x="696" y="314" on="0"/>
        <pt x="701" y="346" on="0"/>
        <pt x="702" y="356" on="1"/>
        <pt x="703" y="390" on="0"/>
        <pt x="659" y="443" on="0"/>
        <pt x="594" y="485" on="0"/>
        <pt x="522" y="517" on="0"/>
        <pt x="496" y="531" on="1"/>
        <pt x="411" y="574" on="0"/>
        <pt x="248" y="668" on="0"/>
        <pt x="119" y="792" on="0"/>
        <pt x="40" y="960" on="0"/>
        <pt x="40" y="1078" on="1"/>
        <pt x="40" y="1177" on="0"/>
        <pt x="93" y="1349" on="0"/>
        <pt x="211" y="1477" on="0"/>
        <pt x="402" y="1550" on="0"/>
        <pt x="540" y="1550" on="1"/>
        <pt x="560" y="1550" on="0"/>
        <pt x="637" y="1549" on="0"/>
        <pt x="734" y="1545" on="0"/>
        <pt x="842" y="1533" on="0"/>
        <pt x="893" y="1523" on="1"/>
        <pt x="941" y="1494" on="0"/>
        <pt x="1025" y="1427" on="0"/>
        <pt x="1065" y="1373" on="1"/>
        <pt x="1065" y="1320" on="0"/>
        <pt x="1049" y="1200" on="0"/>
        <pt x="1022" y="1089" on="0"/>
        <pt x="985" y="998" on="0"/>
        <pt x="964" y="974" on="1"/>
        <pt x="941" y="963" on="0"/>
        <pt x="886" y="952" on="0"/>
        <pt x="844" y="952" on="1"/>
        <pt x="799" y="952" on="0"/>
        <pt x="746" y="965" on="0"/>
        <pt x="724" y="978" on="1"/>
        <pt x="693" y="1186" on="1"/>
        <pt x="660" y="1195" on="0"/>
        <pt x="591" y="1207" on="0"/>
        <pt x="532" y="1214" on="0"/>
        <pt x="489" y="1216" on="0"/>
        <pt x="482" y="1216" on="1"/>
        <pt x="442" y="1197" on="0"/>
        <pt x="418" y="1132" on="0"/>
        <pt x="418" y="1096" on="1"/>
        <pt x="418" y="1053" on="0"/>
        <pt x="462" y="993" on="0"/>
        <pt x="528" y="948" on="0"/>
        <pt x="604" y="913" on="0"/>
        <pt x="636" y="896" on="1"/>
        <pt x="717" y="853" on="0"/>
        <pt x="868" y="766" on="0"/>
        <pt x="984" y="656" on="0"/>
        <pt x="1054" y="514" on="0"/>
        <pt x="1054" y="417" on="1"/>
        <pt x="1054" y="343" on="0"/>
        <pt x="1013" y="219" on="0"/>
        <pt x="941" y="121" on="0"/>
        <pt x="845" y="49" on="0"/>
        <pt x="790" y="28" on="1"/>
        <pt x="725" y="2" on="0"/>
        <pt x="574" y="-19" on="0"/>
        <pt x="475" y="-19" on="1"/>
        <pt x="432" y="-19" on="0"/>
        <pt x="318" y="-3" on="0"/>
        <pt x="202" y="40" on="0"/>
        <pt x="96" y="115" on="0"/>
      </contour>
    </TTGlyph>
    <TTGlyph name="Scaron" xMin="40" yMin="-19" xMax="1065" yMax="2020">
      <component glyphName="S" x="0" y="0" flags="0x204"/>
      <component glyphName="caron.cap" x="131" y="0" flags="0x4"/>
    </TTGlyph>
    <TTGlyph name="Scedilla" xMin="40" yMin="-432" xMax="1065" yMax="1550">
      <contour>
        <pt x="60" y="173" on="1"/>
        <pt x="58" y="184" on="0"/>
        <pt x="56" y="207" on="0"/>
        <pt x="56" y="219" on="1"/>
        <pt x="56" y="267" on="0"/>
        <pt x="92" y="372" on="0"/>
        <pt x="134" y="420" on="1"/>
        <pt x="190" y="395" on="0"/>
        <pt x="306" y="348" on="0"/>
        <pt x="425" y="311" on="0"/>
        <pt x="548" y="288" on="0"/>
        <pt x="612" y="288" on="1"/>
        <pt x="632" y="288" on="0"/>
        <pt x="677" y="296" on="0"/>
        <pt x="691" y="303" on="1"/>
        <pt x="696" y="314" on="0"/>
        <pt x="701" y="346" on="0"/>
        <pt x="702" y="356" on="1"/>
        <pt x="703" y="390" on="0"/>
        <pt x="659" y="443" on="0"/>
        <pt x="594" y="485" on="0"/>
        <pt x="522" y="517" on="0"/>
        <pt x="496" y="531" on="1"/>
        <pt x="411" y="574" on="0"/>
        <pt x="248" y="668" on="0"/>
        <pt x="119" y="792" on="0"/>
        <pt x="40" y="960" on="0"/>
        <pt x="40" y="1078" on="1"/>
        <pt x="40" y="1177" on="0"/>
        <pt x="93" y="1349" on="0"/>
        <pt x="211" y="1477" on="0"/>
        <pt x="402" y="1550" on="0"/>
        <pt x="540" y="1550" on="1"/>
        <pt x="560" y="1550" on="0"/>
        <pt x="637" y="1549" on="0"/>
        <pt x="734" y="1545" on="0"/>
        <pt x="842" y="1533" on="0"/>
        <pt x="893" y="1523" on="1"/>
        <pt x="941" y="1494" on="0"/>
        <pt x="1025" y="1427" on="0"/>
        <pt x="1065" y="1373" on="1"/>
        <pt x="1065" y="1320" on="0"/>
        <pt x="1049" y="1200" on="0"/>
        <pt x="1022" y="1089" on="0"/>
        <pt x="985" y="998" on="0"/>
        <pt x="964" y="974" on="1"/>
        <pt x="941" y="963" on="0"/>
        <pt x="886" y="952" on="0"/>
        <pt x="844" y="952" on="1"/>
        <pt x="799" y="952" on="0"/>
        <pt x="746" y="965" on="0"/>
        <pt x="724" y="978" on="1"/>
        <pt x="693" y="1186" on="1"/>
        <pt x="660" y="1195" on="0"/>
        <pt x="591" y="1207" on="0"/>
        <pt x="532" y="1214" on="0"/>
        <pt x="489" y="1216" on="0"/>
        <pt x="482" y="1216" on="1"/>
        <pt x="442" y="1197" on="0"/>
        <pt x="418" y="1132" on="0"/>
        <pt x="418" y="1096" on="1"/>
        <pt x="418" y="1053" on="0"/>
        <pt x="462" y="993" on="0"/>
        <pt x="528" y="948" on="0"/>
        <pt x="604" y="913" on="0"/>
        <pt x="636" y="896" on="1"/>
        <pt x="717" y="853" on="0"/>
        <pt x="868" y="766" on="0"/>
        <pt x="984" y="656" on="0"/>
        <pt x="1054" y="514" on="0"/>
        <pt x="1054" y="417" on="1"/>
        <pt x="1054" y="343" on="0"/>
        <pt x="1013" y="219" on="0"/>
        <pt x="941" y="121" on="0"/>
        <pt x="845" y="49" on="0"/>
        <pt x="790" y="28" on="1"/>
        <pt x="744" y="10" on="0"/>
        <pt x="642" y="-10" on="0"/>
        <pt x="581" y="-15" on="1"/>
        <pt x="581" y="-35" on="1"/>
        <pt x="581" y="-57" on="0"/>
        <pt x="584" y="-64" on="1"/>
        <pt x="593" y="-61" on="0"/>
        <pt x="620" y="-54" on="0"/>
        <pt x="648" y="-50" on="0"/>
        <pt x="672" y="-46" on="0"/>
        <pt x="678" y="-46" on="1"/>
        <pt x="685" y="-46" on="0"/>
        <pt x="725" y="-56" on="0"/>
        <pt x="768" y="-85" on="0"/>
        <pt x="802" y="-136" on="0"/>
        <pt x="802" y="-177" on="1"/>
        <pt x="802" y="-239" on="0"/>
        <pt x="757" y="-334" on="0"/>
        <pt x="683" y="-399" on="0"/>
        <pt x="590" y="-432" on="0"/>
        <pt x="541" y="-432" on="1"/>
        <pt x="508" y="-432" on="0"/>
        <pt x="434" y="-422" on="0"/>
        <pt x="367" y="-394" on="0"/>
        <pt x="316" y="-341" on="0"/>
        <pt x="307" y="-298" on="1"/>
        <pt x="317" y="-266" on="0"/>
        <pt x="351" y="-228" on="0"/>
        <pt x="377" y="-211" on="1"/>
        <pt x="415" y="-234" on="0"/>
        <pt x="471" y="-264" on="0"/>
        <pt x="513" y="-282" on="0"/>
        <pt x="543" y="-289" on="0"/>
        <pt x="555" y="-289" on="1"/>
        <pt x="566" y="-289" on="0"/>
        <pt x="586" y="-284" on="0"/>
        <pt x="597" y="-280" on="1"/>
        <pt x="608" y="-270" on="0"/>
        <pt x="616" y="-230" on="0"/>
        <pt x="604" y="-217" on="1"/>
        <pt x="580" y="-212" on="0"/>
        <pt x="529" y="-208" on="0"/>
        <pt x="480" y="-201" on="0"/>
        <pt x="437" y="-187" on="0"/>
        <pt x="421" y="-173" on="1"/>
        <pt x="417" y="-159" on="0"/>
        <pt x="414" y="-129" on="0"/>
        <pt x="414" y="-113" on="1"/>
        <pt x="414" y="-89" on="0"/>
        <pt x="422" y="-40" on="0"/>
        <pt x="430" y="-17" on="1"/>
        <pt x="386" y="-14" on="0"/>
        <pt x="283" y="8" on="0"/>
        <pt x="182" y="52" on="0"/>
        <pt x="91" y="122" on="0"/>
      </contour>
    </TTGlyph>
    <TTGlyph name="T" xMin="-28" yMin="-20" xMax="1210" yMax="1550">
      <contour>
        <pt x="224" y="116" on="1"/>
        <pt x="224" y="144" on="0"/>
        <pt x="230" y="197" on="0"/>
        <pt x="246" y="251" on="0"/>
        <pt x="275" y="308" on="0"/>
        <pt x="300" y="340" on="1"/>
        <pt x="349" y="320" on="0"/>
        <pt x="450" y="281" on="0"/>
        <pt x="503" y="267" on="1"/>
        <pt x="510" y="284" on="0"/>
        <pt x="516" y="332" on="0"/>
        <pt x="516" y="357" on="1"/>
        <pt x="516" y="415" on="0"/>
        <pt x="508" y="583" on="0"/>
        <pt x="497" y="773" on="0"/>
        <pt x="489" y="971" on="0"/>
        <pt x="489" y="1059" on="1"/>
        <pt x="489" y="1159" on="0"/>
        <pt x="495" y="1233" on="1"/>
        <pt x="330" y="1243" on="1"/>
        <pt x="327" y="928" on="1"/>
        <pt x="289" y="915" on="0"/>
        <pt x="202" y="903" on="0"/>
        <pt x="158" y="903" on="1"/>
        <pt x="149" y="903" on="0"/>
        <pt x="131" y="903" on="0"/>
        <pt x="122" y="904" on="1"/>
        <pt x="98" y="923" on="0"/>
        <pt x="45" y="996" on="0"/>
        <pt x="1" y="1090" on="0"/>
        <pt x="-28" y="1196" on="0"/>
        <pt x="-28" y="1247" on="1"/>
        <pt x="-28" y="1334" on="0"/>
        <pt x="16" y="1441" on="0"/>
        <pt x="99" y="1500" on="0"/>
        <pt x="218" y="1524" on="0"/>
        <pt x="292" y="1529" on="1"/>
        <pt x="383" y="1534" on="0"/>
        <pt x="598" y="1542" on="0"/>
        <pt x="824" y="1547" on="0"/>
        <pt x="1050" y="1550" on="0"/>
        <pt x="1152" y="1550" on="1"/>
        <pt x="1183" y="1511" on="0"/>
        <pt x="1210" y="1418" on="0"/>
        <pt x="1210" y="1375" on="1"/>
        <pt x="1210" y="1336" on="0"/>
        <pt x="1190" y="1263" on="0"/>
        <pt x="1148" y="1207" on="0"/>
        <pt x="1082" y="1173" on="0"/>
        <pt x="1036" y="1173" on="1"/>
        <pt x="1009" y="1173" on="0"/>
        <pt x="943" y="1182" on="0"/>
        <pt x="901" y="1193" on="1"/>
        <pt x="893" y="975" on="0"/>
        <pt x="867" y="536" on="0"/>
        <pt x="849" y="325" on="1"/>
        <pt x="843" y="256" on="0"/>
        <pt x="812" y="134" on="0"/>
        <pt x="777" y="86" on="1"/>
        <pt x="734" y="29" on="0"/>
        <pt x="587" y="-20" on="0"/>
        <pt x="505" y="-20" on="1"/>
        <pt x="475" y="-20" on="0"/>
        <pt x="397" y="-10" on="0"/>
        <pt x="317" y="19" on="0"/>
        <pt x="246" y="72" on="0"/>
      </contour>
    </TTGlyph>
    <TTGlyph name="Thorn" xMin="-19" yMin="-21" xMax="1282" yMax="1550">
      <contour>
        <pt x="193" y="10" on="1"/>
        <pt x="179" y="198" on="0"/>
        <pt x="161" y="624" on="0"/>
        <pt x="161" y="841" on="1"/>
        <pt x="161" y="938" on="0"/>
        <pt x="164" y="1124" on="0"/>
        <pt x="169" y="1214" on="1"/>
        <pt x="6" y="1235" on="1"/>
        <pt x="-1" y="1264" on="0"/>
        <pt x="-11" y="1312" on="0"/>
        <pt x="-17" y="1357" on="0"/>
        <pt x="-19" y="1403" on="0"/>
        <pt x="-18" y="1430" on="1"/>
        <pt x="-3" y="1448" on="0"/>
        <pt x="66" y="1490" on="0"/>
        <pt x="158" y="1526" on="0"/>
        <pt x="264" y="1550" on="0"/>
        <pt x="315" y="1550" on="1"/>
        <pt x="370" y="1550" on="0"/>
        <pt x="465" y="1524" on="0"/>
        <pt x="534" y="1472" on="0"/>
        <pt x="573" y="1390" on="0"/>
        <pt x="573" y="1335" on="1"/>
        <pt x="633" y="1347" on="0"/>
        <pt x="757" y="1360" on="0"/>
        <pt x="823" y="1360" on="1"/>
        <pt x="868" y="1360" on="0"/>
        <pt x="971" y="1353" on="0"/>
        <pt x="1073" y="1327" on="0"/>
        <pt x="1167" y="1278" on="0"/>
        <pt x="1239" y="1192" on="0"/>
        <pt x="1282" y="1065" on="0"/>
        <pt x="1282" y="975" on="1"/>
        <pt x="1282" y="911" on="0"/>
        <pt x="1245" y="749" on="0"/>
        <pt x="1184" y="587" on="0"/>
        <pt x="1107" y="440" on="0"/>
        <pt x="1067" y="392" on="1"/>
        <pt x="1031" y="348" on="0"/>
        <pt x="941" y="287" on="0"/>
        <pt x="887" y="278" on="1"/>
        <pt x="830" y="269" on="0"/>
        <pt x="724" y="259" on="0"/>
        <pt x="633" y="253" on="0"/>
        <pt x="562" y="252" on="0"/>
        <pt x="540" y="252" on="1"/>
        <pt x="535" y="252" on="1"/>
        <pt x="535" y="206" on="0"/>
        <pt x="537" y="124" on="0"/>
        <pt x="537" y="88" on="1"/>
        <pt x="537" y="70" on="0"/>
        <pt x="536" y="38" on="0"/>
        <pt x="535" y="23" on="1"/>
        <pt x="494" y="0" on="0"/>
        <pt x="402" y="-21" on="0"/>
        <pt x="355" y="-21" on="1"/>
        <pt x="269" y="-21" on="0"/>
      </contour>
      <contour>
        <pt x="815" y="533" on="1"/>
        <pt x="828" y="587" on="0"/>
        <pt x="844" y="706" on="0"/>
        <pt x="853" y="824" on="0"/>
        <pt x="857" y="935" on="0"/>
        <pt x="858" y="982" on="1"/>
        <pt x="853" y="990" on="0"/>
        <pt x="766" y="1005" on="0"/>
        <pt x="688" y="1005" on="1"/>
        <pt x="659" y="1005" on="0"/>
        <pt x="590" y="1003" on="0"/>
        <pt x="561" y="1001" on="1"/>
        <pt x="559" y="949" on="0"/>
        <pt x="555" y="825" on="0"/>
        <pt x="549" y="696" on="0"/>
        <pt x="541" y="570" on="0"/>
        <pt x="537" y="516" on="1"/>
      </contour>
    </TTGlyph>
    <TTGlyph name="U" xMin="20" yMin="-20" xMax="1416" yMax="1550">
      <contour>
        <pt x="165" y="378" on="1"/>
        <pt x="165" y="423" on="0"/>
        <pt x="166" y="561" on="0"/>
        <pt x="168" y="721" on="0"/>
        <pt x="171" y="893" on="0"/>
        <pt x="175" y="1052" on="0"/>
        <pt x="182" y="1185" on="0"/>
        <pt x="186" y="1228" on="1"/>
        <pt x="56" y="1244" on="1"/>
        <pt x="44" y="1281" on="0"/>
        <pt x="30" y="1328" on="0"/>
        <pt x="22" y="1372" on="0"/>
        <pt x="20" y="1422" on="0"/>
        <pt x="20" y="1462" on="1"/>
        <pt x="61" y="1485" on="0"/>
        <pt x="137" y="1518" on="0"/>
        <pt x="214" y="1540" on="0"/>
        <pt x="297" y="1550" on="0"/>
        <pt x="344" y="1550" on="1"/>
        <pt x="621" y="1550" on="0"/>
        <pt x="621" y="1273" on="1"/>
        <pt x="621" y="1227" on="0"/>
        <pt x="610" y="1084" on="0"/>
        <pt x="594" y="915" on="0"/>
        <pt x="573" y="733" on="0"/>
        <pt x="554" y="566" on="0"/>
        <pt x="537" y="425" on="0"/>
        <pt x="533" y="382" on="1"/>
        <pt x="552" y="361" on="0"/>
        <pt x="578" y="355" on="1"/>
        <pt x="585" y="352" on="0"/>
        <pt x="630" y="378" on="0"/>
        <pt x="692" y="424" on="0"/>
        <pt x="764" y="487" on="0"/>
        <pt x="832" y="557" on="0"/>
        <pt x="890" y="628" on="0"/>
        <pt x="907" y="660" on="1"/>
        <pt x="902" y="746" on="0"/>
        <pt x="888" y="956" on="0"/>
        <pt x="867" y="1171" on="0"/>
        <pt x="839" y="1376" on="0"/>
        <pt x="820" y="1458" on="1"/>
        <pt x="844" y="1482" on="0"/>
        <pt x="907" y="1516" on="0"/>
        <pt x="975" y="1539" on="0"/>
        <pt x="1045" y="1550" on="0"/>
        <pt x="1077" y="1550" on="1"/>
        <pt x="1129" y="1550" on="0"/>
        <pt x="1239" y="1527" on="0"/>
        <pt x="1281" y="1496" on="1"/>
        <pt x="1299" y="1456" on="0"/>
        <pt x="1312" y="1335" on="0"/>
        <pt x="1312" y="1273" on="1"/>
        <pt x="1312" y="1241" on="0"/>
        <pt x="1307" y="1141" on="0"/>
        <pt x="1298" y="1018" on="0"/>
        <pt x="1285" y="878" on="0"/>
        <pt x="1270" y="733" on="0"/>
        <pt x="1253" y="592" on="0"/>
        <pt x="1235" y="465" on="0"/>
        <pt x="1216" y="361" on="0"/>
        <pt x="1207" y="326" on="1"/>
        <pt x="1330" y="380" on="1"/>
        <pt x="1343" y="366" on="0"/>
        <pt x="1370" y="329" on="0"/>
        <pt x="1394" y="281" on="0"/>
        <pt x="1412" y="223" on="0"/>
        <pt x="1416" y="189" on="1"/>
        <pt x="1407" y="170" on="0"/>
        <pt x="1347" y="100" on="0"/>
        <pt x="1257" y="31" on="0"/>
        <pt x="1141" y="-20" on="0"/>
        <pt x="1075" y="-20" on="1"/>
        <pt x="1029" y="-20" on="0"/>
        <pt x="960" y="10" on="0"/>
        <pt x="914" y="61" on="0"/>
        <pt x="891" y="130" on="0"/>
        <pt x="891" y="169" on="1"/>
        <pt x="891" y="177" on="0"/>
        <pt x="896" y="225" on="0"/>
        <pt x="903" y="281" on="0"/>
        <pt x="911" y="330" on="0"/>
        <pt x="915" y="339" on="1"/>
        <pt x="885" y="349" on="1"/>
        <pt x="850" y="281" on="0"/>
        <pt x="768" y="148" on="0"/>
        <pt x="663" y="44" on="0"/>
        <pt x="533" y="-20" on="0"/>
        <pt x="452" y="-20" on="1"/>
        <pt x="365" y="-20" on="0"/>
        <pt x="253" y="51" on="0"/>
        <pt x="189" y="164" on="0"/>
        <pt x="165" y="306" on="0"/>
      </contour>
    </TTGlyph>
    <TTGlyph name="Uacute" xMin="20" yMin="-20" xMax="1416" yMax="2020">
      <component glyphName="U" x="0" y="0" flags="0x204"/>
      <component glyphName="acute.cap" x="445" y="0" flags="0x4"/>
    </TTGlyph>
    <TTGlyph name="Ucircumflex" xMin="20" yMin="-20" xMax="1416" yMax="2015">
      <component glyphName="U" x="0" y="0" flags="0x204"/>
      <component glyphName="circumflex.cap" x="280" y="0" flags="0x4"/>
    </TTGlyph>
    <TTGlyph name="Udieresis" xMin="20" yMin="-20" xMax="1416" yMax="1981">
      <component glyphName="U" x="0" y="0" flags="0x204"/>
      <component glyphName="dieresis.cap" x="171" y="0" flags="0x4"/>
    </TTGlyph>
    <TTGlyph name="Ugrave" xMin="20" yMin="-20" xMax="1416" yMax="2020">
      <component glyphName="U" x="0" y="0" flags="0x204"/>
      <component glyphName="grave.cap" x="305" y="0" flags="0x4"/>
    </TTGlyph>
    <TTGlyph name="V" xMin="-97" yMin="-20" xMax="1263" yMax="1551">
      <contour>
        <pt x="375" y="226" on="1"/>
        <pt x="360" y="276" on="0"/>
        <pt x="306" y="443" on="0"/>
        <pt x="241" y="638" on="0"/>
        <pt x="169" y="843" on="0"/>
        <pt x="102" y="1021" on="0"/>
        <pt x="45" y="1153" on="0"/>
        <pt x="27" y="1177" on="1"/>
        <pt x="-60" y="1184" on="1"/>
        <pt x="-77" y="1236" on="0"/>
        <pt x="-97" y="1329" on="0"/>
        <pt x="-97" y="1371" on="1"/>
        <pt x="-63" y="1456" on="0"/>
        <pt x="70" y="1547" on="0"/>
        <pt x="167" y="1549" on="1"/>
        <pt x="201" y="1550" on="0"/>
        <pt x="269" y="1538" on="0"/>
        <pt x="332" y="1506" on="0"/>
        <pt x="387" y="1454" on="0"/>
        <pt x="410" y="1415" on="1"/>
        <pt x="437" y="1369" on="0"/>
        <pt x="480" y="1253" on="0"/>
        <pt x="516" y="1121" on="0"/>
        <pt x="547" y="975" on="0"/>
        <pt x="561" y="900" on="1"/>
        <pt x="589" y="755" on="0"/>
        <pt x="633" y="464" on="0"/>
        <pt x="641" y="337" on="1"/>
        <pt x="664" y="341" on="1"/>
        <pt x="677" y="370" on="0"/>
        <pt x="712" y="495" on="0"/>
        <pt x="749" y="657" on="0"/>
        <pt x="784" y="839" on="0"/>
        <pt x="812" y="1014" on="0"/>
        <pt x="828" y="1166" on="0"/>
        <pt x="828" y="1215" on="1"/>
        <pt x="696" y="1234" on="1"/>
        <pt x="689" y="1259" on="0"/>
        <pt x="679" y="1302" on="0"/>
        <pt x="673" y="1342" on="0"/>
        <pt x="669" y="1381" on="0"/>
        <pt x="669" y="1403" on="1"/>
        <pt x="669" y="1410" on="0"/>
        <pt x="670" y="1423" on="0"/>
        <pt x="669" y="1431" on="1"/>
        <pt x="684" y="1449" on="0"/>
        <pt x="750" y="1491" on="0"/>
        <pt x="838" y="1527" on="0"/>
        <pt x="942" y="1551" on="0"/>
        <pt x="996" y="1551" on="1"/>
        <pt x="1131" y="1551" on="0"/>
        <pt x="1259" y="1423" on="0"/>
        <pt x="1261" y="1292" on="1"/>
        <pt x="1263" y="1195" on="0"/>
        <pt x="1211" y="924" on="0"/>
        <pt x="1162" y="776" on="1"/>
        <pt x="1146" y="728" on="0"/>
        <pt x="1094" y="599" on="0"/>
        <pt x="1030" y="456" on="0"/>
        <pt x="958" y="307" on="0"/>
        <pt x="882" y="171" on="0"/>
        <pt x="808" y="56" on="0"/>
        <pt x="775" y="18" on="1"/>
        <pt x="744" y="-2" on="0"/>
        <pt x="661" y="-20" on="0"/>
        <pt x="623" y="-20" on="1"/>
        <pt x="580" y="-20" on="0"/>
        <pt x="491" y="-2" on="0"/>
        <pt x="413" y="30" on="0"/>
        <pt x="352" y="75" on="0"/>
        <pt x="338" y="103" on="1"/>
      </contour>
    </TTGlyph>
    <TTGlyph name="W" xMin="-69" yMin="-20" xMax="1947" yMax="1551">
      <contour>
        <pt x="333" y="243" on="1"/>
        <pt x="322" y="284" on="0"/>
        <pt x="294" y="401" on="0"/>
        <pt x="261" y="537" on="0"/>
        <pt x="224" y="685" on="0"/>
        <pt x="186" y="830" on="0"/>
        <pt x="149" y="966" on="0"/>
        <pt x="115" y="1079" on="0"/>
        <pt x="84" y="1159" on="0"/>
        <pt x="72" y="1177" on="1"/>
        <pt x="-28" y="1184" on="1"/>
        <pt x="-45" y="1227" on="0"/>
        <pt x="-64" y="1320" on="0"/>
        <pt x="-69" y="1371" on="1"/>
        <pt x="-56" y="1414" on="0"/>
        <pt x="7" y="1481" on="0"/>
        <pt x="89" y="1526" on="0"/>
        <pt x="185" y="1549" on="0"/>
        <pt x="232" y="1549" on="1"/>
        <pt x="295" y="1549" on="0"/>
        <pt x="409" y="1490" on="0"/>
        <pt x="450" y="1415" on="1"/>
        <pt x="485" y="1349" on="0"/>
        <pt x="531" y="1170" on="0"/>
        <pt x="549" y="1066" on="1"/>
        <pt x="571" y="932" on="0"/>
        <pt x="597" y="703" on="0"/>
        <pt x="610" y="511" on="0"/>
        <pt x="617" y="353" on="0"/>
        <pt x="620" y="290" on="1"/>
        <pt x="635" y="290" on="1"/>
        <pt x="648" y="319" on="0"/>
        <pt x="678" y="452" on="0"/>
        <pt x="706" y="624" on="0"/>
        <pt x="732" y="821" on="0"/>
        <pt x="753" y="1007" on="0"/>
        <pt x="765" y="1166" on="0"/>
        <pt x="766" y="1215" on="1"/>
        <pt x="640" y="1234" on="1"/>
        <pt x="632" y="1263" on="0"/>
        <pt x="624" y="1312" on="0"/>
        <pt x="619" y="1358" on="0"/>
        <pt x="618" y="1405" on="0"/>
        <pt x="618" y="1431" on="1"/>
        <pt x="633" y="1449" on="0"/>
        <pt x="696" y="1491" on="0"/>
        <pt x="780" y="1527" on="0"/>
        <pt x="880" y="1551" on="0"/>
        <pt x="931" y="1551" on="1"/>
        <pt x="994" y="1551" on="0"/>
        <pt x="1105" y="1520" on="0"/>
        <pt x="1189" y="1457" on="0"/>
        <pt x="1239" y="1364" on="0"/>
        <pt x="1240" y="1301" on="1"/>
        <pt x="1240" y="1147" on="1"/>
        <pt x="1264" y="1053" on="0"/>
        <pt x="1305" y="833" on="0"/>
        <pt x="1337" y="607" on="0"/>
        <pt x="1361" y="386" on="0"/>
        <pt x="1368" y="291" on="1"/>
        <pt x="1379" y="291" on="1"/>
        <pt x="1392" y="321" on="0"/>
        <pt x="1421" y="453" on="0"/>
        <pt x="1450" y="626" on="0"/>
        <pt x="1476" y="822" on="0"/>
        <pt x="1497" y="1007" on="0"/>
        <pt x="1510" y="1166" on="0"/>
        <pt x="1511" y="1215" on="1"/>
        <pt x="1393" y="1234" on="1"/>
        <pt x="1385" y="1263" on="0"/>
        <pt x="1377" y="1312" on="0"/>
        <pt x="1372" y="1358" on="0"/>
        <pt x="1371" y="1405" on="0"/>
        <pt x="1371" y="1431" on="1"/>
        <pt x="1386" y="1449" on="0"/>
        <pt x="1449" y="1491" on="0"/>
        <pt x="1534" y="1527" on="0"/>
        <pt x="1635" y="1551" on="0"/>
        <pt x="1686" y="1551" on="1"/>
        <pt x="1817" y="1551" on="0"/>
        <pt x="1947" y="1417" on="0"/>
        <pt x="1947" y="1276" on="1"/>
        <pt x="1947" y="1210" on="0"/>
        <pt x="1924" y="1033" on="0"/>
        <pt x="1882" y="838" on="0"/>
        <pt x="1826" y="636" on="0"/>
        <pt x="1793" y="545" on="1"/>
        <pt x="1769" y="477" on="0"/>
        <pt x="1718" y="348" on="0"/>
        <pt x="1660" y="223" on="0"/>
        <pt x="1589" y="101" on="0"/>
        <pt x="1545" y="40" on="1"/>
        <pt x="1527" y="21" on="0"/>
        <pt x="1477" y="-3" on="0"/>
        <pt x="1423" y="-16" on="0"/>
        <pt x="1370" y="-20" on="0"/>
        <pt x="1348" y="-20" on="1"/>
        <pt x="1307" y="-20" on="0"/>
        <pt x="1226" y="-13" on="0"/>
        <pt x="1151" y="5" on="0"/>
        <pt x="1084" y="34" on="0"/>
        <pt x="1057" y="56" on="1"/>
        <pt x="1084" y="261" on="1"/>
        <pt x="1019" y="598" on="1"/>
        <pt x="1017" y="609" on="0"/>
        <pt x="1009" y="659" on="0"/>
        <pt x="1000" y="720" on="0"/>
        <pt x="991" y="785" on="0"/>
        <pt x="989" y="810" on="1"/>
        <pt x="976" y="811" on="1"/>
        <pt x="973" y="684" on="1"/>
        <pt x="958" y="591" on="0"/>
        <pt x="919" y="411" on="0"/>
        <pt x="871" y="246" on="0"/>
        <pt x="816" y="99" on="0"/>
        <pt x="784" y="40" on="1"/>
        <pt x="768" y="22" on="0"/>
        <pt x="722" y="-1" on="0"/>
        <pt x="672" y="-15" on="0"/>
        <pt x="621" y="-20" on="0"/>
        <pt x="600" y="-20" on="1"/>
        <pt x="559" y="-20" on="0"/>
        <pt x="476" y="-13" on="0"/>
        <pt x="401" y="4" on="0"/>
        <pt x="335" y="33" on="0"/>
        <pt x="311" y="55" on="1"/>
      </contour>
    </TTGlyph>
    <TTGlyph name="X" xMin="-8" yMin="-24" xMax="1352" yMax="1551">
      <contour>
        <pt x="266" y="-19" on="1"/>
        <pt x="226" y="-18" on="0"/>
        <pt x="159" y="23" on="0"/>
        <pt x="105" y="91" on="0"/>
        <pt x="63" y="180" on="0"/>
        <pt x="32" y="278" on="0"/>
        <pt x="13" y="379" on="0"/>
        <pt x="9" y="425" on="1"/>
        <pt x="54" y="484" on="0"/>
        <pt x="171" y="562" on="0"/>
        <pt x="256" y="575" on="1"/>
        <pt x="339" y="448" on="1"/>
        <pt x="498" y="741" on="1"/>
        <pt x="292" y="1129" on="1"/>
        <pt x="135" y="1035" on="1"/>
        <pt x="-8" y="1169" on="1"/>
        <pt x="2" y="1242" on="0"/>
        <pt x="69" y="1381" on="0"/>
        <pt x="175" y="1487" on="0"/>
        <pt x="314" y="1551" on="0"/>
        <pt x="396" y="1549" on="1"/>
        <pt x="474" y="1547" on="0"/>
        <pt x="590" y="1459" on="0"/>
        <pt x="625" y="1374" on="1"/>
        <pt x="649" y="1314" on="0"/>
        <pt x="681" y="1201" on="0"/>
        <pt x="700" y="1096" on="0"/>
        <pt x="708" y="1002" on="0"/>
        <pt x="709" y="962" on="1"/>
        <pt x="718" y="1023" on="0"/>
        <pt x="742" y="1172" on="0"/>
        <pt x="780" y="1320" on="0"/>
        <pt x="838" y="1452" on="0"/>
        <pt x="883" y="1496" on="1"/>
        <pt x="913" y="1525" on="0"/>
        <pt x="999" y="1549" on="0"/>
        <pt x="1047" y="1549" on="1"/>
        <pt x="1094" y="1549" on="0"/>
        <pt x="1171" y="1504" on="0"/>
        <pt x="1232" y="1428" on="0"/>
        <pt x="1277" y="1329" on="0"/>
        <pt x="1309" y="1221" on="0"/>
        <pt x="1328" y="1111" on="0"/>
        <pt x="1333" y="1062" on="1"/>
        <pt x="1303" y="1029" on="0"/>
        <pt x="1249" y="984" on="0"/>
        <pt x="1191" y="954" on="0"/>
        <pt x="1125" y="936" on="0"/>
        <pt x="1083" y="930" on="1"/>
        <pt x="978" y="1095" on="1"/>
        <pt x="823" y="791" on="1"/>
        <pt x="1056" y="404" on="1"/>
        <pt x="1230" y="527" on="1"/>
        <pt x="1352" y="404" on="1"/>
        <pt x="1348" y="360" on="0"/>
        <pt x="1324" y="265" on="0"/>
        <pt x="1283" y="173" on="0"/>
        <pt x="1226" y="89" on="0"/>
        <pt x="1151" y="25" on="0"/>
        <pt x="1059" y="-16" on="0"/>
        <pt x="1003" y="-19" on="1"/>
        <pt x="926" y="-24" on="0"/>
        <pt x="795" y="54" on="0"/>
        <pt x="748" y="129" on="1"/>
        <pt x="717" y="179" on="0"/>
        <pt x="674" y="299" on="0"/>
        <pt x="646" y="421" on="0"/>
        <pt x="630" y="537" on="0"/>
        <pt x="627" y="585" on="1"/>
        <pt x="626" y="593" on="0"/>
        <pt x="625" y="609" on="0"/>
        <pt x="625" y="619" on="1"/>
        <pt x="618" y="580" on="0"/>
        <pt x="604" y="481" on="0"/>
        <pt x="586" y="372" on="0"/>
        <pt x="561" y="260" on="0"/>
        <pt x="525" y="157" on="0"/>
        <pt x="476" y="66" on="0"/>
        <pt x="443" y="34" on="1"/>
        <pt x="411" y="2" on="0"/>
        <pt x="317" y="-20" on="0"/>
      </contour>
    </TTGlyph>
    <TTGlyph name="Y" xMin="-125" yMin="-19" xMax="1255" yMax="1552">
      <contour>
        <pt x="406" y="472" on="1"/>
        <pt x="385" y="505" on="0"/>
        <pt x="327" y="605" on="0"/>
        <pt x="261" y="726" on="0"/>
        <pt x="192" y="864" on="0"/>
        <pt x="128" y="1007" on="0"/>
        <pt x="72" y="1149" on="0"/>
        <pt x="52" y="1214" on="1"/>
        <pt x="-100" y="1235" on="1"/>
        <pt x="-107" y="1264" on="0"/>
        <pt x="-117" y="1312" on="0"/>
        <pt x="-123" y="1357" on="0"/>
        <pt x="-125" y="1403" on="0"/>
        <pt x="-124" y="1430" on="1"/>
        <pt x="-109" y="1448" on="0"/>
        <pt x="-44" y="1490" on="0"/>
        <pt x="44" y="1526" on="0"/>
        <pt x="147" y="1550" on="0"/>
        <pt x="198" y="1550" on="1"/>
        <pt x="384" y="1550" on="0"/>
        <pt x="431" y="1410" on="1"/>
        <pt x="438" y="1393" on="0"/>
        <pt x="467" y="1316" on="0"/>
        <pt x="503" y="1209" on="0"/>
        <pt x="545" y="1077" on="0"/>
        <pt x="585" y="933" on="0"/>
        <pt x="621" y="783" on="0"/>
        <pt x="634" y="712" on="1"/>
        <pt x="663" y="770" on="0"/>
        <pt x="725" y="909" on="0"/>
        <pt x="781" y="1046" on="0"/>
        <pt x="824" y="1171" on="0"/>
        <pt x="835" y="1216" on="1"/>
        <pt x="833" y="1216" on="1"/>
        <pt x="711" y="1237" on="1"/>
        <pt x="704" y="1266" on="0"/>
        <pt x="694" y="1314" on="0"/>
        <pt x="688" y="1359" on="0"/>
        <pt x="686" y="1405" on="0"/>
        <pt x="687" y="1432" on="1"/>
        <pt x="702" y="1450" on="0"/>
        <pt x="767" y="1492" on="0"/>
        <pt x="855" y="1528" on="0"/>
        <pt x="958" y="1552" on="0"/>
        <pt x="1009" y="1552" on="1"/>
        <pt x="1201" y="1552" on="0"/>
        <pt x="1244" y="1404" on="1"/>
        <pt x="1250" y="1384" on="0"/>
        <pt x="1255" y="1348" on="0"/>
        <pt x="1255" y="1331" on="1"/>
        <pt x="1255" y="1272" on="0"/>
        <pt x="1200" y="1122" on="0"/>
        <pt x="1112" y="960" on="0"/>
        <pt x="1001" y="795" on="0"/>
        <pt x="892" y="649" on="0"/>
        <pt x="794" y="531" on="0"/>
        <pt x="762" y="496" on="1"/>
        <pt x="753" y="442" on="0"/>
        <pt x="735" y="341" on="0"/>
        <pt x="724" y="294" on="1"/>
        <pt x="726" y="292" on="1"/>
        <pt x="874" y="354" on="1"/>
        <pt x="915" y="319" on="0"/>
        <pt x="959" y="230" on="0"/>
        <pt x="965" y="176" on="1"/>
        <pt x="926" y="121" on="0"/>
        <pt x="874" y="78" on="1"/>
        <pt x="852" y="60" on="0"/>
        <pt x="798" y="25" on="0"/>
        <pt x="735" y="-2" on="0"/>
        <pt x="663" y="-19" on="0"/>
        <pt x="623" y="-19" on="1"/>
        <pt x="580" y="-19" on="0"/>
        <pt x="501" y="3" on="0"/>
        <pt x="439" y="58" on="0"/>
        <pt x="403" y="152" on="0"/>
        <pt x="404" y="224" on="1"/>
      </contour>
    </TTGlyph>
    <TTGlyph name="Yacute" xMin="-125" yMin="-19" xMax="1255" yMax="2020">
      <component glyphName="Y" x="0" y="0" flags="0x204"/>
      <component glyphName="acute.cap" x="361" y="0" flags="0x4"/>
    </TTGlyph>
    <TTGlyph name="Ydieresis" xMin="-125" yMin="-19" xMax="1255" yMax="1981">
      <component glyphName="Y" x="0" y="0" flags="0x204"/>
      <component glyphName="dieresis.cap" x="87" y="0" flags="0x4"/>
    </TTGlyph>
    <TTGlyph name="Z" xMin="36" yMin="-20" xMax="1243" yMax="1550">
      <contour>
        <pt x="231" y="-20" on="1"/>
        <pt x="206" y="-5" on="0"/>
        <pt x="157" y="49" on="0"/>
        <pt x="113" y="119" on="0"/>
        <pt x="76" y="201" on="0"/>
        <pt x="50" y="286" on="0"/>
        <pt x="36" y="370" on="0"/>
        <pt x="38" y="408" on="1"/>
        <pt x="60" y="451" on="0"/>
        <pt x="113" y="498" on="0"/>
        <pt x="168" y="524" on="0"/>
        <pt x="221" y="538" on="0"/>
        <pt x="242" y="547" on="1"/>
        <pt x="271" y="538" on="0"/>
        <pt x="348" y="511" on="0"/>
        <pt x="391" y="482" on="1"/>
        <pt x="675" y="1156" on="1"/>
        <pt x="400" y="1169" on="1"/>
        <pt x="394" y="830" on="1"/>
        <pt x="209" y="790" on="1"/>
        <pt x="184" y="816" on="0"/>
        <pt x="130" y="925" on="0"/>
        <pt x="84" y="1062" on="0"/>
        <pt x="54" y="1210" on="0"/>
        <pt x="54" y="1274" on="1"/>
        <pt x="54" y="1296" on="0"/>
        <pt x="57" y="1336" on="0"/>
        <pt x="62" y="1353" on="1"/>
        <pt x="85" y="1449" on="0"/>
        <pt x="203" y="1548" on="0"/>
        <pt x="290" y="1550" on="1"/>
        <pt x="351" y="1550" on="0"/>
        <pt x="487" y="1530" on="0"/>
        <pt x="625" y="1493" on="0"/>
        <pt x="758" y="1440" on="0"/>
        <pt x="815" y="1407" on="1"/>
        <pt x="831" y="1431" on="0"/>
        <pt x="883" y="1481" on="0"/>
        <pt x="954" y="1523" on="0"/>
        <pt x="1042" y="1550" on="0"/>
        <pt x="1093" y="1550" on="1"/>
        <pt x="1128" y="1531" on="0"/>
        <pt x="1183" y="1471" on="0"/>
        <pt x="1220" y="1397" on="0"/>
        <pt x="1239" y="1310" on="0"/>
        <pt x="1239" y="1264" on="1"/>
        <pt x="1239" y="1227" on="0"/>
        <pt x="1227" y="1152" on="0"/>
        <pt x="1214" y="1115" on="1"/>
        <pt x="1182" y="1106" on="0"/>
        <pt x="1127" y="1098" on="0"/>
        <pt x="1104" y="1098" on="1"/>
        <pt x="1086" y="1061" on="0"/>
        <pt x="1019" y="954" on="0"/>
        <pt x="936" y="827" on="0"/>
        <pt x="844" y="689" on="0"/>
        <pt x="755" y="556" on="0"/>
        <pt x="678" y="433" on="0"/>
        <pt x="652" y="386" on="1"/>
        <pt x="656" y="385" on="1"/>
        <pt x="932" y="366" on="1"/>
        <pt x="1044" y="646" on="1"/>
        <pt x="1208" y="615" on="1"/>
        <pt x="1222" y="577" on="0"/>
        <pt x="1243" y="448" on="0"/>
        <pt x="1243" y="375" on="1"/>
        <pt x="1243" y="336" on="0"/>
        <pt x="1235" y="256" on="0"/>
        <pt x="1219" y="182" on="0"/>
        <pt x="1192" y="116" on="0"/>
        <pt x="1173" y="90" on="1"/>
        <pt x="1131" y="33" on="0"/>
        <pt x="1025" y="-20" on="0"/>
        <pt x="966" y="-20" on="1"/>
        <pt x="911" y="-20" on="0"/>
        <pt x="775" y="19" on="0"/>
        <pt x="641" y="74" on="0"/>
        <pt x="523" y="134" on="0"/>
        <pt x="487" y="155" on="1"/>
        <pt x="464" y="116" on="0"/>
        <pt x="416" y="55" on="0"/>
        <pt x="356" y="10" on="0"/>
        <pt x="281" y="-17" on="0"/>
      </contour>
    </TTGlyph>
    <TTGlyph name="Zcaron" xMin="36" yMin="-20" xMax="1243" yMax="2020">
      <component glyphName="Z" x="0" y="0" flags="0x204"/>
      <component glyphName="caron.cap" x="263" y="0" flags="0x4"/>
    </TTGlyph>
    <TTGlyph name="Zdotaccent" xMin="36" yMin="-20" xMax="1243" yMax="1981">
      <component glyphName="Z" x="0" y="0" flags="0x204"/>
      <component glyphName="dotaccent.cap" x="434" y="0" flags="0x4"/>
    </TTGlyph>
    <TTGlyph name="a" xMin="65" yMin="-20" xMax="1178" yMax="1185">
      <contour>
        <pt x="65" y="320" on="1"/>
        <pt x="65" y="488" on="0"/>
        <pt x="231" y="659" on="0"/>
        <pt x="389" y="659" on="1"/>
        <pt x="420" y="659" on="0"/>
        <pt x="490" y="652" on="0"/>
        <pt x="559" y="641" on="0"/>
        <pt x="624" y="626" on="0"/>
        <pt x="651" y="618" on="1"/>
        <pt x="651" y="649" on="1"/>
        <pt x="651" y="662" on="0"/>
        <pt x="650" y="698" on="0"/>
        <pt x="649" y="732" on="0"/>
        <pt x="646" y="761" on="0"/>
        <pt x="645" y="768" on="1"/>
        <pt x="643" y="772" on="0"/>
        <pt x="625" y="790" on="0"/>
        <pt x="583" y="808" on="0"/>
        <pt x="511" y="821" on="0"/>
        <pt x="455" y="821" on="1"/>
        <pt x="421" y="821" on="0"/>
        <pt x="351" y="811" on="0"/>
        <pt x="284" y="795" on="0"/>
        <pt x="221" y="776" on="0"/>
        <pt x="195" y="768" on="1"/>
        <pt x="178" y="795" on="0"/>
        <pt x="146" y="856" on="0"/>
        <pt x="121" y="920" on="0"/>
        <pt x="105" y="987" on="0"/>
        <pt x="105" y="1021" on="1"/>
        <pt x="105" y="1039" on="0"/>
        <pt x="108" y="1059" on="1"/>
        <pt x="111" y="1062" on="0"/>
        <pt x="164" y="1102" on="0"/>
        <pt x="267" y="1148" on="0"/>
        <pt x="422" y="1185" on="0"/>
        <pt x="527" y="1185" on="1"/>
        <pt x="587" y="1185" on="0"/>
        <pt x="709" y="1173" on="0"/>
        <pt x="821" y="1141" on="0"/>
        <pt x="918" y="1082" on="0"/>
        <pt x="990" y="990" on="0"/>
        <pt x="1031" y="858" on="0"/>
        <pt x="1031" y="768" on="1"/>
        <pt x="1031" y="721" on="0"/>
        <pt x="1019" y="613" on="0"/>
        <pt x="1002" y="507" on="0"/>
        <pt x="981" y="410" on="0"/>
        <pt x="964" y="335" on="0"/>
        <pt x="953" y="291" on="0"/>
        <pt x="953" y="291" on="1"/>
        <pt x="1098" y="353" on="1"/>
        <pt x="1122" y="327" on="0"/>
        <pt x="1171" y="239" on="0"/>
        <pt x="1178" y="175" on="1"/>
        <pt x="1169" y="157" on="0"/>
        <pt x="1114" y="92" on="0"/>
        <pt x="1029" y="27" on="0"/>
        <pt x="921" y="-20" on="0"/>
        <pt x="860" y="-20" on="1"/>
        <pt x="817" y="-20" on="0"/>
        <pt x="754" y="7" on="0"/>
        <pt x="712" y="55" on="0"/>
        <pt x="692" y="119" on="0"/>
        <pt x="692" y="156" on="1"/>
        <pt x="692" y="200" on="0"/>
        <pt x="705" y="245" on="1"/>
        <pt x="675" y="254" on="1"/>
        <pt x="659" y="165" on="0"/>
        <pt x="587" y="58" on="0"/>
        <pt x="495" y="-1" on="0"/>
        <pt x="397" y="-20" on="0"/>
        <pt x="355" y="-20" on="1"/>
        <pt x="302" y="-20" on="0"/>
        <pt x="199" y="25" on="0"/>
        <pt x="116" y="111" on="0"/>
        <pt x="65" y="238" on="0"/>
      </contour>
      <contour>
        <pt x="435" y="365" on="1"/>
        <pt x="435" y="351" on="0"/>
        <pt x="442" y="322" on="0"/>
        <pt x="458" y="297" on="0"/>
        <pt x="484" y="280" on="0"/>
        <pt x="503" y="278" on="1"/>
        <pt x="522" y="281" on="0"/>
        <pt x="571" y="310" on="0"/>
        <pt x="617" y="351" on="0"/>
        <pt x="652" y="399" on="0"/>
        <pt x="656" y="422" on="1"/>
        <pt x="650" y="446" on="1"/>
        <pt x="621" y="450" on="0"/>
        <pt x="563" y="453" on="0"/>
        <pt x="537" y="453" on="1"/>
        <pt x="514" y="453" on="0"/>
        <pt x="478" y="450" on="0"/>
        <pt x="467" y="445" on="1"/>
        <pt x="456" y="432" on="0"/>
        <pt x="435" y="394" on="0"/>
      </contour>
    </TTGlyph>
    <TTGlyph name="aacute" xMin="65" yMin="-20" xMax="1178" yMax="1793">
      <component glyphName="a" x="0" y="0" flags="0x204"/>
      <component glyphName="acute" x="302" y="0" flags="0x4"/>
    </TTGlyph>
    <TTGlyph name="acircumflex" xMin="65" yMin="-20" xMax="1178" yMax="1746">
      <component glyphName="a" x="0" y="0" flags="0x204"/>
      <component glyphName="circumflex" x="94" y="0" flags="0x4"/>
    </TTGlyph>
    <TTGlyph name="acute" xMin="50" yMin="1264" xMax="634" yMax="1793">
      <contour>
        <pt x="164" y="1264" on="1"/>
        <pt x="146" y="1275" on="0"/>
        <pt x="111" y="1311" on="0"/>
        <pt x="80" y="1353" on="0"/>
        <pt x="56" y="1399" on="0"/>
        <pt x="50" y="1421" on="1"/>
        <pt x="383" y="1793" on="1"/>
        <pt x="442" y="1765" on="0"/>
        <pt x="529" y="1700" on="0"/>
        <pt x="589" y="1632" on="0"/>
        <pt x="625" y="1561" on="0"/>
        <pt x="634" y="1527" on="1"/>
        <pt x="587" y="1483" on="0"/>
        <pt x="473" y="1403" on="0"/>
        <pt x="351" y="1336" on="0"/>
        <pt x="224" y="1282" on="0"/>
      </contour>
    </TTGlyph>
    <TTGlyph name="acute.cap" xMin="50" yMin="1625" xMax="611" yMax="2020">
      <contour>
        <pt x="114" y="1629" on="1"/>
        <pt x="88" y="1657" on="0"/>
        <pt x="57" y="1748" on="0"/>
        <pt x="50" y="1796" on="1"/>
        <pt x="452" y="2020" on="1"/>
        <pt x="492" y="1996" on="0"/>
        <pt x="551" y="1930" on="0"/>
        <pt x="590" y="1855" on="0"/>
        <pt x="609" y="1775" on="0"/>
        <pt x="611" y="1737" on="1"/>
        <pt x="570" y="1710" on="0"/>
        <pt x="462" y="1668" on="0"/>
        <pt x="345" y="1639" on="0"/>
        <pt x="228" y="1625" on="0"/>
        <pt x="178" y="1625" on="1"/>
        <pt x="161" y="1625" on="0"/>
        <pt x="128" y="1627" on="0"/>
      </contour>
    </TTGlyph>
    <TTGlyph name="adieresis" xMin="65" yMin="-20" xMax="1178" yMax="1633">
      <component glyphName="a" x="0" y="0" flags="0x204"/>
      <component glyphName="dieresis" x="34" y="0" flags="0x4"/>
    </TTGlyph>
    <TTGlyph name="ae" xMin="65" yMin="-22" xMax="1648" yMax="1186">
      <contour>
        <pt x="65" y="320" on="1"/>
        <pt x="65" y="488" on="0"/>
        <pt x="231" y="659" on="0"/>
        <pt x="389" y="659" on="1"/>
        <pt x="420" y="659" on="0"/>
        <pt x="490" y="652" on="0"/>
        <pt x="559" y="641" on="0"/>
        <pt x="624" y="626" on="0"/>
        <pt x="651" y="618" on="1"/>
        <pt x="651" y="649" on="1"/>
        <pt x="651" y="662" on="0"/>
        <pt x="650" y="698" on="0"/>
        <pt x="649" y="732" on="0"/>
        <pt x="646" y="761" on="0"/>
        <pt x="645" y="768" on="1"/>
        <pt x="643" y="772" on="0"/>
        <pt x="625" y="790" on="0"/>
        <pt x="583" y="808" on="0"/>
        <pt x="511" y="821" on="0"/>
        <pt x="455" y="821" on="1"/>
        <pt x="421" y="821" on="0"/>
        <pt x="351" y="811" on="0"/>
        <pt x="284" y="795" on="0"/>
        <pt x="221" y="776" on="0"/>
        <pt x="195" y="768" on="1"/>
        <pt x="152" y="839" on="0"/>
        <pt x="106" y="963" on="0"/>
        <pt x="106" y="1024" on="1"/>
        <pt x="106" y="1033" on="0"/>
        <pt x="106" y="1051" on="0"/>
        <pt x="108" y="1059" on="1"/>
        <pt x="107" y="1059" on="0"/>
        <pt x="159" y="1098" on="0"/>
        <pt x="264" y="1146" on="0"/>
        <pt x="422" y="1185" on="0"/>
        <pt x="527" y="1185" on="1"/>
        <pt x="626" y="1185" on="0"/>
        <pt x="788" y="1122" on="0"/>
        <pt x="854" y="1061" on="1"/>
        <pt x="914" y="1117" on="0"/>
        <pt x="1074" y="1186" on="0"/>
        <pt x="1180" y="1186" on="1"/>
        <pt x="1207" y="1186" on="0"/>
        <pt x="1297" y="1178" on="0"/>
        <pt x="1395" y="1159" on="0"/>
        <pt x="1488" y="1125" on="0"/>
        <pt x="1519" y="1098" on="1"/>
        <pt x="1555" y="1072" on="0"/>
        <pt x="1605" y="1001" on="0"/>
        <pt x="1635" y="920" on="0"/>
        <pt x="1648" y="830" on="0"/>
        <pt x="1648" y="784" on="1"/>
        <pt x="1648" y="749" on="0"/>
        <pt x="1641" y="681" on="0"/>
        <pt x="1636" y="648" on="1"/>
        <pt x="1596" y="599" on="0"/>
        <pt x="1481" y="508" on="0"/>
        <pt x="1409" y="481" on="1"/>
        <pt x="1376" y="479" on="0"/>
        <pt x="1316" y="476" on="0"/>
        <pt x="1287" y="476" on="1"/>
        <pt x="1226" y="476" on="0"/>
        <pt x="1105" y="489" on="0"/>
        <pt x="1027" y="504" on="1"/>
        <pt x="1030" y="470" on="0"/>
        <pt x="1047" y="400" on="0"/>
        <pt x="1086" y="342" on="0"/>
        <pt x="1152" y="305" on="0"/>
        <pt x="1205" y="305" on="1"/>
        <pt x="1238" y="305" on="0"/>
        <pt x="1323" y="323" on="0"/>
        <pt x="1413" y="350" on="0"/>
        <pt x="1502" y="384" on="0"/>
        <pt x="1541" y="401" on="1"/>
        <pt x="1559" y="383" on="0"/>
        <pt x="1589" y="346" on="0"/>
        <pt x="1613" y="299" on="0"/>
        <pt x="1630" y="241" on="0"/>
        <pt x="1634" y="204" on="1"/>
        <pt x="1623" y="192" on="0"/>
        <pt x="1577" y="149" on="0"/>
        <pt x="1511" y="99" on="0"/>
        <pt x="1426" y="48" on="0"/>
        <pt x="1327" y="7" on="0"/>
        <pt x="1215" y="-19" on="0"/>
        <pt x="1155" y="-19" on="1"/>
        <pt x="1007" y="-19" on="0"/>
        <pt x="802" y="106" on="0"/>
        <pt x="743" y="213" on="1"/>
        <pt x="716" y="145" on="0"/>
        <pt x="636" y="55" on="0"/>
        <pt x="542" y="1" on="0"/>
        <pt x="441" y="-22" on="0"/>
        <pt x="395" y="-22" on="1"/>
        <pt x="339" y="-22" on="0"/>
        <pt x="222" y="16" on="0"/>
        <pt x="126" y="99" on="0"/>
        <pt x="65" y="228" on="0"/>
      </contour>
      <contour>
        <pt x="1297" y="702" on="1"/>
        <pt x="1283" y="812" on="1"/>
        <pt x="1268" y="828" on="0"/>
        <pt x="1201" y="844" on="0"/>
        <pt x="1167" y="844" on="1"/>
        <pt x="1152" y="844" on="0"/>
        <pt x="1122" y="841" on="0"/>
        <pt x="1095" y="837" on="0"/>
        <pt x="1076" y="831" on="0"/>
        <pt x="1073" y="828" on="1"/>
        <pt x="1056" y="796" on="0"/>
        <pt x="1035" y="721" on="0"/>
        <pt x="1030" y="676" on="1"/>
      </contour>
      <contour>
        <pt x="435" y="365" on="1"/>
        <pt x="435" y="351" on="0"/>
        <pt x="442" y="322" on="0"/>
        <pt x="458" y="297" on="0"/>
        <pt x="484" y="280" on="0"/>
        <pt x="503" y="278" on="1"/>
        <pt x="522" y="281" on="0"/>
        <pt x="571" y="310" on="0"/>
        <pt x="617" y="351" on="0"/>
        <pt x="652" y="399" on="0"/>
        <pt x="656" y="422" on="1"/>
        <pt x="650" y="446" on="1"/>
        <pt x="621" y="449" on="0"/>
        <pt x="563" y="453" on="0"/>
        <pt x="537" y="453" on="1"/>
        <pt x="514" y="453" on="0"/>
        <pt x="478" y="450" on="0"/>
        <pt x="467" y="445" on="1"/>
        <pt x="456" y="432" on="0"/>
        <pt x="435" y="394" on="0"/>
      </contour>
    </TTGlyph>
    <TTGlyph name="agrave" xMin="65" yMin="-20" xMax="1178" yMax="1793">
      <component glyphName="a" x="0" y="0" flags="0x204"/>
      <component glyphName="grave" x="165" y="0" flags="0x4"/>
    </TTGlyph>
    <TTGlyph name="ampersand" xMin="69" yMin="-19" xMax="1385" yMax="1551">
      <contour>
        <pt x="69" y="417" on="1"/>
        <pt x="69" y="488" on="0"/>
        <pt x="115" y="595" on="0"/>
        <pt x="188" y="678" on="0"/>
        <pt x="280" y="742" on="0"/>
        <pt x="326" y="771" on="1"/>
        <pt x="292" y="792" on="0"/>
        <pt x="215" y="861" on="0"/>
        <pt x="151" y="950" on="0"/>
        <pt x="108" y="1057" on="0"/>
        <pt x="108" y="1117" on="1"/>
        <pt x="108" y="1232" on="0"/>
        <pt x="187" y="1397" on="0"/>
        <pt x="322" y="1502" on="0"/>
        <pt x="502" y="1551" on="0"/>
        <pt x="602" y="1551" on="1"/>
        <pt x="673" y="1551" on="0"/>
        <pt x="801" y="1540" on="0"/>
        <pt x="908" y="1516" on="0"/>
        <pt x="991" y="1475" on="0"/>
        <pt x="1016" y="1445" on="1"/>
        <pt x="1018" y="1431" on="0"/>
        <pt x="1021" y="1404" on="0"/>
        <pt x="1021" y="1390" on="1"/>
        <pt x="1021" y="1330" on="0"/>
        <pt x="978" y="1220" on="0"/>
        <pt x="942" y="1169" on="1"/>
        <pt x="890" y="1193" on="0"/>
        <pt x="784" y="1224" on="0"/>
        <pt x="693" y="1242" on="0"/>
        <pt x="624" y="1249" on="0"/>
        <pt x="609" y="1249" on="1"/>
        <pt x="574" y="1249" on="0"/>
        <pt x="509" y="1236" on="0"/>
        <pt x="484" y="1224" on="1"/>
        <pt x="479" y="1216" on="0"/>
        <pt x="471" y="1190" on="0"/>
        <pt x="466" y="1158" on="0"/>
        <pt x="464" y="1127" on="0"/>
        <pt x="464" y="1115" on="1"/>
        <pt x="476" y="1093" on="0"/>
        <pt x="515" y="1049" on="0"/>
        <pt x="563" y="1008" on="0"/>
        <pt x="619" y="969" on="0"/>
        <pt x="647" y="952" on="1"/>
        <pt x="656" y="958" on="1"/>
        <pt x="679" y="973" on="0"/>
        <pt x="762" y="1016" on="0"/>
        <pt x="864" y="1063" on="0"/>
        <pt x="975" y="1109" on="0"/>
        <pt x="1079" y="1146" on="0"/>
        <pt x="1167" y="1169" on="0"/>
        <pt x="1194" y="1169" on="1"/>
        <pt x="1221" y="1169" on="0"/>
        <pt x="1279" y="1153" on="0"/>
        <pt x="1328" y="1130" on="0"/>
        <pt x="1363" y="1103" on="0"/>
        <pt x="1368" y="1093" on="1"/>
        <pt x="1377" y="1074" on="0"/>
        <pt x="1385" y="1026" on="0"/>
        <pt x="1385" y="999" on="1"/>
        <pt x="1385" y="949" on="0"/>
        <pt x="1363" y="839" on="0"/>
        <pt x="1329" y="742" on="0"/>
        <pt x="1288" y="673" on="0"/>
        <pt x="1269" y="664" on="1"/>
        <pt x="1117" y="664" on="1"/>
        <pt x="1094" y="851" on="1"/>
        <pt x="1044" y="853" on="0"/>
        <pt x="936" y="825" on="0"/>
        <pt x="880" y="807" on="1"/>
        <pt x="951" y="756" on="0"/>
        <pt x="1047" y="661" on="0"/>
        <pt x="1105" y="570" on="0"/>
        <pt x="1130" y="481" on="0"/>
        <pt x="1130" y="436" on="1"/>
        <pt x="1130" y="332" on="0"/>
        <pt x="1053" y="164" on="0"/>
        <pt x="913" y="46" on="0"/>
        <pt x="720" y="-19" on="0"/>
        <pt x="605" y="-19" on="1"/>
        <pt x="501" y="-19" on="0"/>
        <pt x="308" y="37" on="0"/>
        <pt x="159" y="147" on="0"/>
        <pt x="69" y="310" on="0"/>
      </contour>
      <contour>
        <pt x="469" y="262" on="1"/>
        <pt x="496" y="253" on="0"/>
        <pt x="566" y="241" on="0"/>
        <pt x="604" y="241" on="1"/>
        <pt x="646" y="241" on="0"/>
        <pt x="726" y="261" on="0"/>
        <pt x="755" y="284" on="1"/>
        <pt x="760" y="294" on="0"/>
        <pt x="767" y="333" on="0"/>
        <pt x="772" y="377" on="0"/>
        <pt x="774" y="418" on="0"/>
        <pt x="774" y="430" on="1"/>
        <pt x="740" y="478" on="0"/>
        <pt x="624" y="582" on="0"/>
        <pt x="538" y="623" on="1"/>
        <pt x="515" y="609" on="0"/>
        <pt x="467" y="571" on="0"/>
        <pt x="422" y="525" on="0"/>
        <pt x="387" y="473" on="0"/>
        <pt x="378" y="446" on="1"/>
        <pt x="380" y="422" on="0"/>
        <pt x="395" y="368" on="0"/>
        <pt x="419" y="318" on="0"/>
        <pt x="451" y="275" on="0"/>
      </contour>
    </TTGlyph>
    <TTGlyph name="aring" xMin="65" yMin="-20" xMax="1178" yMax="1778">
      <component glyphName="a" x="0" y="0" flags="0x204"/>
      <component glyphName="ring" x="225" y="0" flags="0x4"/>
    </TTGlyph>
    <TTGlyph name="asciicircum" xMin="56" yMin="327" xMax="1150" yMax="1454">
      <contour>
        <pt x="282" y="327" on="1"/>
        <pt x="251" y="330" on="0"/>
        <pt x="182" y="356" on="0"/>
        <pt x="119" y="394" on="0"/>
        <pt x="68" y="439" on="0"/>
        <pt x="56" y="460" on="1"/>
        <pt x="63" y="483" on="0"/>
        <pt x="99" y="580" on="0"/>
        <pt x="149" y="709" on="0"/>
        <pt x="209" y="860" on="0"/>
        <pt x="272" y="1014" on="0"/>
        <pt x="333" y="1163" on="0"/>
        <pt x="387" y="1286" on="0"/>
        <pt x="428" y="1375" on="0"/>
        <pt x="439" y="1392" on="1"/>
        <pt x="454" y="1405" on="0"/>
        <pt x="519" y="1428" on="0"/>
        <pt x="601" y="1444" on="0"/>
        <pt x="688" y="1454" on="0"/>
        <pt x="726" y="1454" on="1"/>
        <pt x="741" y="1454" on="0"/>
        <pt x="772" y="1452" on="0"/>
        <pt x="786" y="1449" on="1"/>
        <pt x="1150" y="470" on="1"/>
        <pt x="1141" y="449" on="0"/>
        <pt x="1089" y="401" on="0"/>
        <pt x="1021" y="360" on="0"/>
        <pt x="949" y="330" on="0"/>
        <pt x="920" y="327" on="1"/>
        <pt x="576" y="956" on="1"/>
        <pt x="282" y="327" on="1"/>
      </contour>
    </TTGlyph>
    <TTGlyph name="asciitilde" xMin="37" yMin="368" xMax="1123" yMax="829">
      <contour>
        <pt x="158" y="371" on="1"/>
        <pt x="123" y="390" on="0"/>
        <pt x="63" y="459" on="0"/>
        <pt x="37" y="498" on="1"/>
        <pt x="46" y="563" on="0"/>
        <pt x="116" y="683" on="0"/>
        <pt x="215" y="774" on="0"/>
        <pt x="333" y="829" on="0"/>
        <pt x="390" y="829" on="1"/>
        <pt x="444" y="829" on="0"/>
        <pt x="548" y="807" on="0"/>
        <pt x="655" y="769" on="0"/>
        <pt x="766" y="719" on="0"/>
        <pt x="827" y="692" on="1"/>
        <pt x="1002" y="821" on="1"/>
        <pt x="1036" y="804" on="0"/>
        <pt x="1097" y="740" on="0"/>
        <pt x="1123" y="699" on="1"/>
        <pt x="1109" y="619" on="0"/>
        <pt x="1038" y="496" on="0"/>
        <pt x="941" y="412" on="0"/>
        <pt x="826" y="368" on="0"/>
        <pt x="769" y="368" on="1"/>
        <pt x="711" y="368" on="0"/>
        <pt x="605" y="381" on="0"/>
        <pt x="502" y="413" on="0"/>
        <pt x="397" y="465" on="0"/>
        <pt x="340" y="503" on="1"/>
        <pt x="158" y="371" on="1"/>
      </contour>
    </TTGlyph>
    <TTGlyph name="asterisk" xMin="60" yMin="565" xMax="1101" yMax="1677">
      <contour>
        <pt x="407" y="568" on="1"/>
        <pt x="355" y="565" on="0"/>
        <pt x="264" y="595" on="0"/>
        <pt x="191" y="648" on="0"/>
        <pt x="140" y="716" on="0"/>
        <pt x="127" y="751" on="1"/>
        <pt x="197" y="837" on="0"/>
        <pt x="360" y="971" on="0"/>
        <pt x="451" y="1022" on="1"/>
        <pt x="449" y="1034" on="1"/>
        <pt x="440" y="1034" on="0"/>
        <pt x="406" y="1032" on="0"/>
        <pt x="397" y="1032" on="1"/>
        <pt x="309" y="1032" on="0"/>
        <pt x="138" y="1053" on="0"/>
        <pt x="60" y="1078" on="1"/>
        <pt x="67" y="1118" on="0"/>
        <pt x="89" y="1210" on="0"/>
        <pt x="125" y="1300" on="0"/>
        <pt x="176" y="1385" on="0"/>
        <pt x="211" y="1418" on="1"/>
        <pt x="296" y="1368" on="0"/>
        <pt x="442" y="1244" on="0"/>
        <pt x="500" y="1164" on="1"/>
        <pt x="514" y="1172" on="1"/>
        <pt x="495" y="1202" on="0"/>
        <pt x="464" y="1288" on="0"/>
        <pt x="442" y="1385" on="0"/>
        <pt x="430" y="1483" on="0"/>
        <pt x="430" y="1524" on="1"/>
        <pt x="430" y="1544" on="0"/>
        <pt x="433" y="1580" on="0"/>
        <pt x="437" y="1594" on="1"/>
        <pt x="479" y="1632" on="0"/>
        <pt x="591" y="1677" on="0"/>
        <pt x="653" y="1677" on="1"/>
        <pt x="670" y="1677" on="0"/>
        <pt x="713" y="1673" on="0"/>
        <pt x="758" y="1665" on="0"/>
        <pt x="801" y="1653" on="0"/>
        <pt x="818" y="1644" on="1"/>
        <pt x="673" y="1164" on="1"/>
        <pt x="686" y="1153" on="1"/>
        <pt x="727" y="1186" on="0"/>
        <pt x="806" y="1245" on="0"/>
        <pt x="887" y="1302" on="0"/>
        <pt x="972" y="1359" on="0"/>
        <pt x="1019" y="1389" on="1"/>
        <pt x="1060" y="1351" on="0"/>
        <pt x="1101" y="1229" on="0"/>
        <pt x="1101" y="1161" on="1"/>
        <pt x="1101" y="1095" on="0"/>
        <pt x="1081" y="1033" on="1"/>
        <pt x="1042" y="1024" on="0"/>
        <pt x="957" y="1017" on="0"/>
        <pt x="922" y="1017" on="1"/>
        <pt x="864" y="1017" on="0"/>
        <pt x="742" y="1030" on="0"/>
        <pt x="697" y="1037" on="1"/>
        <pt x="692" y="1026" on="1"/>
        <pt x="778" y="977" on="0"/>
        <pt x="938" y="848" on="0"/>
        <pt x="1016" y="769" on="1"/>
        <pt x="967" y="681" on="0"/>
        <pt x="810" y="583" on="0"/>
        <pt x="715" y="585" on="1"/>
        <pt x="694" y="620" on="0"/>
        <pt x="649" y="707" on="0"/>
        <pt x="606" y="803" on="0"/>
        <pt x="566" y="905" on="0"/>
        <pt x="550" y="955" on="1"/>
        <pt x="536" y="957" on="1"/>
        <pt x="516" y="852" on="0"/>
        <pt x="453" y="659" on="0"/>
      </contour>
    </TTGlyph>
    <TTGlyph name="at" xMin="130" yMin="-244" xMax="1656" yMax="1326">
      <contour>
        <pt x="130" y="424" on="1"/>
        <pt x="130" y="543" on="0"/>
        <pt x="169" y="769" on="0"/>
        <pt x="249" y="970" on="0"/>
        <pt x="372" y="1137" on="0"/>
        <pt x="541" y="1258" on="0"/>
        <pt x="756" y="1326" on="0"/>
        <pt x="888" y="1326" on="1"/>
        <pt x="1072" y="1326" on="0"/>
        <pt x="1325" y="1251" on="0"/>
        <pt x="1480" y="1117" on="0"/>
        <pt x="1548" y="931" on="0"/>
        <pt x="1548" y="820" on="1"/>
        <pt x="1548" y="764" on="0"/>
        <pt x="1532" y="627" on="0"/>
        <pt x="1502" y="491" on="0"/>
        <pt x="1461" y="371" on="0"/>
        <pt x="1436" y="334" on="1"/>
        <pt x="1404" y="320" on="0"/>
        <pt x="1317" y="304" on="0"/>
        <pt x="1275" y="304" on="1"/>
        <pt x="1222" y="304" on="0"/>
        <pt x="1186" y="310" on="1"/>
        <pt x="1204" y="376" on="0"/>
        <pt x="1236" y="542" on="0"/>
        <pt x="1264" y="718" on="0"/>
        <pt x="1287" y="894" on="0"/>
        <pt x="1295" y="970" on="1"/>
        <pt x="1265" y="997" on="0"/>
        <pt x="1180" y="1025" on="0"/>
        <pt x="1133" y="1025" on="1"/>
        <pt x="1104" y="1025" on="0"/>
        <pt x="1048" y="1014" on="0"/>
        <pt x="1022" y="1003" on="1"/>
        <pt x="1016" y="829" on="1"/>
        <pt x="996" y="882" on="0"/>
        <pt x="937" y="960" on="0"/>
        <pt x="870" y="1011" on="0"/>
        <pt x="802" y="1036" on="0"/>
        <pt x="773" y="1036" on="1"/>
        <pt x="703" y="1036" on="0"/>
        <pt x="593" y="982" on="0"/>
        <pt x="509" y="891" on="0"/>
        <pt x="450" y="771" on="0"/>
        <pt x="413" y="640" on="0"/>
        <pt x="396" y="505" on="0"/>
        <pt x="396" y="445" on="1"/>
        <pt x="396" y="373" on="0"/>
        <pt x="419" y="235" on="0"/>
        <pt x="476" y="126" on="0"/>
        <pt x="573" y="60" on="0"/>
        <pt x="647" y="60" on="1"/>
        <pt x="697" y="60" on="0"/>
        <pt x="783" y="108" on="0"/>
        <pt x="858" y="195" on="0"/>
        <pt x="923" y="315" on="0"/>
        <pt x="950" y="388" on="1"/>
        <pt x="977" y="381" on="1"/>
        <pt x="973" y="371" on="0"/>
        <pt x="961" y="319" on="0"/>
        <pt x="948" y="262" on="0"/>
        <pt x="939" y="211" on="0"/>
        <pt x="938" y="203" on="1"/>
        <pt x="937" y="198" on="0"/>
        <pt x="937" y="190" on="0"/>
        <pt x="937" y="186" on="1"/>
        <pt x="937" y="132" on="0"/>
        <pt x="1000" y="60" on="0"/>
        <pt x="1065" y="60" on="1"/>
        <pt x="1105" y="60" on="0"/>
        <pt x="1224" y="70" on="0"/>
        <pt x="1365" y="106" on="0"/>
        <pt x="1524" y="174" on="0"/>
        <pt x="1605" y="233" on="1"/>
        <pt x="1631" y="184" on="0"/>
        <pt x="1656" y="90" on="0"/>
        <pt x="1656" y="42" on="1"/>
        <pt x="1656" y="1" on="0"/>
        <pt x="1645" y="-45" on="1"/>
        <pt x="1610" y="-79" on="0"/>
        <pt x="1469" y="-148" on="0"/>
        <pt x="1289" y="-203" on="0"/>
        <pt x="1084" y="-240" on="0"/>
        <pt x="985" y="-243" on="1"/>
        <pt x="972" y="-244" on="0"/>
        <pt x="947" y="-244" on="0"/>
        <pt x="934" y="-244" on="1"/>
        <pt x="745" y="-244" on="0"/>
        <pt x="446" y="-164" on="0"/>
        <pt x="239" y="1" on="0"/>
        <pt x="130" y="253" on="0"/>
      </contour>
      <contour>
        <pt x="744" y="309" on="1"/>
        <pt x="738" y="309" on="0"/>
        <pt x="730" y="348" on="0"/>
        <pt x="725" y="400" on="0"/>
        <pt x="722" y="454" on="0"/>
        <pt x="722" y="468" on="1"/>
        <pt x="722" y="509" on="0"/>
        <pt x="730" y="598" on="0"/>
        <pt x="745" y="675" on="0"/>
        <pt x="765" y="734" on="0"/>
        <pt x="778" y="745" on="1"/>
        <pt x="786" y="747" on="0"/>
        <pt x="809" y="750" on="0"/>
        <pt x="824" y="750" on="1"/>
        <pt x="850" y="750" on="0"/>
        <pt x="923" y="733" on="0"/>
        <pt x="968" y="707" on="1"/>
        <pt x="969" y="702" on="0"/>
        <pt x="969" y="689" on="0"/>
        <pt x="969" y="680" on="1"/>
        <pt x="969" y="654" on="0"/>
        <pt x="964" y="585" on="0"/>
        <pt x="957" y="558" on="1"/>
        <pt x="936" y="517" on="0"/>
        <pt x="871" y="430" on="0"/>
        <pt x="807" y="356" on="0"/>
        <pt x="754" y="309" on="0"/>
      </contour>
    </TTGlyph>
    <TTGlyph name="atilde" xMin="65" yMin="-20" xMax="1178" yMax="1657">
      <component glyphName="a" x="0" y="0" flags="0x204"/>
      <component glyphName="tilde" x="94" y="0" flags="0x4"/>
    </TTGlyph>
    <TTGlyph name="b" xMin="-8" yMin="-20" xMax="1182" yMax="1623">
      <contour>
        <pt x="129" y="34" on="1"/>
        <pt x="124" y="87" on="0"/>
        <pt x="117" y="216" on="0"/>
        <pt x="112" y="362" on="0"/>
        <pt x="110" y="522" on="0"/>
        <pt x="110" y="605" on="1"/>
        <pt x="110" y="693" on="0"/>
        <pt x="113" y="873" on="0"/>
        <pt x="117" y="1048" on="0"/>
        <pt x="124" y="1214" on="0"/>
        <pt x="129" y="1288" on="1"/>
        <pt x="16" y="1308" on="1"/>
        <pt x="3" y="1357" on="0"/>
        <pt x="-8" y="1455" on="0"/>
        <pt x="-8" y="1506" on="1"/>
        <pt x="1" y="1518" on="0"/>
        <pt x="52" y="1558" on="0"/>
        <pt x="123" y="1596" on="0"/>
        <pt x="208" y="1623" on="0"/>
        <pt x="252" y="1623" on="1"/>
        <pt x="376" y="1623" on="0"/>
        <pt x="495" y="1498" on="0"/>
        <pt x="495" y="1367" on="1"/>
        <pt x="495" y="1337" on="0"/>
        <pt x="489" y="1221" on="0"/>
        <pt x="477" y="1072" on="0"/>
        <pt x="457" y="903" on="0"/>
        <pt x="443" y="820" on="1"/>
        <pt x="415" y="650" on="1"/>
        <pt x="447" y="639" on="1"/>
        <pt x="481" y="771" on="1"/>
        <pt x="503" y="855" on="0"/>
        <pt x="571" y="1006" on="0"/>
        <pt x="667" y="1119" on="0"/>
        <pt x="793" y="1185" on="0"/>
        <pt x="871" y="1185" on="1"/>
        <pt x="958" y="1185" on="0"/>
        <pt x="1076" y="1126" on="0"/>
        <pt x="1150" y="1030" on="0"/>
        <pt x="1182" y="907" on="0"/>
        <pt x="1182" y="842" on="1"/>
        <pt x="1182" y="779" on="0"/>
        <pt x="1169" y="634" on="0"/>
        <pt x="1146" y="484" on="0"/>
        <pt x="1114" y="335" on="0"/>
        <pt x="1094" y="267" on="1"/>
        <pt x="1075" y="203" on="0"/>
        <pt x="1012" y="98" on="0"/>
        <pt x="923" y="22" on="0"/>
        <pt x="809" y="-20" on="0"/>
        <pt x="739" y="-20" on="1"/>
        <pt x="694" y="-20" on="0"/>
        <pt x="530" y="16" on="0"/>
        <pt x="419" y="65" on="1"/>
        <pt x="405" y="43" on="0"/>
        <pt x="368" y="-7" on="0"/>
        <pt x="353" y="-20" on="1"/>
        <pt x="290" y="-20" on="0"/>
        <pt x="204" y="-4" on="0"/>
        <pt x="178" y="7" on="1"/>
        <pt x="147" y="18" on="0"/>
      </contour>
      <contour>
        <pt x="483" y="331" on="1"/>
        <pt x="513" y="310" on="0"/>
        <pt x="582" y="278" on="0"/>
        <pt x="648" y="256" on="0"/>
        <pt x="703" y="244" on="0"/>
        <pt x="720" y="244" on="1"/>
        <pt x="732" y="244" on="0"/>
        <pt x="735" y="246" on="1"/>
        <pt x="747" y="289" on="0"/>
        <pt x="761" y="395" on="0"/>
        <pt x="768" y="504" on="0"/>
        <pt x="771" y="611" on="0"/>
        <pt x="771" y="655" on="1"/>
        <pt x="771" y="675" on="0"/>
        <pt x="769" y="714" on="0"/>
        <pt x="766" y="731" on="1"/>
        <pt x="743" y="760" on="0"/>
        <pt x="700" y="760" on="1"/>
        <pt x="695" y="756" on="0"/>
        <pt x="665" y="709" on="0"/>
        <pt x="625" y="640" on="0"/>
        <pt x="578" y="557" on="0"/>
        <pt x="533" y="475" on="0"/>
        <pt x="495" y="403" on="0"/>
        <pt x="483" y="379" on="1"/>
      </contour>
    </TTGlyph>
    <TTGlyph name="backslash" xMin="16" yMin="-111" xMax="685" yMax="1612">
      <component glyphName="slash" x="785" y="0" scalex="-0.999938964844" scaley="1.0" flags="0x4"/>
    </TTGlyph>
    <TTGlyph name="bar" xMin="144" yMin="-314" xMax="492" yMax="1849">
      <contour>
        <pt x="144" y="1796" on="1"/>
        <pt x="161" y="1808" on="0"/>
        <pt x="218" y="1828" on="0"/>
        <pt x="285" y="1841" on="0"/>
        <pt x="359" y="1849" on="0"/>
        <pt x="394" y="1849" on="1"/>
        <pt x="451" y="1849" on="0"/>
        <pt x="492" y="1838" on="1"/>
        <pt x="482" y="-289" on="1"/>
        <pt x="443" y="-301" on="0"/>
        <pt x="367" y="-314" on="0"/>
        <pt x="330" y="-314" on="1"/>
        <pt x="263" y="-314" on="0"/>
        <pt x="202" y="-293" on="1"/>
      </contour>
    </TTGlyph>
    <TTGlyph name="braceleft" xMin="127" yMin="-292" xMax="942" yMax="1845">
      <contour>
        <pt x="437" y="566" on="1"/>
        <pt x="417" y="583" on="1"/>
        <pt x="387" y="559" on="0"/>
        <pt x="313" y="529" on="0"/>
        <pt x="268" y="526" on="1"/>
        <pt x="239" y="534" on="0"/>
        <pt x="187" y="584" on="0"/>
        <pt x="149" y="653" on="0"/>
        <pt x="127" y="733" on="0"/>
        <pt x="127" y="771" on="1"/>
        <pt x="127" y="800" on="0"/>
        <pt x="136" y="859" on="0"/>
        <pt x="153" y="910" on="0"/>
        <pt x="177" y="949" on="0"/>
        <pt x="192" y="959" on="1"/>
        <pt x="199" y="959" on="0"/>
        <pt x="247" y="946" on="0"/>
        <pt x="309" y="927" on="0"/>
        <pt x="375" y="906" on="0"/>
        <pt x="402" y="898" on="1"/>
        <pt x="434" y="932" on="1"/>
        <pt x="370" y="1503" on="1"/>
        <pt x="367" y="1532" on="0"/>
        <pt x="363" y="1584" on="0"/>
        <pt x="363" y="1607" on="1"/>
        <pt x="363" y="1673" on="0"/>
        <pt x="393" y="1760" on="0"/>
        <pt x="457" y="1812" on="0"/>
        <pt x="560" y="1835" on="0"/>
        <pt x="634" y="1837" on="1"/>
        <pt x="912" y="1845" on="1"/>
        <pt x="922" y="1797" on="0"/>
        <pt x="942" y="1705" on="0"/>
        <pt x="941" y="1657" on="1"/>
        <pt x="921" y="1640" on="0"/>
        <pt x="878" y="1612" on="0"/>
        <pt x="826" y="1588" on="0"/>
        <pt x="764" y="1566" on="0"/>
        <pt x="725" y="1556" on="1"/>
        <pt x="751" y="1045" on="1"/>
        <pt x="753" y="1000" on="0"/>
        <pt x="720" y="921" on="0"/>
        <pt x="660" y="853" on="0"/>
        <pt x="580" y="794" on="0"/>
        <pt x="536" y="769" on="1"/>
        <pt x="536" y="754" on="1"/>
        <pt x="577" y="734" on="0"/>
        <pt x="655" y="683" on="0"/>
        <pt x="715" y="614" on="0"/>
        <pt x="748" y="524" on="0"/>
        <pt x="744" y="465" on="1"/>
        <pt x="715" y="-16" on="1"/>
        <pt x="777" y="-20" on="0"/>
        <pt x="863" y="-60" on="0"/>
        <pt x="882" y="-84" on="1"/>
        <pt x="882" y="-117" on="0"/>
        <pt x="877" y="-172" on="0"/>
        <pt x="868" y="-221" on="0"/>
        <pt x="854" y="-267" on="0"/>
        <pt x="844" y="-292" on="1"/>
        <pt x="575" y="-292" on="1"/>
        <pt x="519" y="-292" on="0"/>
        <pt x="448" y="-257" on="0"/>
        <pt x="408" y="-198" on="0"/>
        <pt x="393" y="-121" on="0"/>
        <pt x="393" y="-80" on="1"/>
        <pt x="393" y="-68" on="0"/>
        <pt x="394" y="-44" on="0"/>
        <pt x="395" y="-32" on="1"/>
      </contour>
    </TTGlyph>
    <TTGlyph name="braceright" xMin="20" yMin="-292" xMax="835" yMax="1845">
      <component glyphName="braceleft" x="962" y="0" scalex="-0.999938964844" scaley="1.0" flags="0x4"/>
    </TTGlyph>
    <TTGlyph name="bracketleft" xMin="127" yMin="-292" xMax="706" yMax="1845">
      <contour>
        <pt x="128" y="1710" on="1"/>
        <pt x="127" y="1731" on="0"/>
        <pt x="147" y="1773" on="0"/>
        <pt x="179" y="1808" on="0"/>
        <pt x="219" y="1831" on="0"/>
        <pt x="240" y="1832" on="1"/>
        <pt x="687" y="1845" on="1"/>
        <pt x="696" y="1797" on="0"/>
        <pt x="706" y="1705" on="0"/>
        <pt x="705" y="1657" on="1"/>
        <pt x="665" y="1623" on="0"/>
        <pt x="555" y="1575" on="0"/>
        <pt x="477" y="1556" on="1"/>
        <pt x="467" y="-28" on="1"/>
        <pt x="470" y="-28" on="1"/>
        <pt x="539" y="-28" on="0"/>
        <pt x="633" y="-72" on="0"/>
        <pt x="652" y="-96" on="1"/>
        <pt x="652" y="-129" on="0"/>
        <pt x="647" y="-180" on="0"/>
        <pt x="638" y="-225" on="0"/>
        <pt x="624" y="-267" on="0"/>
        <pt x="614" y="-292" on="1"/>
        <pt x="367" y="-292" on="1"/>
        <pt x="303" y="-292" on="0"/>
        <pt x="232" y="-247" on="0"/>
        <pt x="197" y="-173" on="0"/>
        <pt x="188" y="-80" on="0"/>
        <pt x="187" y="-33" on="1"/>
      </contour>
    </TTGlyph>
    <TTGlyph name="bracketright" xMin="40" yMin="-292" xMax="619" yMax="1845">
      <component glyphName="bracketleft" x="746" y="0" scalex="-0.999938964844" scaley="1.0" flags="0x4"/>
    </TTGlyph>
    <TTGlyph name="brokenbar" xMin="144" yMin="-314" xMax="492" yMax="1849">
      <contour>
        <pt x="144" y="1796" on="1"/>
        <pt x="161" y="1808" on="0"/>
        <pt x="218" y="1828" on="0"/>
        <pt x="285" y="1841" on="0"/>
        <pt x="359" y="1849" on="0"/>
        <pt x="394" y="1849" on="1"/>
        <pt x="451" y="1849" on="0"/>
        <pt x="492" y="1838" on="1"/>
        <pt x="486" y="796" on="1"/>
        <pt x="452" y="785" on="0"/>
        <pt x="383" y="775" on="0"/>
        <pt x="348" y="775" on="1"/>
        <pt x="303" y="775" on="0"/>
        <pt x="215" y="787" on="0"/>
        <pt x="173" y="793" on="1"/>
      </contour>
      <contour>
        <pt x="180" y="513" on="1"/>
        <pt x="208" y="521" on="0"/>
        <pt x="264" y="528" on="0"/>
        <pt x="293" y="528" on="1"/>
        <pt x="344" y="528" on="0"/>
        <pt x="441" y="509" on="0"/>
        <pt x="486" y="493" on="1"/>
        <pt x="482" y="-289" on="1"/>
        <pt x="443" y="-301" on="0"/>
        <pt x="367" y="-314" on="0"/>
        <pt x="330" y="-314" on="1"/>
        <pt x="263" y="-314" on="0"/>
        <pt x="202" y="-293" on="1"/>
      </contour>
    </TTGlyph>
    <TTGlyph name="bullet" xMin="84" yMin="303" xMax="718" yMax="918">
      <contour>
        <pt x="401" y="303" on="1"/>
        <pt x="341" y="303" on="0"/>
        <pt x="227" y="351" on="0"/>
        <pt x="138" y="437" on="0"/>
        <pt x="84" y="553" on="0"/>
        <pt x="84" y="622" on="1"/>
        <pt x="84" y="675" on="0"/>
        <pt x="116" y="781" on="0"/>
        <pt x="191" y="865" on="0"/>
        <pt x="312" y="918" on="0"/>
        <pt x="401" y="918" on="1"/>
        <pt x="490" y="918" on="0"/>
        <pt x="611" y="865" on="0"/>
        <pt x="686" y="781" on="0"/>
        <pt x="718" y="675" on="0"/>
        <pt x="718" y="622" on="1"/>
        <pt x="718" y="553" on="0"/>
        <pt x="664" y="437" on="0"/>
        <pt x="575" y="351" on="0"/>
        <pt x="461" y="303" on="0"/>
      </contour>
    </TTGlyph>
    <TTGlyph name="c" xMin="61" yMin="-20" xMax="1031" yMax="1185">
      <contour>
        <pt x="577" y="-20" on="1"/>
        <pt x="450" y="-20" on="0"/>
        <pt x="257" y="74" on="0"/>
        <pt x="127" y="238" on="0"/>
        <pt x="61" y="456" on="0"/>
        <pt x="61" y="581" on="1"/>
        <pt x="61" y="706" on="0"/>
        <pt x="124" y="926" on="0"/>
        <pt x="256" y="1090" on="0"/>
        <pt x="460" y="1185" on="0"/>
        <pt x="602" y="1185" on="1"/>
        <pt x="629" y="1185" on="0"/>
        <pt x="698" y="1182" on="0"/>
        <pt x="776" y="1175" on="0"/>
        <pt x="859" y="1163" on="0"/>
        <pt x="899" y="1155" on="1"/>
        <pt x="923" y="1138" on="0"/>
        <pt x="958" y="1114" on="0"/>
        <pt x="988" y="1089" on="0"/>
        <pt x="1016" y="1061" on="0"/>
        <pt x="1031" y="1040" on="1"/>
        <pt x="1031" y="1013" on="0"/>
        <pt x="1023" y="935" on="0"/>
        <pt x="1010" y="848" on="0"/>
        <pt x="992" y="759" on="0"/>
        <pt x="971" y="682" on="0"/>
        <pt x="949" y="624" on="0"/>
        <pt x="938" y="612" on="1"/>
        <pt x="921" y="603" on="0"/>
        <pt x="863" y="595" on="0"/>
        <pt x="831" y="595" on="1"/>
        <pt x="796" y="595" on="0"/>
        <pt x="733" y="605" on="0"/>
        <pt x="716" y="615" on="1"/>
        <pt x="695" y="800" on="1"/>
        <pt x="687" y="809" on="0"/>
        <pt x="647" y="824" on="0"/>
        <pt x="598" y="833" on="0"/>
        <pt x="547" y="838" on="0"/>
        <pt x="528" y="838" on="1"/>
        <pt x="520" y="838" on="0"/>
        <pt x="507" y="837" on="0"/>
        <pt x="502" y="836" on="1"/>
        <pt x="490" y="812" on="0"/>
        <pt x="473" y="749" on="0"/>
        <pt x="461" y="678" on="0"/>
        <pt x="455" y="603" on="0"/>
        <pt x="455" y="567" on="1"/>
        <pt x="455" y="528" on="0"/>
        <pt x="465" y="436" on="0"/>
        <pt x="502" y="357" on="0"/>
        <pt x="575" y="304" on="0"/>
        <pt x="638" y="304" on="1"/>
        <pt x="675" y="304" on="0"/>
        <pt x="749" y="322" on="0"/>
        <pt x="822" y="349" on="0"/>
        <pt x="895" y="383" on="0"/>
        <pt x="933" y="400" on="1"/>
        <pt x="951" y="382" on="0"/>
        <pt x="981" y="345" on="0"/>
        <pt x="1005" y="298" on="0"/>
        <pt x="1022" y="240" on="0"/>
        <pt x="1026" y="203" on="1"/>
        <pt x="1015" y="190" on="0"/>
        <pt x="974" y="148" on="0"/>
        <pt x="914" y="98" on="0"/>
        <pt x="837" y="47" on="0"/>
        <pt x="744" y="6" on="0"/>
        <pt x="637" y="-20" on="0"/>
      </contour>
    </TTGlyph>
    <TTGlyph name="cacute" xMin="61" yMin="-20" xMax="1031" yMax="1793">
      <component glyphName="c" x="0" y="0" flags="0x204"/>
      <component glyphName="acute" x="356" y="0" flags="0x4"/>
    </TTGlyph>
    <TTGlyph name="caron" xMin="50" yMin="1294" xMax="831" yMax="1767">
      <contour>
        <pt x="50" y="1519" on="1"/>
        <pt x="51" y="1538" on="0"/>
        <pt x="76" y="1588" on="0"/>
        <pt x="116" y="1640" on="0"/>
        <pt x="167" y="1690" on="0"/>
        <pt x="222" y="1728" on="0"/>
        <pt x="277" y="1750" on="0"/>
        <pt x="301" y="1748" on="1"/>
        <pt x="453" y="1541" on="1"/>
        <pt x="486" y="1581" on="0"/>
        <pt x="537" y="1643" on="0"/>
        <pt x="587" y="1694" on="0"/>
        <pt x="643" y="1741" on="0"/>
        <pt x="681" y="1767" on="1"/>
        <pt x="700" y="1758" on="0"/>
        <pt x="745" y="1727" on="0"/>
        <pt x="787" y="1689" on="0"/>
        <pt x="822" y="1647" on="0"/>
        <pt x="831" y="1629" on="1"/>
        <pt x="545" y="1300" on="1"/>
        <pt x="528" y="1297" on="0"/>
        <pt x="477" y="1294" on="0"/>
        <pt x="448" y="1294" on="1"/>
        <pt x="428" y="1294" on="0"/>
        <pt x="386" y="1295" on="0"/>
        <pt x="348" y="1298" on="0"/>
        <pt x="315" y="1302" on="0"/>
        <pt x="303" y="1305" on="1"/>
      </contour>
    </TTGlyph>
    <TTGlyph name="caron.cap" xMin="50" yMin="1628" xMax="798" yMax="2020">
      <contour>
        <pt x="50" y="1804" on="1"/>
        <pt x="51" y="1822" on="0"/>
        <pt x="73" y="1867" on="0"/>
        <pt x="108" y="1912" on="0"/>
        <pt x="153" y="1954" on="0"/>
        <pt x="203" y="1986" on="0"/>
        <pt x="253" y="2004" on="0"/>
        <pt x="276" y="2002" on="1"/>
        <pt x="444" y="1841" on="1"/>
        <pt x="485" y="1895" on="0"/>
        <pt x="578" y="1980" on="0"/>
        <pt x="638" y="2020" on="1"/>
        <pt x="657" y="2012" on="0"/>
        <pt x="705" y="1982" on="0"/>
        <pt x="751" y="1945" on="0"/>
        <pt x="789" y="1906" on="0"/>
        <pt x="798" y="1888" on="1"/>
        <pt x="559" y="1642" on="1"/>
        <pt x="547" y="1639" on="0"/>
        <pt x="505" y="1633" on="0"/>
        <pt x="452" y="1630" on="0"/>
        <pt x="393" y="1628" on="0"/>
        <pt x="365" y="1628" on="1"/>
        <pt x="330" y="1628" on="0"/>
        <pt x="270" y="1631" on="0"/>
        <pt x="255" y="1634" on="1"/>
      </contour>
    </TTGlyph>
    <TTGlyph name="ccedilla" xMin="61" yMin="-432" xMax="1031" yMax="1185">
      <contour>
        <pt x="380" y="-298" on="1"/>
        <pt x="390" y="-266" on="0"/>
        <pt x="424" y="-228" on="0"/>
        <pt x="450" y="-211" on="1"/>
        <pt x="488" y="-234" on="0"/>
        <pt x="544" y="-264" on="0"/>
        <pt x="586" y="-282" on="0"/>
        <pt x="616" y="-289" on="0"/>
        <pt x="628" y="-289" on="1"/>
        <pt x="639" y="-289" on="0"/>
        <pt x="659" y="-284" on="0"/>
        <pt x="670" y="-280" on="1"/>
        <pt x="681" y="-270" on="0"/>
        <pt x="689" y="-230" on="0"/>
        <pt x="677" y="-217" on="1"/>
        <pt x="653" y="-212" on="0"/>
        <pt x="602" y="-208" on="0"/>
        <pt x="553" y="-201" on="0"/>
        <pt x="510" y="-187" on="0"/>
        <pt x="494" y="-173" on="1"/>
        <pt x="490" y="-159" on="0"/>
        <pt x="487" y="-129" on="0"/>
        <pt x="487" y="-113" on="1"/>
        <pt x="487" y="-63" on="0"/>
        <pt x="504" y="-15" on="1"/>
        <pt x="394" y="-2" on="0"/>
        <pt x="229" y="101" on="0"/>
        <pt x="117" y="260" on="0"/>
        <pt x="61" y="465" on="0"/>
        <pt x="61" y="581" on="1"/>
        <pt x="61" y="706" on="0"/>
        <pt x="124" y="926" on="0"/>
        <pt x="256" y="1090" on="0"/>
        <pt x="460" y="1185" on="0"/>
        <pt x="602" y="1185" on="1"/>
        <pt x="629" y="1185" on="0"/>
        <pt x="698" y="1182" on="0"/>
        <pt x="776" y="1175" on="0"/>
        <pt x="859" y="1163" on="0"/>
        <pt x="899" y="1155" on="1"/>
        <pt x="923" y="1138" on="0"/>
        <pt x="958" y="1114" on="0"/>
        <pt x="988" y="1089" on="0"/>
        <pt x="1016" y="1061" on="0"/>
        <pt x="1031" y="1040" on="1"/>
        <pt x="1031" y="1013" on="0"/>
        <pt x="1023" y="935" on="0"/>
        <pt x="1010" y="848" on="0"/>
        <pt x="992" y="759" on="0"/>
        <pt x="971" y="682" on="0"/>
        <pt x="949" y="624" on="0"/>
        <pt x="938" y="612" on="1"/>
        <pt x="921" y="603" on="0"/>
        <pt x="863" y="595" on="0"/>
        <pt x="831" y="595" on="1"/>
        <pt x="796" y="595" on="0"/>
        <pt x="733" y="605" on="0"/>
        <pt x="716" y="615" on="1"/>
        <pt x="695" y="800" on="1"/>
        <pt x="687" y="809" on="0"/>
        <pt x="647" y="824" on="0"/>
        <pt x="598" y="833" on="0"/>
        <pt x="547" y="838" on="0"/>
        <pt x="528" y="838" on="1"/>
        <pt x="520" y="838" on="0"/>
        <pt x="507" y="837" on="0"/>
        <pt x="502" y="836" on="1"/>
        <pt x="490" y="812" on="0"/>
        <pt x="473" y="749" on="0"/>
        <pt x="461" y="678" on="0"/>
        <pt x="455" y="603" on="0"/>
        <pt x="455" y="567" on="1"/>
        <pt x="455" y="528" on="0"/>
        <pt x="465" y="436" on="0"/>
        <pt x="502" y="357" on="0"/>
        <pt x="575" y="304" on="0"/>
        <pt x="638" y="304" on="1"/>
        <pt x="675" y="304" on="0"/>
        <pt x="749" y="322" on="0"/>
        <pt x="822" y="349" on="0"/>
        <pt x="895" y="383" on="0"/>
        <pt x="933" y="400" on="1"/>
        <pt x="951" y="382" on="0"/>
        <pt x="981" y="345" on="0"/>
        <pt x="1005" y="298" on="0"/>
        <pt x="1022" y="240" on="0"/>
        <pt x="1026" y="203" on="1"/>
        <pt x="1012" y="186" on="0"/>
        <pt x="948" y="123" on="0"/>
        <pt x="852" y="56" on="0"/>
        <pt x="728" y="-2" on="0"/>
        <pt x="654" y="-14" on="1"/>
        <pt x="654" y="-35" on="1"/>
        <pt x="654" y="-57" on="0"/>
        <pt x="657" y="-64" on="1"/>
        <pt x="666" y="-61" on="0"/>
        <pt x="693" y="-54" on="0"/>
        <pt x="721" y="-50" on="0"/>
        <pt x="745" y="-46" on="0"/>
        <pt x="751" y="-46" on="1"/>
        <pt x="758" y="-46" on="0"/>
        <pt x="798" y="-56" on="0"/>
        <pt x="841" y="-85" on="0"/>
        <pt x="875" y="-136" on="0"/>
        <pt x="875" y="-177" on="1"/>
        <pt x="875" y="-239" on="0"/>
        <pt x="830" y="-334" on="0"/>
        <pt x="756" y="-399" on="0"/>
        <pt x="663" y="-432" on="0"/>
        <pt x="614" y="-432" on="1"/>
        <pt x="581" y="-432" on="0"/>
        <pt x="507" y="-422" on="0"/>
        <pt x="440" y="-394" on="0"/>
        <pt x="389" y="-341" on="0"/>
      </contour>
    </TTGlyph>
    <TTGlyph name="cedilla" xMin="50" yMin="-432" xMax="545" yMax="82">
      <contour>
        <pt x="157" y="-113" on="1"/>
        <pt x="157" y="-85" on="0"/>
        <pt x="168" y="-28" on="0"/>
        <pt x="190" y="24" on="0"/>
        <pt x="222" y="68" on="0"/>
        <pt x="243" y="82" on="1"/>
        <pt x="329" y="59" on="1"/>
        <pt x="329" y="54" on="0"/>
        <pt x="327" y="32" on="0"/>
        <pt x="326" y="6" on="0"/>
        <pt x="324" y="-23" on="0"/>
        <pt x="324" y="-35" on="1"/>
        <pt x="324" y="-57" on="0"/>
        <pt x="327" y="-64" on="1"/>
        <pt x="336" y="-61" on="0"/>
        <pt x="363" y="-54" on="0"/>
        <pt x="391" y="-50" on="0"/>
        <pt x="415" y="-46" on="0"/>
        <pt x="421" y="-46" on="1"/>
        <pt x="428" y="-46" on="0"/>
        <pt x="468" y="-56" on="0"/>
        <pt x="511" y="-85" on="0"/>
        <pt x="545" y="-136" on="0"/>
        <pt x="545" y="-177" on="1"/>
        <pt x="545" y="-239" on="0"/>
        <pt x="500" y="-334" on="0"/>
        <pt x="426" y="-399" on="0"/>
        <pt x="333" y="-432" on="0"/>
        <pt x="284" y="-432" on="1"/>
        <pt x="251" y="-432" on="0"/>
        <pt x="177" y="-422" on="0"/>
        <pt x="110" y="-394" on="0"/>
        <pt x="59" y="-341" on="0"/>
        <pt x="50" y="-298" on="1"/>
        <pt x="60" y="-266" on="0"/>
        <pt x="94" y="-228" on="0"/>
        <pt x="120" y="-211" on="1"/>
        <pt x="158" y="-234" on="0"/>
        <pt x="214" y="-264" on="0"/>
        <pt x="256" y="-282" on="0"/>
        <pt x="286" y="-289" on="0"/>
        <pt x="298" y="-289" on="1"/>
        <pt x="309" y="-289" on="0"/>
        <pt x="329" y="-284" on="0"/>
        <pt x="340" y="-280" on="1"/>
        <pt x="351" y="-270" on="0"/>
        <pt x="359" y="-230" on="0"/>
        <pt x="347" y="-217" on="1"/>
        <pt x="323" y="-212" on="0"/>
        <pt x="272" y="-208" on="0"/>
        <pt x="223" y="-201" on="0"/>
        <pt x="180" y="-187" on="0"/>
        <pt x="164" y="-173" on="1"/>
        <pt x="160" y="-159" on="0"/>
        <pt x="157" y="-129" on="0"/>
      </contour>
    </TTGlyph>
    <TTGlyph name="cent" xMin="69" yMin="-309" xMax="1039" yMax="1611">
      <contour>
        <pt x="440" y="-1" on="1"/>
        <pt x="348" y="23" on="0"/>
        <pt x="210" y="132" on="0"/>
        <pt x="116" y="286" on="0"/>
        <pt x="69" y="476" on="0"/>
        <pt x="69" y="581" on="1"/>
        <pt x="69" y="683" on="0"/>
        <pt x="111" y="869" on="0"/>
        <pt x="198" y="1020" on="0"/>
        <pt x="332" y="1131" on="0"/>
        <pt x="425" y="1159" on="1"/>
        <pt x="391" y="1535" on="1"/>
        <pt x="411" y="1549" on="0"/>
        <pt x="474" y="1577" on="0"/>
        <pt x="548" y="1598" on="0"/>
        <pt x="628" y="1611" on="0"/>
        <pt x="665" y="1611" on="1"/>
        <pt x="694" y="1611" on="0"/>
        <pt x="744" y="1603" on="0"/>
        <pt x="764" y="1592" on="1"/>
        <pt x="766" y="1515" on="0"/>
        <pt x="750" y="1303" on="0"/>
        <pt x="739" y="1179" on="1"/>
        <pt x="779" y="1175" on="0"/>
        <pt x="865" y="1163" on="0"/>
        <pt x="907" y="1155" on="1"/>
        <pt x="931" y="1138" on="0"/>
        <pt x="966" y="1114" on="0"/>
        <pt x="996" y="1089" on="0"/>
        <pt x="1024" y="1061" on="0"/>
        <pt x="1039" y="1040" on="1"/>
        <pt x="1039" y="1013" on="0"/>
        <pt x="1031" y="935" on="0"/>
        <pt x="1018" y="848" on="0"/>
        <pt x="1000" y="759" on="0"/>
        <pt x="979" y="682" on="0"/>
        <pt x="957" y="624" on="0"/>
        <pt x="946" y="612" on="1"/>
        <pt x="929" y="604" on="0"/>
        <pt x="871" y="595" on="0"/>
        <pt x="839" y="595" on="1"/>
        <pt x="804" y="595" on="0"/>
        <pt x="741" y="605" on="0"/>
        <pt x="724" y="615" on="1"/>
        <pt x="703" y="800" on="1"/>
        <pt x="693" y="811" on="0"/>
        <pt x="639" y="827" on="0"/>
        <pt x="578" y="836" on="0"/>
        <pt x="522" y="839" on="0"/>
        <pt x="510" y="836" on="1"/>
        <pt x="484" y="785" on="0"/>
        <pt x="466" y="661" on="0"/>
        <pt x="466" y="593" on="1"/>
        <pt x="466" y="556" on="1"/>
        <pt x="466" y="522" on="0"/>
        <pt x="475" y="435" on="0"/>
        <pt x="511" y="357" on="0"/>
        <pt x="583" y="304" on="0"/>
        <pt x="646" y="304" on="1"/>
        <pt x="654" y="304" on="0"/>
        <pt x="668" y="305" on="0"/>
        <pt x="676" y="306" on="1"/>
        <pt x="709" y="309" on="0"/>
        <pt x="775" y="329" on="0"/>
        <pt x="841" y="355" on="0"/>
        <pt x="907" y="385" on="0"/>
        <pt x="941" y="400" on="1"/>
        <pt x="959" y="382" on="0"/>
        <pt x="989" y="345" on="0"/>
        <pt x="1013" y="298" on="0"/>
        <pt x="1030" y="240" on="0"/>
        <pt x="1034" y="203" on="1"/>
        <pt x="1021" y="188" on="0"/>
        <pt x="968" y="134" on="0"/>
        <pt x="890" y="75" on="0"/>
        <pt x="789" y="19" on="0"/>
        <pt x="728" y="1" on="1"/>
        <pt x="703" y="-246" on="1"/>
        <pt x="686" y="-275" on="0"/>
        <pt x="614" y="-309" on="0"/>
        <pt x="573" y="-309" on="1"/>
        <pt x="544" y="-309" on="0"/>
        <pt x="487" y="-289" on="0"/>
        <pt x="465" y="-267" on="1"/>
        <pt x="440" y="-1" on="1"/>
      </contour>
    </TTGlyph>
    <TTGlyph name="circumflex" xMin="50" yMin="1264" xMax="875" yMax="1746">
      <contour>
        <pt x="189" y="1264" on="1"/>
        <pt x="141" y="1287" on="0"/>
        <pt x="73" y="1360" on="0"/>
        <pt x="50" y="1399" on="1"/>
        <pt x="288" y="1729" on="1"/>
        <pt x="320" y="1738" on="0"/>
        <pt x="415" y="1746" on="0"/>
        <pt x="466" y="1746" on="1"/>
        <pt x="510" y="1746" on="0"/>
        <pt x="590" y="1741" on="0"/>
        <pt x="619" y="1736" on="1"/>
        <pt x="875" y="1397" on="1"/>
        <pt x="845" y="1357" on="0"/>
        <pt x="764" y="1286" on="0"/>
        <pt x="715" y="1264" on="1"/>
        <pt x="640" y="1306" on="0"/>
        <pt x="516" y="1406" on="0"/>
        <pt x="450" y="1469" on="1"/>
        <pt x="392" y="1404" on="0"/>
        <pt x="258" y="1299" on="0"/>
      </contour>
    </TTGlyph>
    <TTGlyph name="circumflex.cap" xMin="50" yMin="1609" xMax="796" yMax="2015">
      <contour>
        <pt x="193" y="1613" on="1"/>
        <pt x="171" y="1623" on="0"/>
        <pt x="129" y="1655" on="0"/>
        <pt x="91" y="1693" on="0"/>
        <pt x="60" y="1734" on="0"/>
        <pt x="50" y="1752" on="1"/>
        <pt x="253" y="1994" on="1"/>
        <pt x="264" y="1999" on="0"/>
        <pt x="306" y="2007" on="0"/>
        <pt x="358" y="2012" on="0"/>
        <pt x="414" y="2015" on="0"/>
        <pt x="439" y="2015" on="1"/>
        <pt x="459" y="2015" on="0"/>
        <pt x="504" y="2014" on="0"/>
        <pt x="546" y="2011" on="0"/>
        <pt x="583" y="2007" on="0"/>
        <pt x="594" y="2004" on="1"/>
        <pt x="796" y="1756" on="1"/>
        <pt x="789" y="1739" on="0"/>
        <pt x="754" y="1694" on="0"/>
        <pt x="706" y="1650" on="0"/>
        <pt x="652" y="1615" on="0"/>
        <pt x="627" y="1609" on="1"/>
        <pt x="564" y="1639" on="0"/>
        <pt x="448" y="1715" on="0"/>
        <pt x="392" y="1765" on="1"/>
        <pt x="345" y="1716" on="0"/>
        <pt x="235" y="1636" on="0"/>
      </contour>
    </TTGlyph>
    <TTGlyph name="colon" xMin="88" yMin="-20" xMax="594" yMax="1168">
      <component glyphName="period" x="0" y="0" flags="0x4"/>
      <component glyphName="period" x="0" y="767" flags="0x4"/>
    </TTGlyph>
    <TTGlyph name="comma" xMin="18" yMin="-301" xMax="576" yMax="402">
      <contour>
        <pt x="189" y="389" on="1"/>
        <pt x="244" y="402" on="0"/>
        <pt x="300" y="401" on="1"/>
        <pt x="349" y="400" on="0"/>
        <pt x="442" y="374" on="0"/>
        <pt x="517" y="323" on="0"/>
        <pt x="568" y="247" on="0"/>
        <pt x="576" y="197" on="1"/>
        <pt x="549" y="135" on="0"/>
        <pt x="455" y="-9" on="0"/>
        <pt x="343" y="-147" on="0"/>
        <pt x="222" y="-265" on="0"/>
        <pt x="168" y="-301" on="1"/>
        <pt x="18" y="-206" on="1"/>
      </contour>
    </TTGlyph>
    <TTGlyph name="commaaccent" xMin="50" yMin="-540" xMax="498" yMax="-84">
      <contour>
        <pt x="114" y="-108" on="1"/>
        <pt x="143" y="-97" on="0"/>
        <pt x="216" y="-84" on="0"/>
        <pt x="255" y="-84" on="1"/>
        <pt x="293" y="-84" on="0"/>
        <pt x="369" y="-97" on="0"/>
        <pt x="435" y="-124" on="0"/>
        <pt x="485" y="-166" on="0"/>
        <pt x="498" y="-195" on="1"/>
        <pt x="492" y="-236" on="0"/>
        <pt x="429" y="-338" on="0"/>
        <pt x="340" y="-437" on="0"/>
        <pt x="238" y="-519" on="0"/>
        <pt x="192" y="-540" on="1"/>
        <pt x="50" y="-483" on="1"/>
        <pt x="64" y="-429" on="0"/>
        <pt x="85" y="-335" on="0"/>
        <pt x="100" y="-246" on="0"/>
        <pt x="111" y="-157" on="0"/>
      </contour>
    </TTGlyph>
    <TTGlyph name="copyright" xMin="67" yMin="-1" xMax="1602" yMax="1534">
      <contour>
        <pt x="67" y="767" on="1"/>
        <pt x="67" y="933" on="0"/>
        <pt x="188" y="1214" on="0"/>
        <pt x="397" y="1419" on="0"/>
        <pt x="677" y="1534" on="0"/>
        <pt x="836" y="1534" on="1"/>
        <pt x="997" y="1534" on="0"/>
        <pt x="1277" y="1450" on="0"/>
        <pt x="1484" y="1266" on="0"/>
        <pt x="1602" y="975" on="0"/>
        <pt x="1602" y="767" on="1"/>
        <pt x="1602" y="656" on="0"/>
        <pt x="1547" y="456" on="0"/>
        <pt x="1447" y="285" on="0"/>
        <pt x="1307" y="148" on="0"/>
        <pt x="1137" y="51" on="0"/>
        <pt x="941" y="-1" on="0"/>
        <pt x="836" y="-1" on="1"/>
        <pt x="659" y="-1" on="0"/>
        <pt x="374" y="95" on="0"/>
        <pt x="175" y="287" on="0"/>
        <pt x="67" y="575" on="0"/>
      </contour>
      <contour>
        <pt x="352" y="730" on="1"/>
        <pt x="352" y="622" on="0"/>
        <pt x="421" y="445" on="0"/>
        <pt x="550" y="320" on="0"/>
        <pt x="737" y="252" on="0"/>
        <pt x="854" y="252" on="1"/>
        <pt x="936" y="252" on="0"/>
        <pt x="1069" y="300" on="0"/>
        <pt x="1172" y="366" on="0"/>
        <pt x="1243" y="436" on="0"/>
        <pt x="1264" y="459" on="1"/>
        <pt x="1256" y="509" on="0"/>
        <pt x="1223" y="575" on="0"/>
        <pt x="1200" y="602" on="1"/>
        <pt x="1167" y="585" on="0"/>
        <pt x="1100" y="552" on="0"/>
        <pt x="1030" y="526" on="0"/>
        <pt x="957" y="510" on="0"/>
        <pt x="918" y="510" on="1"/>
        <pt x="859" y="510" on="0"/>
        <pt x="775" y="549" on="0"/>
        <pt x="721" y="617" on="0"/>
        <pt x="696" y="708" on="0"/>
        <pt x="696" y="760" on="1"/>
        <pt x="696" y="815" on="0"/>
        <pt x="722" y="932" on="0"/>
        <pt x="747" y="990" on="1"/>
        <pt x="764" y="993" on="0"/>
        <pt x="836" y="988" on="0"/>
        <pt x="915" y="973" on="0"/>
        <pt x="985" y="948" on="0"/>
        <pt x="1000" y="933" on="1"/>
        <pt x="1020" y="749" on="1"/>
        <pt x="1036" y="745" on="0"/>
        <pt x="1080" y="741" on="0"/>
        <pt x="1102" y="741" on="1"/>
        <pt x="1128" y="741" on="0"/>
        <pt x="1173" y="747" on="0"/>
        <pt x="1188" y="752" on="1"/>
        <pt x="1197" y="766" on="0"/>
        <pt x="1216" y="822" on="0"/>
        <pt x="1234" y="893" on="0"/>
        <pt x="1250" y="974" on="0"/>
        <pt x="1262" y="1054" on="0"/>
        <pt x="1270" y="1127" on="0"/>
        <pt x="1271" y="1155" on="1"/>
        <pt x="1248" y="1184" on="0"/>
        <pt x="1193" y="1228" on="0"/>
        <pt x="1157" y="1251" on="1"/>
        <pt x="1131" y="1258" on="0"/>
        <pt x="1058" y="1268" on="0"/>
        <pt x="982" y="1275" on="0"/>
        <pt x="908" y="1279" on="0"/>
        <pt x="881" y="1279" on="1"/>
        <pt x="742" y="1279" on="0"/>
        <pt x="542" y="1187" on="0"/>
        <pt x="413" y="1034" on="0"/>
        <pt x="352" y="836" on="0"/>
      </contour>
    </TTGlyph>
</ttFont>
